<?xml version="1.0" encoding="utf-8"?>
<!-- Generator: Adobe Illustrator 27.6.1, SVG Export Plug-In . SVG Version: 6.00 Build 0)  -->
<svg version="1.1" id="Layer_1" xmlns="http://www.w3.org/2000/svg" xmlns:xlink="http://www.w3.org/1999/xlink" x="0px" y="0px"
	 width="409.6px" height="112.8px" viewBox="0 0 409.6 112.8" style="enable-background:new 0 0 409.6 112.8;" xml:space="preserve"
	>
<style type="text/css">
	.st0{fill:url(#underline_00000098183961771357552840000016608491079696363400_);}
	.st1{enable-background:new    ;}
	.st2{fill:#FFFFFF;}
</style>
<g id="Group_6" transform="translate(-197 -243)">
	
		<linearGradient id="underline_00000139268067836521361750000014938041771156014751_" gradientUnits="userSpaceOnUse" x1="-2391.6726" y1="1512.524" x2="-2391.6726" y2="1511.524" gradientTransform="matrix(247.2662 4.2035 0.1229 -7.23 591676.8125 21261.0703)">
		<stop  offset="0" style="stop-color:#FAE594"/>
		<stop  offset="1" style="stop-color:#FDF1BB"/>
	</linearGradient>
	<path id="underline" style="fill:url(#underline_00000139268067836521361750000014938041771156014751_);" d="M606.6,275.3
		c-0.8,1.1-2.9,1.9-4.9,1.8c-6.1-0.4-12.2-0.4-18.3-0.4c-6.4-0.1-12.8-0.1-19.1-0.1c-8.6,0-17.2,0-25.8,0c-6.6,0-13.2,0-19.8,0
		c-6,0-12,0-18,0.1c-9.3,0-18.6,0.1-27.9,0.1c-5.9,0-11.9,0.1-17.8,0.2c-5.9,0.1-11.8,0.1-17.8,0.2c-4.6,0.1-9.2,0.2-13.7,0.3
		c-2.7,0.1-5.4,0.1-8.1,0.1c-6.2,0.1-12.4,0.2-18.5,0.2c-4.7,0-9.4-0.1-14.1-0.2c-4.1-0.1-8.2-0.1-12.3-0.2
		c-3.2-0.1-6.3-0.2-9.4-0.3c-1.3-0.1-1.4-0.1-1.6-0.8c0-0.1,0-0.1-0.1-0.2c-0.3-1.5-0.2-1.5,2.3-1.9c3.8-0.6,7.7-0.9,11.6-1
		c6.8-0.3,13.7-0.4,20.6-0.6c5.2-0.1,10.4-0.1,15.6-0.1c8.2,0,16.4-0.1,24.6-0.1c10.9,0,21.8,0.2,32.7,0.3c8,0.1,16,0.1,24,0.2
		c7.6,0.1,15.2,0.1,22.8,0.2c6.6,0,13.2,0.1,19.8,0.1c8,0.1,16,0.1,24,0.2c10.3,0.1,20.6,0.3,30.8,0.5c5.4,0,10.9,0.4,16.3,1
		c0.5,0.1,1.1,0.2,1.6,0.3C606.2,275.2,606.4,275.3,606.6,275.3"/>
	<g class="st1">
		<path class="st2" d="M218,256.8v8.6c-1.2,0.9-2.5,1.5-3.8,2s-2.9,0.7-4.6,0.7c-1.9,0-3.6-0.3-5.1-0.9c-1.5-0.6-2.8-1.4-3.9-2.5
			c-1.1-1.1-1.9-2.4-2.5-3.9c-0.6-1.5-0.9-3.2-0.9-5.1c0-1.9,0.3-3.5,0.8-5.1c0.6-1.5,1.4-2.8,2.4-3.9c1-1.1,2.3-1.9,3.8-2.5
			s3.2-0.9,5-0.9c0.9,0,1.8,0.1,2.5,0.2c0.8,0.1,1.5,0.3,2.2,0.6c0.7,0.2,1.3,0.5,1.9,0.9c0.6,0.4,1.1,0.8,1.7,1.2l-0.5,0.7
			c-0.2,0.3-0.4,0.3-0.7,0.2c-0.2-0.1-0.4-0.2-0.7-0.5c-0.3-0.2-0.8-0.5-1.3-0.8c-0.6-0.3-1.2-0.5-2.1-0.7c-0.8-0.2-1.8-0.3-3-0.3
			c-1.6,0-3,0.2-4.2,0.7c-1.3,0.5-2.3,1.2-3.2,2.1c-0.9,0.9-1.6,2.1-2.1,3.4c-0.5,1.3-0.7,2.8-0.7,4.5c0,1.7,0.2,3.2,0.7,4.6
			c0.5,1.3,1.2,2.5,2.1,3.4s2,1.7,3.3,2.2s2.8,0.7,4.4,0.7c0.7,0,1.4,0,2-0.1c0.6-0.1,1.2-0.2,1.7-0.4c0.5-0.2,1.1-0.4,1.6-0.6
			c0.5-0.2,1-0.5,1.6-0.8v-6.5h-4.6c-0.1,0-0.2,0-0.3-0.1c-0.1-0.1-0.1-0.2-0.1-0.3v-1H218z"/>
		<path class="st2" d="M225.3,245c0,0.2,0,0.4-0.1,0.6s-0.2,0.3-0.3,0.5c-0.1,0.1-0.3,0.2-0.5,0.3c-0.2,0.1-0.4,0.1-0.6,0.1
			s-0.4,0-0.6-0.1s-0.3-0.2-0.5-0.3c-0.1-0.1-0.2-0.3-0.3-0.5c-0.1-0.2-0.1-0.4-0.1-0.6s0-0.4,0.1-0.6c0.1-0.2,0.2-0.3,0.3-0.5
			c0.1-0.1,0.3-0.2,0.5-0.3s0.4-0.1,0.6-0.1s0.4,0,0.6,0.1c0.2,0.1,0.3,0.2,0.5,0.3c0.1,0.1,0.2,0.3,0.3,0.5
			C225.2,244.6,225.3,244.8,225.3,245z M224.6,250.8v16.9H223v-16.9H224.6z"/>
		<path class="st2" d="M243.9,250.8l-7.1,16.9h-1.4l-7.1-16.9h1.3c0.2,0,0.3,0,0.4,0.1s0.2,0.2,0.2,0.3l5.6,13.3
			c0.2,0.5,0.3,1,0.4,1.5c0.1-0.5,0.2-1,0.4-1.5l5.6-13.3c0.1-0.1,0.1-0.2,0.2-0.3c0.1-0.1,0.2-0.1,0.3-0.1H243.9z"/>
		<path class="st2" d="M247.6,258.6v0.3c0,1.3,0.1,2.4,0.4,3.3c0.3,1,0.7,1.8,1.3,2.4c0.5,0.7,1.2,1.1,2,1.5
			c0.8,0.3,1.6,0.5,2.6,0.5c0.9,0,1.6-0.1,2.2-0.3c0.6-0.2,1.1-0.4,1.6-0.6c0.4-0.2,0.8-0.4,1-0.6c0.2-0.2,0.4-0.3,0.5-0.3
			c0.1,0,0.3,0.1,0.3,0.2l0.4,0.5c-0.3,0.3-0.6,0.7-1.1,1c-0.4,0.3-0.9,0.5-1.5,0.8c-0.5,0.2-1.1,0.4-1.8,0.5
			c-0.6,0.1-1.3,0.2-1.9,0.2c-1.2,0-2.2-0.2-3.2-0.6c-1-0.4-1.8-1-2.4-1.8s-1.2-1.7-1.6-2.8s-0.6-2.4-0.6-3.8c0-1.2,0.2-2.3,0.5-3.4
			c0.3-1,0.8-1.9,1.5-2.7c0.7-0.7,1.5-1.3,2.4-1.7c0.9-0.4,2-0.6,3.2-0.6c1,0,1.8,0.2,2.7,0.5c0.8,0.3,1.5,0.8,2.1,1.4
			c0.6,0.6,1.1,1.4,1.4,2.3c0.3,0.9,0.5,2,0.5,3.2c0,0.2,0,0.4-0.1,0.5c-0.1,0.1-0.2,0.1-0.3,0.1H247.6z M258.8,257.6
			c0-0.9-0.1-1.7-0.4-2.4s-0.6-1.3-1.1-1.8c-0.5-0.5-1-0.9-1.7-1.1c-0.6-0.3-1.3-0.4-2.1-0.4c-0.9,0-1.7,0.1-2.3,0.4
			c-0.7,0.3-1.3,0.7-1.8,1.2c-0.5,0.5-0.9,1.1-1.2,1.8c-0.3,0.7-0.5,1.5-0.6,2.4H258.8z"/>
		<path class="st2" d="M275.5,253.9c0.7-1,1.6-1.8,2.6-2.4s2.1-0.9,3.4-0.9c2.1,0,3.7,0.7,4.9,2.2c1.2,1.4,1.7,3.6,1.7,6.5
			c0,1.2-0.2,2.4-0.5,3.5c-0.3,1.1-0.8,2-1.4,2.8s-1.4,1.4-2.3,1.9c-0.9,0.5-2,0.7-3.2,0.7c-1.1,0-2.1-0.2-3-0.6
			c-0.8-0.4-1.6-1-2.2-1.9v8.2h-1.6v-22.9h0.9c0.3,0,0.4,0.1,0.5,0.4L275.5,253.9z M275.6,264c0.3,0.5,0.7,0.9,1,1.2
			c0.4,0.3,0.7,0.6,1.1,0.8c0.4,0.2,0.8,0.4,1.3,0.5c0.4,0.1,0.9,0.1,1.4,0.1c1,0,1.9-0.2,2.6-0.5c0.7-0.4,1.4-0.9,1.9-1.5
			c0.5-0.7,0.9-1.5,1.1-2.4s0.4-1.9,0.4-3.1c0-2.5-0.5-4.4-1.4-5.5c-0.9-1.2-2.3-1.8-4-1.8c-1.1,0-2.1,0.3-3,0.9s-1.7,1.4-2.4,2.4
			V264z"/>
		<path class="st2" d="M295.2,245c0,0.2,0,0.4-0.1,0.6s-0.2,0.3-0.3,0.5c-0.1,0.1-0.3,0.2-0.5,0.3c-0.2,0.1-0.4,0.1-0.6,0.1
			s-0.4,0-0.6-0.1s-0.3-0.2-0.5-0.3c-0.1-0.1-0.2-0.3-0.3-0.5c-0.1-0.2-0.1-0.4-0.1-0.6s0-0.4,0.1-0.6c0.1-0.2,0.2-0.3,0.3-0.5
			c0.1-0.1,0.3-0.2,0.5-0.3s0.4-0.1,0.6-0.1s0.4,0,0.6,0.1c0.2,0.1,0.3,0.2,0.5,0.3c0.1,0.1,0.2,0.3,0.3,0.5
			C295.1,244.6,295.2,244.8,295.2,245z M294.5,250.8v16.9h-1.6v-16.9H294.5z"/>
		<path class="st2" d="M302,243v24.7h-1.6V243H302z"/>
		<path class="st2" d="M314.5,250.5c1.2,0,2.3,0.2,3.3,0.6c1,0.4,1.8,1,2.4,1.8c0.7,0.8,1.2,1.7,1.5,2.7s0.5,2.3,0.5,3.6
			s-0.2,2.5-0.5,3.6s-0.8,2-1.5,2.7c-0.7,0.8-1.5,1.3-2.4,1.8c-1,0.4-2,0.6-3.3,0.6s-2.3-0.2-3.3-0.6c-1-0.4-1.8-1-2.4-1.8
			c-0.7-0.8-1.2-1.7-1.5-2.7c-0.3-1.1-0.5-2.3-0.5-3.6s0.2-2.5,0.5-3.6c0.3-1.1,0.9-2,1.5-2.7c0.7-0.8,1.5-1.3,2.4-1.8
			C312.2,250.8,313.3,250.5,314.5,250.5z M314.5,266.7c1,0,1.9-0.2,2.6-0.5s1.4-0.8,1.9-1.5c0.5-0.6,0.9-1.4,1.1-2.3
			c0.2-0.9,0.4-1.9,0.4-3.1c0-1.1-0.1-2.1-0.4-3.1c-0.2-0.9-0.6-1.7-1.1-2.4c-0.5-0.7-1.1-1.2-1.9-1.5s-1.6-0.5-2.6-0.5
			s-1.9,0.2-2.6,0.5c-0.8,0.4-1.4,0.9-1.9,1.5c-0.5,0.7-0.9,1.4-1.1,2.4s-0.4,1.9-0.4,3.1c0,1.1,0.1,2.2,0.4,3.1s0.6,1.7,1.1,2.3
			c0.5,0.6,1.1,1.1,1.9,1.5C312.6,266.5,313.5,266.7,314.5,266.7z"/>
		<path class="st2" d="M331.1,268c-1.1,0-2-0.3-2.7-1s-1-1.6-1-2.9v-11.6H325c-0.1,0-0.2,0-0.3-0.1c-0.1-0.1-0.1-0.2-0.1-0.3v-0.6
			l2.9-0.2l0.4-6.1c0-0.1,0.1-0.2,0.1-0.3c0.1-0.1,0.2-0.1,0.3-0.1h0.8v6.5h5.3v1.2h-5.3V264c0,0.5,0.1,0.9,0.2,1.2
			c0.1,0.3,0.3,0.6,0.5,0.8c0.2,0.2,0.5,0.4,0.7,0.5s0.6,0.2,0.9,0.2c0.4,0,0.8-0.1,1.1-0.2c0.3-0.1,0.5-0.2,0.8-0.4
			c0.2-0.1,0.4-0.3,0.5-0.4c0.1-0.1,0.2-0.2,0.3-0.2c0.1,0,0.2,0.1,0.3,0.2l0.4,0.7c-0.4,0.5-1,0.9-1.6,1.1S331.8,268,331.1,268z"/>
		<path class="st2" d="M347.4,252.9c-0.1,0.2-0.2,0.2-0.4,0.2c-0.1,0-0.3-0.1-0.5-0.2c-0.2-0.1-0.5-0.3-0.8-0.5
			c-0.3-0.2-0.7-0.3-1.2-0.5c-0.5-0.1-1.1-0.2-1.7-0.2c-0.6,0-1.2,0.1-1.7,0.3s-0.9,0.4-1.3,0.7s-0.6,0.6-0.8,1
			c-0.2,0.4-0.3,0.8-0.3,1.2c0,0.5,0.1,1,0.4,1.3c0.3,0.4,0.6,0.7,1.1,0.9c0.4,0.2,0.9,0.5,1.5,0.6c0.6,0.2,1.1,0.4,1.7,0.5
			c0.6,0.2,1.2,0.4,1.7,0.6c0.6,0.2,1.1,0.5,1.5,0.8c0.4,0.3,0.8,0.7,1.1,1.2c0.3,0.5,0.4,1.1,0.4,1.7c0,0.7-0.1,1.4-0.4,2.1
			s-0.6,1.2-1.1,1.6s-1.1,0.8-1.9,1.1c-0.7,0.3-1.6,0.4-2.5,0.4c-1.2,0-2.2-0.2-3.1-0.6c-0.9-0.4-1.6-0.9-2.3-1.5l0.4-0.6
			c0.1-0.1,0.1-0.2,0.2-0.2c0.1,0,0.2-0.1,0.3-0.1c0.1,0,0.3,0.1,0.5,0.3c0.2,0.2,0.5,0.4,0.8,0.6c0.4,0.2,0.8,0.4,1.3,0.6
			c0.5,0.2,1.2,0.3,1.9,0.3c0.7,0,1.3-0.1,1.9-0.3c0.5-0.2,1-0.5,1.4-0.8c0.4-0.3,0.6-0.7,0.8-1.2s0.3-0.9,0.3-1.5
			c0-0.6-0.1-1-0.4-1.4s-0.6-0.7-1.1-1c-0.4-0.3-0.9-0.5-1.5-0.7c-0.6-0.2-1.1-0.4-1.7-0.5c-0.6-0.2-1.2-0.4-1.7-0.6
			s-1.1-0.5-1.5-0.8c-0.4-0.3-0.8-0.7-1.1-1.2c-0.3-0.5-0.4-1.1-0.4-1.8c0-0.6,0.1-1.2,0.4-1.7c0.3-0.6,0.6-1,1.1-1.5
			c0.5-0.4,1.1-0.8,1.8-1c0.7-0.2,1.5-0.4,2.3-0.4c1,0,1.9,0.1,2.7,0.4c0.8,0.3,1.5,0.7,2.2,1.4L347.4,252.9z"/>
		<path class="st2" d="M373.2,253.1c-0.1,0.1-0.1,0.1-0.2,0.1c-0.1,0-0.1,0.1-0.2,0.1c-0.1,0-0.3-0.1-0.5-0.2
			c-0.2-0.2-0.5-0.3-0.8-0.5c-0.3-0.2-0.7-0.3-1.2-0.5s-1.1-0.2-1.8-0.2c-1,0-1.8,0.2-2.6,0.5c-0.8,0.3-1.4,0.8-1.9,1.5
			c-0.5,0.6-0.9,1.4-1.2,2.3c-0.3,0.9-0.4,1.9-0.4,3.1c0,1.2,0.1,2.2,0.4,3.2c0.3,0.9,0.7,1.7,1.2,2.3c0.5,0.6,1.1,1.1,1.9,1.4
			c0.7,0.3,1.5,0.5,2.4,0.5c0.8,0,1.5-0.1,2-0.3c0.5-0.2,1-0.4,1.4-0.6s0.6-0.4,0.8-0.6c0.2-0.2,0.4-0.3,0.5-0.3
			c0.1,0,0.2,0.1,0.3,0.2l0.4,0.5c-0.3,0.3-0.6,0.7-1,1c-0.4,0.3-0.8,0.5-1.3,0.8c-0.5,0.2-1,0.4-1.6,0.5c-0.6,0.1-1.2,0.2-1.8,0.2
			c-1.1,0-2.1-0.2-2.9-0.6c-0.9-0.4-1.7-1-2.3-1.7s-1.1-1.7-1.5-2.7c-0.4-1.1-0.5-2.3-0.5-3.7c0-1.3,0.2-2.5,0.5-3.5
			c0.3-1.1,0.8-2,1.5-2.8s1.5-1.4,2.4-1.8c0.9-0.4,2-0.6,3.3-0.6c1.1,0,2.1,0.2,2.9,0.5c0.9,0.4,1.6,0.8,2.2,1.4L373.2,253.1z"/>
		<path class="st2" d="M384.2,250.5c1.2,0,2.3,0.2,3.3,0.6c1,0.4,1.8,1,2.4,1.8c0.7,0.8,1.2,1.7,1.5,2.7s0.5,2.3,0.5,3.6
			s-0.2,2.5-0.5,3.6s-0.8,2-1.5,2.7c-0.7,0.8-1.5,1.3-2.4,1.8c-1,0.4-2,0.6-3.3,0.6s-2.3-0.2-3.3-0.6c-1-0.4-1.8-1-2.4-1.8
			c-0.7-0.8-1.2-1.7-1.5-2.7c-0.3-1.1-0.5-2.3-0.5-3.6s0.2-2.5,0.5-3.6c0.3-1.1,0.9-2,1.5-2.7c0.7-0.8,1.5-1.3,2.4-1.8
			C381.9,250.8,383,250.5,384.2,250.5z M384.2,266.7c1,0,1.9-0.2,2.6-0.5s1.4-0.8,1.9-1.5c0.5-0.6,0.9-1.4,1.1-2.3
			c0.2-0.9,0.4-1.9,0.4-3.1c0-1.1-0.1-2.1-0.4-3.1c-0.2-0.9-0.6-1.7-1.1-2.4c-0.5-0.7-1.1-1.2-1.9-1.5s-1.6-0.5-2.6-0.5
			s-1.9,0.2-2.6,0.5c-0.8,0.4-1.4,0.9-1.9,1.5c-0.5,0.7-0.9,1.4-1.1,2.4s-0.4,1.9-0.4,3.1c0,1.1,0.1,2.2,0.4,3.1s0.6,1.7,1.1,2.3
			c0.5,0.6,1.1,1.1,1.9,1.5C382.3,266.5,383.2,266.7,384.2,266.7z"/>
		<path class="st2" d="M396.5,267.7v-16.9h0.9c0.3,0,0.4,0.1,0.5,0.4l0.2,2.4c0.7-0.9,1.4-1.7,2.3-2.3c0.8-0.6,1.8-0.9,2.9-0.9
			c1.2,0,2.2,0.4,3,1.1s1.2,1.7,1.5,3c0.2-0.7,0.5-1.3,0.9-1.8c0.4-0.5,0.8-0.9,1.3-1.3c0.5-0.3,1-0.6,1.6-0.7
			c0.6-0.2,1.1-0.2,1.7-0.2c0.8,0,1.6,0.1,2.3,0.4c0.7,0.3,1.2,0.7,1.7,1.2s0.8,1.2,1.1,2c0.2,0.8,0.4,1.7,0.4,2.7v10.8h-1.6v-10.8
			c0-1.7-0.4-2.9-1.1-3.8c-0.7-0.9-1.7-1.3-3.1-1.3c-0.6,0-1.2,0.1-1.7,0.3c-0.5,0.2-1,0.5-1.4,1s-0.7,1-1,1.6
			c-0.2,0.6-0.4,1.4-0.4,2.2v10.8h-1.6v-10.8c0-1.6-0.3-2.9-1-3.8c-0.7-0.9-1.6-1.3-2.9-1.3c-0.9,0-1.8,0.3-2.5,0.8
			c-0.8,0.5-1.5,1.3-2.1,2.3v12.8H396.5z"/>
		<path class="st2" d="M425.4,253.9c0.7-1,1.6-1.8,2.6-2.4c1-0.6,2.1-0.9,3.4-0.9c2.1,0,3.7,0.7,4.9,2.2s1.7,3.6,1.7,6.5
			c0,1.2-0.2,2.4-0.5,3.5c-0.3,1.1-0.8,2-1.4,2.8s-1.4,1.4-2.3,1.9s-2,0.7-3.2,0.7c-1.1,0-2.1-0.2-3-0.6s-1.6-1-2.2-1.9v8.2h-1.6
			v-22.9h0.9c0.3,0,0.4,0.1,0.5,0.4L425.4,253.9z M425.5,264c0.3,0.5,0.7,0.9,1,1.2c0.4,0.3,0.7,0.6,1.1,0.8
			c0.4,0.2,0.8,0.4,1.3,0.5c0.4,0.1,0.9,0.1,1.4,0.1c1,0,1.9-0.2,2.6-0.5c0.7-0.4,1.4-0.9,1.9-1.5s0.9-1.5,1.1-2.4
			c0.3-0.9,0.4-1.9,0.4-3.1c0-2.5-0.5-4.4-1.4-5.5c-0.9-1.2-2.3-1.8-4-1.8c-1.1,0-2.1,0.3-3,0.9s-1.7,1.4-2.4,2.4V264z"/>
		<path class="st2" d="M444.4,243v24.7h-1.6V243H444.4z"/>
		<path class="st2" d="M450.7,258.6v0.3c0,1.3,0.1,2.4,0.4,3.3c0.3,1,0.7,1.8,1.3,2.4c0.5,0.7,1.2,1.1,2,1.5
			c0.8,0.3,1.6,0.5,2.6,0.5c0.9,0,1.6-0.1,2.2-0.3c0.6-0.2,1.1-0.4,1.6-0.6c0.4-0.2,0.8-0.4,1-0.6c0.2-0.2,0.4-0.3,0.5-0.3
			c0.1,0,0.3,0.1,0.3,0.2l0.4,0.5c-0.3,0.3-0.6,0.7-1.1,1s-0.9,0.5-1.5,0.8c-0.5,0.2-1.1,0.4-1.8,0.5c-0.6,0.1-1.3,0.2-1.9,0.2
			c-1.2,0-2.2-0.2-3.2-0.6c-1-0.4-1.8-1-2.4-1.8c-0.7-0.8-1.2-1.7-1.6-2.8s-0.6-2.4-0.6-3.8c0-1.2,0.2-2.3,0.5-3.4
			c0.3-1,0.8-1.9,1.5-2.7c0.7-0.7,1.4-1.3,2.4-1.7c0.9-0.4,2-0.6,3.2-0.6c1,0,1.8,0.2,2.7,0.5c0.8,0.3,1.5,0.8,2.1,1.4
			c0.6,0.6,1.1,1.4,1.4,2.3c0.3,0.9,0.5,2,0.5,3.2c0,0.2,0,0.4-0.1,0.5s-0.2,0.1-0.3,0.1H450.7z M462,257.6c0-0.9-0.1-1.7-0.4-2.4
			s-0.6-1.3-1.1-1.8c-0.5-0.5-1-0.9-1.7-1.1c-0.6-0.3-1.3-0.4-2.1-0.4c-0.9,0-1.7,0.1-2.3,0.4c-0.7,0.3-1.3,0.7-1.8,1.2
			c-0.5,0.5-0.9,1.1-1.2,1.8c-0.3,0.7-0.5,1.5-0.6,2.4H462z"/>
		<path class="st2" d="M472.4,268c-1.1,0-2-0.3-2.7-1s-1-1.6-1-2.9v-11.6h-2.4c-0.1,0-0.2,0-0.3-0.1c-0.1-0.1-0.1-0.2-0.1-0.3v-0.6
			l2.9-0.2l0.4-6.1c0-0.1,0.1-0.2,0.1-0.3c0.1-0.1,0.2-0.1,0.3-0.1h0.8v6.5h5.3v1.2h-5.3V264c0,0.5,0.1,0.9,0.2,1.2
			c0.1,0.3,0.3,0.6,0.5,0.8c0.2,0.2,0.5,0.4,0.7,0.5s0.6,0.2,0.9,0.2c0.4,0,0.8-0.1,1.1-0.2s0.5-0.2,0.8-0.4
			c0.2-0.1,0.4-0.3,0.5-0.4s0.2-0.2,0.3-0.2c0.1,0,0.2,0.1,0.3,0.2l0.4,0.7c-0.4,0.5-1,0.9-1.6,1.1S473.1,268,472.4,268z"/>
		<path class="st2" d="M479.9,258.6v0.3c0,1.3,0.1,2.4,0.4,3.3c0.3,1,0.7,1.8,1.3,2.4c0.5,0.7,1.2,1.1,2,1.5
			c0.8,0.3,1.6,0.5,2.6,0.5c0.8,0,1.6-0.1,2.2-0.3c0.6-0.2,1.1-0.4,1.6-0.6c0.4-0.2,0.8-0.4,1-0.6c0.2-0.2,0.4-0.3,0.5-0.3
			c0.1,0,0.3,0.1,0.3,0.2l0.4,0.5c-0.3,0.3-0.6,0.7-1.1,1c-0.4,0.3-0.9,0.5-1.5,0.8c-0.5,0.2-1.1,0.4-1.8,0.5
			c-0.6,0.1-1.3,0.2-1.9,0.2c-1.2,0-2.2-0.2-3.2-0.6c-1-0.4-1.8-1-2.4-1.8s-1.2-1.7-1.6-2.8c-0.4-1.1-0.6-2.4-0.6-3.8
			c0-1.2,0.2-2.3,0.5-3.4c0.3-1,0.8-1.9,1.5-2.7c0.7-0.7,1.5-1.3,2.4-1.7c0.9-0.4,2-0.6,3.2-0.6c1,0,1.8,0.2,2.7,0.5
			c0.8,0.3,1.5,0.8,2.1,1.4s1.1,1.4,1.4,2.3c0.3,0.9,0.5,2,0.5,3.2c0,0.2,0,0.4-0.1,0.5c-0.1,0.1-0.2,0.1-0.3,0.1H479.9z
			 M491.2,257.6c0-0.9-0.1-1.7-0.4-2.4c-0.3-0.7-0.6-1.3-1.1-1.8c-0.5-0.5-1-0.9-1.7-1.1c-0.6-0.3-1.3-0.4-2.1-0.4
			c-0.9,0-1.7,0.1-2.3,0.4c-0.7,0.3-1.3,0.7-1.8,1.2c-0.5,0.5-0.9,1.1-1.2,1.8c-0.3,0.7-0.5,1.5-0.6,2.4H491.2z"/>
		<path class="st2" d="M517.7,253.1c-0.1,0.1-0.1,0.1-0.2,0.1c-0.1,0-0.1,0.1-0.2,0.1c-0.1,0-0.3-0.1-0.5-0.2
			c-0.2-0.2-0.5-0.3-0.8-0.5c-0.3-0.2-0.7-0.3-1.2-0.5c-0.5-0.2-1.1-0.2-1.8-0.2c-1,0-1.8,0.2-2.6,0.5c-0.8,0.3-1.4,0.8-1.9,1.5
			c-0.5,0.6-0.9,1.4-1.2,2.3s-0.4,1.9-0.4,3.1c0,1.2,0.1,2.2,0.4,3.2s0.7,1.7,1.2,2.3s1.1,1.1,1.9,1.4c0.7,0.3,1.5,0.5,2.4,0.5
			c0.8,0,1.5-0.1,2-0.3c0.5-0.2,1-0.4,1.4-0.6s0.6-0.4,0.8-0.6c0.2-0.2,0.4-0.3,0.5-0.3c0.1,0,0.2,0.1,0.3,0.2l0.4,0.5
			c-0.3,0.3-0.6,0.7-1,1c-0.4,0.3-0.8,0.5-1.3,0.8c-0.5,0.2-1,0.4-1.6,0.5c-0.6,0.1-1.2,0.2-1.8,0.2c-1.1,0-2.1-0.2-2.9-0.6
			c-0.9-0.4-1.7-1-2.3-1.7s-1.1-1.7-1.5-2.7c-0.4-1.1-0.5-2.3-0.5-3.7c0-1.3,0.2-2.5,0.5-3.5s0.8-2,1.5-2.8s1.5-1.4,2.4-1.8
			c0.9-0.4,2-0.6,3.3-0.6c1.1,0,2.1,0.2,2.9,0.5c0.9,0.4,1.6,0.8,2.2,1.4L517.7,253.1z"/>
		<path class="st2" d="M528.7,250.5c1.2,0,2.3,0.2,3.3,0.6c1,0.4,1.8,1,2.4,1.8c0.7,0.8,1.2,1.7,1.5,2.7s0.5,2.3,0.5,3.6
			s-0.2,2.5-0.5,3.6s-0.8,2-1.5,2.7c-0.7,0.8-1.5,1.3-2.4,1.8c-1,0.4-2,0.6-3.3,0.6s-2.3-0.2-3.3-0.6c-1-0.4-1.8-1-2.4-1.8
			c-0.7-0.8-1.2-1.7-1.5-2.7s-0.5-2.3-0.5-3.6s0.2-2.5,0.5-3.6s0.9-2,1.5-2.7c0.7-0.8,1.5-1.3,2.4-1.8S527.5,250.5,528.7,250.5z
			 M528.7,266.7c1,0,1.9-0.2,2.6-0.5s1.4-0.8,1.9-1.5c0.5-0.6,0.9-1.4,1.1-2.3c0.2-0.9,0.4-1.9,0.4-3.1c0-1.1-0.1-2.1-0.4-3.1
			c-0.2-0.9-0.6-1.7-1.1-2.4c-0.5-0.7-1.1-1.2-1.9-1.5s-1.6-0.5-2.6-0.5c-1,0-1.9,0.2-2.6,0.5s-1.4,0.9-1.9,1.5
			c-0.5,0.7-0.9,1.4-1.1,2.4s-0.4,1.9-0.4,3.1c0,1.1,0.1,2.2,0.4,3.1s0.6,1.7,1.1,2.3c0.5,0.6,1.1,1.1,1.9,1.5
			S527.7,266.7,528.7,266.7z"/>
		<path class="st2" d="M542.6,253.8c0.8-1,1.7-1.8,2.7-2.3c1-0.6,2.2-0.9,3.4-0.9c0.9,0,1.7,0.1,2.5,0.4s1.3,0.7,1.8,1.3
			c0.5,0.6,0.8,1.2,1.1,2s0.4,1.7,0.4,2.7v10.8h-1.6v-10.8c0-1.6-0.4-2.8-1.1-3.7c-0.7-0.9-1.8-1.4-3.3-1.4c-1.1,0-2.1,0.3-3.1,0.8
			c-1,0.6-1.8,1.3-2.6,2.3v12.7H541v-16.9h0.9c0.3,0,0.4,0.1,0.5,0.4L542.6,253.8z"/>
		<path class="st2" d="M564.1,268c-1.1,0-2-0.3-2.7-1c-0.6-0.6-1-1.6-1-2.9v-11.6H558c-0.1,0-0.2,0-0.3-0.1
			c-0.1-0.1-0.1-0.2-0.1-0.3v-0.6l2.9-0.2l0.4-6.1c0-0.1,0.1-0.2,0.1-0.3c0.1-0.1,0.2-0.1,0.3-0.1h0.8v6.5h5.3v1.2h-5.3V264
			c0,0.5,0.1,0.9,0.2,1.2c0.1,0.3,0.3,0.6,0.5,0.8c0.2,0.2,0.5,0.4,0.7,0.5s0.6,0.2,0.9,0.2c0.4,0,0.8-0.1,1.1-0.2s0.5-0.2,0.8-0.4
			c0.2-0.1,0.4-0.3,0.5-0.4c0.1-0.1,0.2-0.2,0.3-0.2c0.1,0,0.2,0.1,0.3,0.2l0.4,0.7c-0.4,0.5-1,0.9-1.6,1.1
			C565.5,267.9,564.8,268,564.1,268z"/>
		<path class="st2" d="M572.7,254.9c0.3-0.7,0.6-1.3,0.9-1.8c0.3-0.5,0.7-1,1.2-1.4c0.4-0.4,0.9-0.7,1.5-0.9s1.1-0.3,1.8-0.3
			c0.4,0,0.7,0,1,0.1c0.3,0.1,0.6,0.2,0.9,0.3l-0.1,1.1c-0.1,0.2-0.2,0.3-0.3,0.3c-0.1,0-0.3,0-0.6-0.1s-0.6-0.1-1.1-0.1
			c-0.7,0-1.2,0.1-1.7,0.3c-0.5,0.2-1,0.5-1.4,0.9s-0.8,0.9-1.1,1.5c-0.3,0.6-0.6,1.3-0.8,2v10.9h-1.6v-16.9h0.9
			c0.2,0,0.3,0,0.4,0.1c0.1,0.1,0.1,0.2,0.2,0.4L572.7,254.9z"/>
		<path class="st2" d="M588.9,250.5c1.2,0,2.3,0.2,3.3,0.6c1,0.4,1.8,1,2.4,1.8c0.7,0.8,1.2,1.7,1.5,2.7s0.5,2.3,0.5,3.6
			s-0.2,2.5-0.5,3.6s-0.8,2-1.5,2.7c-0.7,0.8-1.5,1.3-2.4,1.8c-1,0.4-2,0.6-3.3,0.6s-2.3-0.2-3.3-0.6c-1-0.4-1.8-1-2.4-1.8
			c-0.7-0.8-1.2-1.7-1.5-2.7s-0.5-2.3-0.5-3.6s0.2-2.5,0.5-3.6s0.9-2,1.5-2.7c0.7-0.8,1.5-1.3,2.4-1.8S587.7,250.5,588.9,250.5z
			 M588.9,266.7c1,0,1.9-0.2,2.6-0.5s1.4-0.8,1.9-1.5c0.5-0.6,0.9-1.4,1.1-2.3c0.2-0.9,0.4-1.9,0.4-3.1c0-1.1-0.1-2.1-0.4-3.1
			c-0.2-0.9-0.6-1.7-1.1-2.4c-0.5-0.7-1.1-1.2-1.9-1.5s-1.6-0.5-2.6-0.5c-1,0-1.9,0.2-2.6,0.5s-1.4,0.9-1.9,1.5
			c-0.5,0.7-0.9,1.4-1.1,2.4s-0.4,1.9-0.4,3.1c0,1.1,0.1,2.2,0.4,3.1s0.6,1.7,1.1,2.3c0.5,0.6,1.1,1.1,1.9,1.5
			S587.9,266.7,588.9,266.7z"/>
		<path class="st2" d="M603,243v24.7h-1.6V243H603z"/>
	</g>
	<g class="st1">
		<path class="st2" d="M204.7,291.5c1.2,0,2.3,0.2,3.3,0.6c1,0.4,1.8,1,2.4,1.8c0.7,0.8,1.2,1.7,1.5,2.7s0.5,2.3,0.5,3.6
			s-0.2,2.5-0.5,3.6s-0.8,2-1.5,2.7c-0.7,0.8-1.5,1.3-2.4,1.8c-1,0.4-2,0.6-3.3,0.6s-2.3-0.2-3.3-0.6c-1-0.4-1.8-1-2.4-1.8
			c-0.7-0.8-1.2-1.7-1.5-2.7c-0.3-1.1-0.5-2.3-0.5-3.6s0.2-2.5,0.5-3.6c0.3-1.1,0.9-2,1.5-2.7c0.7-0.8,1.5-1.3,2.4-1.8
			C202.4,291.8,203.5,291.5,204.7,291.5z M204.7,307.7c1,0,1.9-0.2,2.6-0.5s1.4-0.8,1.9-1.5c0.5-0.6,0.9-1.4,1.1-2.3
			c0.2-0.9,0.4-1.9,0.4-3.1c0-1.1-0.1-2.1-0.4-3.1c-0.2-0.9-0.6-1.7-1.1-2.4c-0.5-0.7-1.1-1.2-1.9-1.5s-1.6-0.5-2.6-0.5
			s-1.9,0.2-2.6,0.5c-0.8,0.4-1.4,0.9-1.9,1.5c-0.5,0.7-0.9,1.4-1.1,2.4s-0.4,1.9-0.4,3.1c0,1.1,0.1,2.2,0.4,3.1s0.6,1.7,1.1,2.3
			c0.5,0.6,1.1,1.1,1.9,1.5C202.8,307.5,203.7,307.7,204.7,307.7z"/>
		<path class="st2" d="M217.7,308.7v-15.1l-2.4-0.2c-0.3,0-0.5-0.2-0.5-0.4v-0.7h2.9v-2.1c0-1,0.1-1.8,0.4-2.5
			c0.2-0.7,0.6-1.3,1.1-1.8c0.5-0.5,1-0.9,1.6-1.1c0.6-0.2,1.3-0.4,2.1-0.4c0.4,0,0.7,0,1.1,0.1s0.7,0.2,1,0.3l-0.1,0.8
			c0,0.1-0.1,0.2-0.1,0.2c-0.1,0-0.2,0-0.3,0c-0.1,0-0.3,0-0.5-0.1c-0.2,0-0.5,0-0.7,0c-0.6,0-1.1,0.1-1.5,0.2
			c-0.5,0.2-0.9,0.4-1.2,0.8c-0.3,0.4-0.6,0.8-0.8,1.4c-0.2,0.6-0.3,1.3-0.3,2.2v2.1h5.5v1.2h-5.4v15.2H217.7z"/>
		<path class="st2" d="M241.5,309c-1.1,0-2-0.3-2.7-1s-1-1.6-1-2.9v-11.6h-2.4c-0.1,0-0.2,0-0.3-0.1c-0.1-0.1-0.1-0.2-0.1-0.3v-0.6
			l2.9-0.2l0.4-6.1c0-0.1,0.1-0.2,0.1-0.3c0.1-0.1,0.2-0.1,0.3-0.1h0.8v6.5h5.3v1.2h-5.3V305c0,0.5,0.1,0.9,0.2,1.2
			c0.1,0.3,0.3,0.6,0.5,0.8c0.2,0.2,0.5,0.4,0.7,0.5s0.6,0.2,0.9,0.2c0.4,0,0.8-0.1,1.1-0.2c0.3-0.1,0.5-0.2,0.8-0.4
			c0.2-0.1,0.4-0.3,0.5-0.4c0.1-0.1,0.2-0.2,0.3-0.2c0.1,0,0.2,0.1,0.3,0.2l0.4,0.7c-0.4,0.5-1,0.9-1.6,1.1S242.3,309,241.5,309z"/>
		<path class="st2" d="M250.2,294.7c0.8-1,1.7-1.7,2.7-2.3s2.1-0.8,3.4-0.8c0.9,0,1.7,0.1,2.5,0.4c0.7,0.3,1.3,0.7,1.8,1.3
			c0.5,0.6,0.8,1.2,1.1,2c0.2,0.8,0.4,1.7,0.4,2.7v10.8h-1.6v-10.8c0-1.6-0.4-2.8-1.1-3.7c-0.7-0.9-1.8-1.4-3.3-1.4
			c-1.1,0-2.1,0.3-3.1,0.8c-1,0.6-1.8,1.3-2.6,2.3v12.7h-1.6V284h1.6V294.7z"/>
		<path class="st2" d="M267.8,299.6v0.3c0,1.3,0.1,2.4,0.4,3.3c0.3,1,0.7,1.8,1.3,2.4c0.5,0.7,1.2,1.1,2,1.5
			c0.8,0.3,1.6,0.5,2.6,0.5c0.9,0,1.6-0.1,2.2-0.3c0.6-0.2,1.1-0.4,1.6-0.6c0.4-0.2,0.8-0.4,1-0.6c0.2-0.2,0.4-0.3,0.5-0.3
			c0.1,0,0.3,0.1,0.3,0.2l0.4,0.5c-0.3,0.3-0.6,0.7-1.1,1c-0.4,0.3-0.9,0.5-1.5,0.8c-0.5,0.2-1.1,0.4-1.8,0.5
			c-0.6,0.1-1.3,0.2-1.9,0.2c-1.2,0-2.2-0.2-3.2-0.6c-1-0.4-1.8-1-2.4-1.8s-1.2-1.7-1.6-2.8s-0.6-2.4-0.6-3.8c0-1.2,0.2-2.3,0.5-3.4
			c0.3-1,0.8-1.9,1.5-2.7c0.7-0.7,1.5-1.3,2.4-1.7c0.9-0.4,2-0.6,3.2-0.6c1,0,1.8,0.2,2.7,0.5c0.8,0.3,1.5,0.8,2.1,1.4
			c0.6,0.6,1.1,1.4,1.4,2.3c0.3,0.9,0.5,2,0.5,3.2c0,0.2,0,0.4-0.1,0.5c-0.1,0.1-0.2,0.1-0.3,0.1H267.8z M279.1,298.6
			c0-0.9-0.1-1.7-0.4-2.4s-0.6-1.3-1.1-1.8c-0.5-0.5-1-0.9-1.7-1.1c-0.6-0.3-1.3-0.4-2.1-0.4c-0.9,0-1.7,0.1-2.3,0.4
			c-0.7,0.3-1.3,0.7-1.8,1.2c-0.5,0.5-0.9,1.1-1.2,1.8c-0.3,0.7-0.5,1.5-0.6,2.4H279.1z"/>
		<path class="st2" d="M293.7,294.2c0.9-0.9,1.8-1.6,2.8-2c1-0.5,2.1-0.7,3.3-0.7c0.9,0,1.7,0.1,2.4,0.4c0.7,0.3,1.2,0.7,1.7,1.2
			s0.8,1.2,1,2c0.2,0.8,0.3,1.6,0.3,2.6v11h-0.6c-0.3,0-0.5-0.2-0.6-0.5l-0.2-2.2c-0.5,0.5-0.9,0.9-1.4,1.2
			c-0.5,0.4-0.9,0.7-1.4,0.9s-1,0.4-1.6,0.6c-0.6,0.1-1.2,0.2-1.9,0.2c-0.6,0-1.1-0.1-1.7-0.3c-0.5-0.2-1-0.4-1.5-0.8
			c-0.4-0.4-0.8-0.8-1-1.4c-0.3-0.5-0.4-1.2-0.4-2c0-0.7,0.2-1.4,0.6-2c0.4-0.6,1-1.1,1.9-1.6c0.9-0.5,2-0.8,3.4-1.1
			c1.4-0.3,3-0.4,4.9-0.5v-1.8c0-1.6-0.3-2.8-1-3.6c-0.7-0.8-1.7-1.3-3-1.3c-0.8,0-1.5,0.1-2.1,0.3c-0.6,0.2-1.1,0.5-1.5,0.7
			c-0.4,0.3-0.7,0.5-1,0.7c-0.2,0.2-0.5,0.3-0.6,0.3c-0.1,0-0.2,0-0.3-0.1c-0.1-0.1-0.1-0.1-0.2-0.2L293.7,294.2z M303.7,300.6
			c-1.6,0.1-3,0.2-4.2,0.4c-1.2,0.2-2.1,0.5-2.9,0.8c-0.8,0.3-1.3,0.7-1.7,1.2c-0.4,0.5-0.5,1-0.5,1.6c0,0.6,0.1,1.1,0.3,1.5
			s0.4,0.8,0.7,1c0.3,0.3,0.7,0.5,1.1,0.6c0.4,0.1,0.8,0.2,1.3,0.2c0.7,0,1.3-0.1,1.8-0.2c0.5-0.1,1.1-0.3,1.5-0.6
			c0.5-0.3,0.9-0.6,1.3-0.9c0.4-0.4,0.8-0.7,1.2-1.1V300.6z"/>
		<path class="st2" d="M313.2,286c0,0.2,0,0.4-0.1,0.6s-0.2,0.3-0.3,0.5c-0.1,0.1-0.3,0.2-0.5,0.3c-0.2,0.1-0.4,0.1-0.6,0.1
			s-0.4,0-0.6-0.1s-0.3-0.2-0.5-0.3c-0.1-0.1-0.2-0.3-0.3-0.5c-0.1-0.2-0.1-0.4-0.1-0.6s0-0.4,0.1-0.6c0.1-0.2,0.2-0.3,0.3-0.5
			c0.1-0.1,0.3-0.2,0.5-0.3s0.4-0.1,0.6-0.1s0.4,0,0.6,0.1c0.2,0.1,0.3,0.2,0.5,0.3c0.1,0.1,0.2,0.3,0.3,0.5
			C313.1,285.6,313.2,285.8,313.2,286z M312.5,291.8v16.9h-1.6v-16.9H312.5z"/>
		<path class="st2" d="M319.8,295.9c0.3-0.7,0.6-1.3,0.9-1.8c0.3-0.5,0.7-1,1.2-1.4c0.4-0.4,0.9-0.7,1.5-0.9
			c0.5-0.2,1.1-0.3,1.8-0.3c0.4,0,0.7,0,1,0.1c0.3,0.1,0.6,0.2,0.9,0.3l-0.1,1.1c-0.1,0.2-0.2,0.3-0.3,0.3c-0.1,0-0.3,0-0.6-0.1
			c-0.3-0.1-0.6-0.1-1.1-0.1c-0.7,0-1.2,0.1-1.7,0.3c-0.5,0.2-1,0.5-1.4,0.9s-0.8,0.9-1.1,1.5c-0.3,0.6-0.6,1.3-0.8,2v10.9h-1.6
			v-16.9h0.9c0.2,0,0.3,0,0.4,0.1c0.1,0.1,0.1,0.2,0.2,0.4L319.8,295.9z"/>
		<path class="st2" d="M340.7,294.1c-0.1,0.1-0.1,0.1-0.2,0.1c-0.1,0-0.1,0.1-0.2,0.1c-0.1,0-0.3-0.1-0.5-0.2
			c-0.2-0.2-0.5-0.3-0.8-0.5c-0.3-0.2-0.7-0.3-1.2-0.5s-1.1-0.2-1.8-0.2c-1,0-1.8,0.2-2.6,0.5c-0.8,0.3-1.4,0.8-1.9,1.5
			c-0.5,0.6-0.9,1.4-1.2,2.3c-0.3,0.9-0.4,1.9-0.4,3.1c0,1.2,0.1,2.2,0.4,3.2c0.3,0.9,0.7,1.7,1.2,2.3c0.5,0.6,1.1,1.1,1.9,1.4
			c0.7,0.3,1.5,0.5,2.4,0.5c0.8,0,1.5-0.1,2-0.3c0.5-0.2,1-0.4,1.4-0.6s0.6-0.4,0.8-0.6c0.2-0.2,0.4-0.3,0.5-0.3
			c0.1,0,0.2,0.1,0.3,0.2l0.4,0.5c-0.3,0.3-0.6,0.7-1,1c-0.4,0.3-0.8,0.5-1.3,0.8c-0.5,0.2-1,0.4-1.6,0.5c-0.6,0.1-1.2,0.2-1.8,0.2
			c-1.1,0-2.1-0.2-2.9-0.6c-0.9-0.4-1.7-1-2.3-1.7s-1.1-1.7-1.5-2.7c-0.4-1.1-0.5-2.3-0.5-3.7c0-1.3,0.2-2.5,0.5-3.5
			c0.3-1.1,0.8-2,1.5-2.8s1.5-1.4,2.4-1.8c0.9-0.4,2-0.6,3.3-0.6c1.1,0,2.1,0.2,2.9,0.5c0.9,0.4,1.6,0.8,2.2,1.4L340.7,294.1z"/>
		<path class="st2" d="M346.9,295.9c0.3-0.7,0.6-1.3,0.9-1.8c0.3-0.5,0.7-1,1.2-1.4c0.4-0.4,0.9-0.7,1.5-0.9
			c0.5-0.2,1.1-0.3,1.8-0.3c0.4,0,0.7,0,1,0.1c0.3,0.1,0.6,0.2,0.9,0.3l-0.1,1.1c-0.1,0.2-0.2,0.3-0.3,0.3c-0.1,0-0.3,0-0.6-0.1
			c-0.3-0.1-0.6-0.1-1.1-0.1c-0.7,0-1.2,0.1-1.7,0.3c-0.5,0.2-1,0.5-1.4,0.9s-0.8,0.9-1.1,1.5c-0.3,0.6-0.6,1.3-0.8,2v10.9h-1.6
			v-16.9h0.9c0.2,0,0.3,0,0.4,0.1c0.1,0.1,0.1,0.2,0.2,0.4L346.9,295.9z"/>
		<path class="st2" d="M356.5,294.2c0.9-0.9,1.8-1.6,2.8-2c1-0.5,2.1-0.7,3.3-0.7c0.9,0,1.7,0.1,2.4,0.4c0.7,0.3,1.2,0.7,1.7,1.2
			s0.8,1.2,1,2c0.2,0.8,0.3,1.6,0.3,2.6v11h-0.6c-0.3,0-0.5-0.2-0.6-0.5l-0.2-2.2c-0.5,0.5-0.9,0.9-1.4,1.2
			c-0.5,0.4-0.9,0.7-1.4,0.9s-1,0.4-1.6,0.6c-0.6,0.1-1.2,0.2-1.9,0.2c-0.6,0-1.1-0.1-1.7-0.3c-0.5-0.2-1-0.4-1.5-0.8
			c-0.4-0.4-0.8-0.8-1-1.4c-0.3-0.5-0.4-1.2-0.4-2c0-0.7,0.2-1.4,0.6-2c0.4-0.6,1-1.1,1.9-1.6c0.9-0.5,2-0.8,3.4-1.1
			c1.4-0.3,3-0.4,4.9-0.5v-1.8c0-1.6-0.3-2.8-1-3.6c-0.7-0.8-1.7-1.3-3-1.3c-0.8,0-1.5,0.1-2.1,0.3c-0.6,0.2-1.1,0.5-1.5,0.7
			c-0.4,0.3-0.7,0.5-1,0.7c-0.2,0.2-0.5,0.3-0.6,0.3c-0.1,0-0.2,0-0.3-0.1c-0.1-0.1-0.1-0.1-0.2-0.2L356.5,294.2z M366.5,300.6
			c-1.6,0.1-3,0.2-4.2,0.4c-1.2,0.2-2.1,0.5-2.9,0.8c-0.8,0.3-1.3,0.7-1.7,1.2c-0.4,0.5-0.5,1-0.5,1.6c0,0.6,0.1,1.1,0.3,1.5
			s0.4,0.8,0.7,1c0.3,0.3,0.7,0.5,1.1,0.6c0.4,0.1,0.8,0.2,1.3,0.2c0.7,0,1.3-0.1,1.8-0.2c0.5-0.1,1.1-0.3,1.5-0.6
			c0.5-0.3,0.9-0.6,1.3-0.9c0.4-0.4,0.8-0.7,1.2-1.1V300.6z"/>
		<path class="st2" d="M386.6,293.6V305c0,0.5,0.1,0.9,0.2,1.2c0.1,0.3,0.3,0.6,0.5,0.8c0.2,0.2,0.5,0.4,0.7,0.5
			c0.3,0.1,0.6,0.2,0.9,0.2c0.4,0,0.8-0.1,1.1-0.2s0.5-0.2,0.8-0.4s0.4-0.3,0.5-0.4c0.1-0.1,0.2-0.2,0.3-0.2c0.1,0,0.2,0.1,0.3,0.2
			l0.4,0.7c-0.4,0.5-1,0.9-1.6,1.1c-0.7,0.3-1.4,0.4-2.1,0.4c-1.1,0-2-0.3-2.7-1c-0.6-0.6-1-1.6-1-2.9v-11.6h-9v15.2h-1.6v-15.1
			l-2.4-0.2c-0.3,0-0.5-0.2-0.5-0.4v-0.7h2.9v-2.1c0-1,0.1-1.8,0.4-2.5c0.2-0.7,0.6-1.3,1.1-1.8c0.5-0.5,1-0.9,1.6-1.1
			c0.6-0.2,1.3-0.4,2.1-0.4c0.4,0,0.7,0,1.1,0.1s0.7,0.2,1,0.3l-0.1,0.8c0,0.1-0.1,0.2-0.1,0.2c-0.1,0-0.2,0-0.3,0
			c-0.1,0-0.3,0-0.5-0.1c-0.2,0-0.5,0-0.7,0c-0.6,0-1.1,0.1-1.5,0.2c-0.5,0.2-0.9,0.4-1.2,0.8c-0.3,0.4-0.6,0.8-0.8,1.4
			c-0.2,0.6-0.3,1.3-0.3,2.2v2.1h9.1l0.4-6.1c0-0.1,0.1-0.2,0.1-0.3c0.1-0.1,0.2-0.1,0.3-0.1h0.8v6.5h5.4v1.2H386.6z"/>
		<path class="st2" d="M405.4,299.6v0.3c0,1.3,0.1,2.4,0.4,3.3c0.3,1,0.7,1.8,1.3,2.4c0.5,0.7,1.2,1.1,2,1.5
			c0.8,0.3,1.6,0.5,2.6,0.5c0.8,0,1.6-0.1,2.2-0.3c0.6-0.2,1.1-0.4,1.6-0.6c0.4-0.2,0.8-0.4,1-0.6c0.2-0.2,0.4-0.3,0.5-0.3
			c0.1,0,0.3,0.1,0.3,0.2l0.4,0.5c-0.3,0.3-0.6,0.7-1.1,1c-0.4,0.3-0.9,0.5-1.5,0.8c-0.5,0.2-1.1,0.4-1.8,0.5
			c-0.6,0.1-1.3,0.2-1.9,0.2c-1.2,0-2.2-0.2-3.2-0.6c-1-0.4-1.8-1-2.4-1.8s-1.2-1.7-1.6-2.8s-0.6-2.4-0.6-3.8c0-1.2,0.2-2.3,0.5-3.4
			c0.3-1,0.8-1.9,1.5-2.7c0.7-0.7,1.5-1.3,2.4-1.7c0.9-0.4,2-0.6,3.2-0.6c1,0,1.8,0.2,2.7,0.5c0.8,0.3,1.5,0.8,2.1,1.4
			s1.1,1.4,1.4,2.3c0.3,0.9,0.5,2,0.5,3.2c0,0.2,0,0.4-0.1,0.5c-0.1,0.1-0.2,0.1-0.3,0.1H405.4z M416.7,298.6c0-0.9-0.1-1.7-0.4-2.4
			c-0.3-0.7-0.6-1.3-1.1-1.8c-0.5-0.5-1-0.9-1.7-1.1c-0.6-0.3-1.3-0.4-2.1-0.4c-0.9,0-1.7,0.1-2.3,0.4c-0.7,0.3-1.3,0.7-1.8,1.2
			c-0.5,0.5-0.9,1.1-1.2,1.8c-0.3,0.7-0.5,1.5-0.6,2.4H416.7z"/>
		<path class="st2" d="M435.8,291.8l-7.1,16.9h-1.4l-7.1-16.9h1.3c0.2,0,0.3,0,0.4,0.1s0.2,0.2,0.2,0.3l5.6,13.3
			c0.2,0.5,0.3,1,0.4,1.5c0.1-0.5,0.2-1,0.4-1.5l5.6-13.3c0.1-0.1,0.1-0.2,0.2-0.3c0.1-0.1,0.2-0.1,0.3-0.1H435.8z"/>
		<path class="st2" d="M439.5,299.6v0.3c0,1.3,0.1,2.4,0.4,3.3c0.3,1,0.7,1.8,1.3,2.4c0.5,0.7,1.2,1.1,2,1.5
			c0.8,0.3,1.6,0.5,2.6,0.5c0.9,0,1.6-0.1,2.2-0.3c0.6-0.2,1.1-0.4,1.6-0.6c0.4-0.2,0.8-0.4,1-0.6c0.2-0.2,0.4-0.3,0.5-0.3
			c0.1,0,0.3,0.1,0.3,0.2l0.4,0.5c-0.3,0.3-0.6,0.7-1.1,1s-0.9,0.5-1.5,0.8c-0.5,0.2-1.1,0.4-1.8,0.5c-0.6,0.1-1.3,0.2-1.9,0.2
			c-1.2,0-2.2-0.2-3.2-0.6c-1-0.4-1.8-1-2.4-1.8s-1.2-1.7-1.6-2.8c-0.4-1.1-0.6-2.4-0.6-3.8c0-1.2,0.2-2.3,0.5-3.4
			c0.3-1,0.8-1.9,1.5-2.7s1.5-1.3,2.4-1.7c0.9-0.4,2-0.6,3.2-0.6c1,0,1.8,0.2,2.7,0.5c0.8,0.3,1.5,0.8,2.1,1.4
			c0.6,0.6,1.1,1.4,1.4,2.3c0.3,0.9,0.5,2,0.5,3.2c0,0.2,0,0.4-0.1,0.5s-0.2,0.1-0.3,0.1H439.5z M450.8,298.6c0-0.9-0.1-1.7-0.4-2.4
			c-0.3-0.7-0.6-1.3-1.1-1.8c-0.5-0.5-1-0.9-1.7-1.1c-0.6-0.3-1.3-0.4-2.1-0.4c-0.9,0-1.7,0.1-2.3,0.4c-0.7,0.3-1.3,0.7-1.8,1.2
			c-0.5,0.5-0.9,1.1-1.2,1.8c-0.3,0.7-0.5,1.5-0.6,2.4H450.8z"/>
		<path class="st2" d="M458.2,294.8c0.8-1,1.7-1.8,2.7-2.3c1-0.6,2.2-0.9,3.4-0.9c0.9,0,1.7,0.1,2.5,0.4s1.3,0.7,1.8,1.3
			c0.5,0.6,0.8,1.2,1.1,2s0.4,1.7,0.4,2.7v10.8h-1.6v-10.8c0-1.6-0.4-2.8-1.1-3.7c-0.7-0.9-1.8-1.4-3.3-1.4c-1.1,0-2.1,0.3-3.1,0.8
			c-1,0.6-1.8,1.3-2.6,2.3v12.7h-1.6v-16.9h0.9c0.3,0,0.4,0.1,0.5,0.4L458.2,294.8z"/>
		<path class="st2" d="M487.1,286c0,0.2,0,0.4-0.1,0.6c-0.1,0.2-0.2,0.3-0.3,0.5s-0.3,0.2-0.5,0.3c-0.2,0.1-0.4,0.1-0.6,0.1
			c-0.2,0-0.4,0-0.6-0.1c-0.2-0.1-0.3-0.2-0.5-0.3c-0.1-0.1-0.2-0.3-0.3-0.5c-0.1-0.2-0.1-0.4-0.1-0.6s0-0.4,0.1-0.6
			c0.1-0.2,0.2-0.3,0.3-0.5c0.1-0.1,0.3-0.2,0.5-0.3c0.2-0.1,0.4-0.1,0.6-0.1c0.2,0,0.4,0,0.6,0.1c0.2,0.1,0.3,0.2,0.5,0.3
			c0.1,0.1,0.2,0.3,0.3,0.5C487,285.6,487.1,285.8,487.1,286z M486.4,291.8v16.9h-1.6v-16.9H486.4z"/>
		<path class="st2" d="M493.7,294.8c0.8-1,1.7-1.8,2.7-2.3c1-0.6,2.2-0.9,3.4-0.9c0.9,0,1.7,0.1,2.5,0.4c0.7,0.3,1.3,0.7,1.8,1.3
			c0.5,0.6,0.8,1.2,1.1,2c0.2,0.8,0.4,1.7,0.4,2.7v10.8h-1.6v-10.8c0-1.6-0.4-2.8-1.1-3.7c-0.7-0.9-1.8-1.4-3.3-1.4
			c-1.1,0-2.1,0.3-3.1,0.8c-1,0.6-1.8,1.3-2.6,2.3v12.7h-1.6v-16.9h0.9c0.3,0,0.4,0.1,0.5,0.4L493.7,294.8z"/>
	</g>
	<g class="st1">
		<path class="st2" d="M201.9,334.2c0.7-0.7,1.5-1.2,2.3-1.7s1.8-0.6,2.8-0.6c1,0,1.9,0.2,2.7,0.6c0.8,0.4,1.5,1,2.1,1.7
			s1,1.7,1.3,2.7c0.3,1.1,0.5,2.2,0.5,3.6c0,1.4-0.2,2.7-0.5,3.9c-0.4,1.2-0.9,2.2-1.5,3c-0.7,0.8-1.4,1.5-2.4,1.9
			c-0.9,0.5-1.9,0.7-3.1,0.7c-0.5,0-1-0.1-1.5-0.2s-0.8-0.3-1.2-0.5c-0.4-0.2-0.7-0.4-1-0.7c-0.3-0.3-0.6-0.6-0.9-0.9l-0.2,1.1
			c-0.1,0.3-0.2,0.6-0.4,0.7s-0.4,0.2-0.7,0.2h-3.1v-25.3h4.7V334.2z M201.9,345.1c0.4,0.5,0.9,0.9,1.4,1.1s1.1,0.3,1.6,0.3
			c0.6,0,1.1-0.1,1.6-0.3c0.5-0.2,0.9-0.5,1.2-1s0.6-1.1,0.8-1.8c0.2-0.7,0.3-1.6,0.3-2.7c0-0.9-0.1-1.7-0.2-2.4
			c-0.1-0.7-0.4-1.2-0.7-1.6s-0.6-0.7-1.1-0.9c-0.4-0.2-0.9-0.3-1.5-0.3c-0.7,0-1.4,0.2-1.9,0.5c-0.5,0.3-1.1,0.8-1.6,1.4V345.1z"/>
		<path class="st2" d="M221.3,324.4v25.3h-4.7v-25.3H221.3z"/>
		<path class="st2" d="M230.6,327.2c0,0.4-0.1,0.8-0.2,1.1s-0.4,0.6-0.6,0.9c-0.3,0.3-0.6,0.5-0.9,0.6s-0.7,0.2-1.1,0.2
			c-0.4,0-0.8-0.1-1.1-0.2s-0.6-0.4-0.9-0.6s-0.5-0.6-0.6-0.9c-0.2-0.3-0.2-0.7-0.2-1.1s0.1-0.8,0.2-1.1c0.2-0.3,0.4-0.6,0.6-0.9
			s0.6-0.5,0.9-0.6s0.7-0.2,1.1-0.2c0.4,0,0.8,0.1,1.1,0.2s0.7,0.4,0.9,0.6c0.3,0.3,0.5,0.6,0.6,0.9S230.6,326.8,230.6,327.2z
			 M230,332.2v17.5h-4.7v-17.5H230z"/>
		<path class="st2" d="M238.4,334.2c0.4-0.3,0.7-0.7,1.1-0.9c0.4-0.3,0.8-0.5,1.2-0.7c0.4-0.2,0.9-0.4,1.4-0.5
			c0.5-0.1,1-0.2,1.6-0.2c1,0,1.8,0.2,2.5,0.5c0.7,0.3,1.4,0.8,1.9,1.4c0.5,0.6,0.9,1.3,1.1,2.1c0.3,0.8,0.4,1.7,0.4,2.7v11.1h-4.7
			v-11.1c0-1-0.2-1.7-0.7-2.3c-0.5-0.5-1.1-0.8-2-0.8c-0.7,0-1.3,0.1-1.9,0.4c-0.6,0.3-1.1,0.7-1.6,1.2v12.6h-4.7v-17.5h2.9
			c0.6,0,1,0.3,1.2,0.8L238.4,334.2z"/>
		<path class="st2" d="M268.9,324.4v25.3H266c-0.6,0-1-0.3-1.2-0.8l-0.4-1.5c-0.4,0.4-0.7,0.7-1.1,1.1c-0.4,0.3-0.8,0.6-1.3,0.8
			c-0.5,0.2-0.9,0.4-1.5,0.5c-0.5,0.1-1.1,0.2-1.7,0.2c-0.9,0-1.8-0.2-2.6-0.6s-1.5-1-2-1.7c-0.6-0.8-1-1.7-1.3-2.8
			c-0.3-1.1-0.5-2.4-0.5-3.8c0-1.3,0.2-2.5,0.5-3.6s0.9-2.1,1.5-2.9s1.5-1.5,2.4-1.9c0.9-0.5,2-0.7,3.1-0.7c1,0,1.8,0.1,2.4,0.4
			c0.7,0.3,1.2,0.7,1.8,1.2v-9.1H268.9z M264.2,336.8c-0.4-0.5-0.9-0.9-1.4-1.1c-0.5-0.2-1.1-0.3-1.6-0.3c-0.6,0-1.1,0.1-1.5,0.3
			c-0.5,0.2-0.9,0.6-1.2,1s-0.6,1-0.8,1.8s-0.3,1.6-0.3,2.5c0,1,0.1,1.8,0.2,2.5c0.1,0.7,0.4,1.2,0.6,1.6c0.3,0.4,0.6,0.7,1,0.9
			c0.4,0.2,0.8,0.3,1.3,0.3c0.8,0,1.5-0.2,2.1-0.5c0.6-0.3,1.1-0.8,1.6-1.4V336.8z"/>
		<path class="st2" d="M278.1,327.2c0,0.4-0.1,0.8-0.2,1.1s-0.4,0.6-0.6,0.9c-0.3,0.3-0.6,0.5-0.9,0.6s-0.7,0.2-1.1,0.2
			c-0.4,0-0.8-0.1-1.1-0.2s-0.6-0.4-0.9-0.6s-0.5-0.6-0.6-0.9c-0.2-0.3-0.2-0.7-0.2-1.1s0.1-0.8,0.2-1.1c0.2-0.3,0.4-0.6,0.6-0.9
			s0.6-0.5,0.9-0.6s0.7-0.2,1.1-0.2c0.4,0,0.8,0.1,1.1,0.2s0.7,0.4,0.9,0.6c0.3,0.3,0.5,0.6,0.6,0.9S278.1,326.8,278.1,327.2z
			 M277.6,332.2v17.5h-4.7v-17.5H277.6z"/>
		<path class="st2" d="M285.9,334.2c0.4-0.3,0.7-0.7,1.1-0.9c0.4-0.3,0.8-0.5,1.2-0.7c0.4-0.2,0.9-0.4,1.4-0.5
			c0.5-0.1,1-0.2,1.6-0.2c1,0,1.8,0.2,2.5,0.5c0.7,0.3,1.4,0.8,1.9,1.4c0.5,0.6,0.9,1.3,1.1,2.1c0.3,0.8,0.4,1.7,0.4,2.7v11.1h-4.7
			v-11.1c0-1-0.2-1.7-0.7-2.3c-0.5-0.5-1.1-0.8-2-0.8c-0.7,0-1.3,0.1-1.9,0.4c-0.6,0.3-1.1,0.7-1.6,1.2v12.6h-4.7v-17.5h2.9
			c0.6,0,1,0.3,1.2,0.8L285.9,334.2z"/>
		<path class="st2" d="M316.5,332.8v1.7c0,0.3-0.1,0.5-0.2,0.6c-0.2,0.2-0.4,0.3-0.8,0.4l-1.4,0.3c0.2,0.6,0.3,1.2,0.3,1.8
			c0,0.9-0.2,1.7-0.5,2.4c-0.4,0.7-0.8,1.3-1.5,1.8c-0.6,0.5-1.4,0.9-2.2,1.1c-0.9,0.3-1.8,0.4-2.8,0.4c-0.6,0-1.2-0.1-1.8-0.2
			c-0.5,0.3-0.7,0.6-0.7,1c0,0.3,0.2,0.6,0.5,0.7c0.3,0.1,0.7,0.3,1.3,0.3c0.5,0.1,1.1,0.1,1.8,0.1c0.7,0,1.4,0.1,2.1,0.1
			c0.7,0.1,1.4,0.2,2.1,0.3s1.3,0.4,1.8,0.7c0.5,0.3,1,0.8,1.3,1.3c0.3,0.5,0.5,1.2,0.5,2.1c0,0.8-0.2,1.5-0.6,2.3
			c-0.4,0.7-0.9,1.4-1.7,2s-1.6,1-2.7,1.4c-1.1,0.4-2.3,0.5-3.6,0.5c-1.3,0-2.5-0.1-3.5-0.4s-1.8-0.6-2.5-1
			c-0.7-0.4-1.1-0.9-1.5-1.5c-0.3-0.6-0.5-1.1-0.5-1.7c0-0.8,0.2-1.4,0.7-2s1.1-1,2-1.3c-0.4-0.2-0.8-0.6-1.1-1
			c-0.3-0.4-0.4-0.9-0.4-1.6c0-0.5,0.2-1.1,0.6-1.6c0.4-0.6,1-1.1,1.8-1.4c-0.9-0.5-1.6-1.1-2.1-1.9c-0.5-0.8-0.8-1.7-0.8-2.8
			c0-0.9,0.2-1.7,0.5-2.4c0.4-0.7,0.9-1.3,1.5-1.8s1.4-0.9,2.2-1.1c0.9-0.3,1.8-0.4,2.8-0.4c1.5,0,2.8,0.3,4,0.9H316.5z
			 M311.8,350.4c0-0.3-0.1-0.6-0.3-0.7c-0.2-0.2-0.5-0.3-0.8-0.5c-0.3-0.1-0.7-0.2-1.1-0.2s-0.9-0.1-1.4-0.1c-0.5,0-1-0.1-1.5-0.1
			c-0.5,0-1.1-0.1-1.6-0.1c-0.4,0.2-0.7,0.5-1,0.8c-0.3,0.3-0.4,0.7-0.4,1.1c0,0.3,0.1,0.5,0.2,0.8s0.3,0.4,0.7,0.6
			c0.3,0.2,0.7,0.3,1.2,0.4c0.5,0.1,1.1,0.1,1.9,0.1c0.8,0,1.4-0.1,2-0.2c0.5-0.1,1-0.2,1.3-0.4c0.3-0.2,0.6-0.4,0.7-0.7
			C311.8,351,311.8,350.8,311.8,350.4z M307.4,340.3c1,0,1.7-0.2,2.1-0.7c0.5-0.5,0.7-1.1,0.7-1.9c0-0.8-0.2-1.4-0.7-1.9
			s-1.2-0.7-2.1-0.7s-1.7,0.2-2.1,0.7s-0.7,1.1-0.7,1.9c0,0.8,0.2,1.4,0.7,1.9S306.4,340.3,307.4,340.3z"/>
		<path class="st2" d="M339.7,336.1c-0.1,0.2-0.3,0.3-0.4,0.4c-0.1,0.1-0.3,0.1-0.6,0.1c-0.2,0-0.4-0.1-0.7-0.2
			c-0.2-0.1-0.5-0.3-0.7-0.4c-0.3-0.2-0.6-0.3-1-0.4c-0.4-0.1-0.8-0.2-1.4-0.2c-0.7,0-1.3,0.1-1.8,0.4c-0.5,0.3-0.9,0.6-1.3,1.1
			c-0.3,0.5-0.6,1.1-0.8,1.7c-0.2,0.7-0.2,1.4-0.2,2.3c0,1.8,0.4,3.2,1.1,4.1s1.7,1.4,2.9,1.4c0.4,0,0.8,0,1.1-0.1
			c0.3-0.1,0.6-0.2,0.8-0.3s0.4-0.2,0.6-0.4c0.2-0.1,0.3-0.3,0.5-0.4c0.2-0.1,0.3-0.2,0.5-0.3c0.2-0.1,0.3-0.1,0.5-0.1
			c0.4,0,0.6,0.1,0.9,0.4l1.3,1.7c-0.5,0.6-1,1.1-1.6,1.4c-0.6,0.4-1.2,0.7-1.8,0.9c-0.6,0.2-1.2,0.4-1.8,0.5
			c-0.6,0.1-1.2,0.1-1.9,0.1c-1.1,0-2.1-0.2-3.1-0.6s-1.8-1-2.5-1.8c-0.7-0.8-1.3-1.7-1.7-2.8c-0.4-1.1-0.6-2.4-0.6-3.8
			c0-1.3,0.2-2.5,0.6-3.6c0.4-1.1,0.9-2.1,1.6-2.9c0.7-0.8,1.6-1.4,2.7-1.9c1.1-0.5,2.3-0.7,3.7-0.7c1.3,0,2.5,0.2,3.5,0.6
			c1,0.4,1.9,1.1,2.7,1.9L339.7,336.1z"/>
		<path class="st2" d="M351.1,331.9c1.3,0,2.5,0.2,3.6,0.6c1.1,0.4,2,1,2.8,1.8c0.8,0.8,1.4,1.7,1.8,2.8s0.6,2.4,0.6,3.8
			c0,1.4-0.2,2.6-0.6,3.8s-1,2.1-1.8,2.8c-0.8,0.8-1.7,1.4-2.8,1.8c-1.1,0.4-2.3,0.6-3.6,0.6c-1.3,0-2.5-0.2-3.6-0.6
			c-1.1-0.4-2-1-2.8-1.8c-0.8-0.8-1.4-1.7-1.8-2.8c-0.4-1.1-0.6-2.4-0.6-3.8c0-1.4,0.2-2.6,0.6-3.8c0.4-1.1,1-2.1,1.8-2.8
			c0.8-0.8,1.7-1.4,2.8-1.8C348.5,332.1,349.7,331.9,351.1,331.9z M351.1,346.5c1.3,0,2.3-0.5,3-1.4s1-2.3,1-4.1
			c0-1.8-0.3-3.2-1-4.1c-0.6-0.9-1.6-1.4-3-1.4c-1.4,0-2.4,0.5-3,1.4c-0.6,0.9-1,2.3-1,4.1c0,1.8,0.3,3.2,1,4.1
			S349.7,346.5,351.1,346.5z"/>
		<path class="st2" d="M375.5,336.1c-0.1,0.2-0.3,0.3-0.4,0.4c-0.1,0.1-0.3,0.1-0.6,0.1c-0.2,0-0.4-0.1-0.7-0.2
			c-0.2-0.1-0.5-0.3-0.7-0.4c-0.3-0.2-0.6-0.3-1-0.4c-0.4-0.1-0.8-0.2-1.4-0.2c-0.7,0-1.3,0.1-1.8,0.4c-0.5,0.3-0.9,0.6-1.3,1.1
			c-0.3,0.5-0.6,1.1-0.8,1.7c-0.2,0.7-0.2,1.4-0.2,2.3c0,1.8,0.4,3.2,1.1,4.1s1.7,1.4,2.9,1.4c0.4,0,0.8,0,1.1-0.1
			c0.3-0.1,0.6-0.2,0.8-0.3s0.4-0.2,0.6-0.4c0.2-0.1,0.3-0.3,0.5-0.4c0.2-0.1,0.3-0.2,0.5-0.3c0.2-0.1,0.3-0.1,0.5-0.1
			c0.4,0,0.6,0.1,0.9,0.4l1.3,1.7c-0.5,0.6-1,1.1-1.6,1.4c-0.6,0.4-1.2,0.7-1.8,0.9c-0.6,0.2-1.2,0.4-1.8,0.5
			c-0.6,0.1-1.2,0.1-1.9,0.1c-1.1,0-2.1-0.2-3.1-0.6s-1.8-1-2.5-1.8c-0.7-0.8-1.3-1.7-1.7-2.8c-0.4-1.1-0.6-2.4-0.6-3.8
			c0-1.3,0.2-2.5,0.6-3.6c0.4-1.1,0.9-2.1,1.6-2.9c0.7-0.8,1.6-1.4,2.7-1.9c1.1-0.5,2.3-0.7,3.7-0.7c1.3,0,2.5,0.2,3.5,0.6
			c1,0.4,1.9,1.1,2.7,1.9L375.5,336.1z"/>
		<path class="st2" d="M383.9,324.4v14.4h0.8c0.3,0,0.5,0,0.7-0.1s0.3-0.2,0.5-0.5l3.9-5.2c0.2-0.3,0.4-0.5,0.7-0.6
			c0.2-0.1,0.6-0.2,0.9-0.2h4.3l-5,6.4c-0.4,0.5-0.9,1-1.4,1.3c0.3,0.2,0.5,0.4,0.7,0.6s0.4,0.5,0.6,0.8l5.4,8.4h-4.2
			c-0.4,0-0.7-0.1-0.9-0.2s-0.5-0.3-0.6-0.6l-3.9-6.4c-0.2-0.3-0.3-0.4-0.5-0.5s-0.4-0.1-0.8-0.1h-1v7.9h-4.7v-25.3H383.9z"/>
		<path class="st2" d="M402.2,334.5c0.4-0.4,0.7-0.7,1.1-1.1c0.4-0.3,0.8-0.6,1.3-0.8c0.5-0.2,0.9-0.4,1.5-0.5
			c0.5-0.1,1.1-0.2,1.7-0.2c0.9,0,1.8,0.2,2.6,0.6s1.5,1,2,1.8c0.6,0.8,1,1.7,1.3,2.8c0.3,1.1,0.5,2.4,0.5,3.8
			c0,1.3-0.2,2.5-0.5,3.6c-0.4,1.1-0.9,2.1-1.5,2.9c-0.7,0.8-1.4,1.5-2.4,1.9c-0.9,0.5-2,0.7-3.1,0.7c-1,0-1.8-0.1-2.4-0.4
			c-0.7-0.3-1.3-0.7-1.8-1.2v7h-4.7v-23.2h2.9c0.6,0,1,0.3,1.2,0.8L402.2,334.5z M402.5,345.1c0.4,0.5,0.9,0.9,1.4,1.1
			s1.1,0.3,1.7,0.3c0.6,0,1.1-0.1,1.5-0.3c0.5-0.2,0.9-0.6,1.2-1c0.3-0.5,0.6-1,0.8-1.8c0.2-0.7,0.3-1.6,0.3-2.5
			c0-1-0.1-1.8-0.2-2.5s-0.4-1.2-0.6-1.6c-0.3-0.4-0.6-0.7-1-0.9c-0.4-0.2-0.8-0.3-1.3-0.3c-0.8,0-1.5,0.2-2.1,0.5
			c-0.6,0.3-1.1,0.8-1.6,1.4V345.1z"/>
		<path class="st2" d="M422.6,327.2c0,0.4-0.1,0.8-0.2,1.1c-0.2,0.3-0.4,0.6-0.6,0.9s-0.6,0.5-0.9,0.6c-0.4,0.1-0.7,0.2-1.1,0.2
			c-0.4,0-0.8-0.1-1.1-0.2s-0.6-0.4-0.9-0.6s-0.5-0.6-0.6-0.9s-0.2-0.7-0.2-1.1s0.1-0.8,0.2-1.1s0.4-0.6,0.6-0.9s0.6-0.5,0.9-0.6
			s0.7-0.2,1.1-0.2c0.4,0,0.8,0.1,1.1,0.2c0.4,0.1,0.7,0.4,0.9,0.6s0.5,0.6,0.6,0.9C422.5,326.5,422.6,326.8,422.6,327.2z
			 M422,332.2v17.5h-4.7v-17.5H422z"/>
		<path class="st2" d="M432.1,350c-0.8,0-1.5-0.1-2.1-0.3c-0.6-0.2-1.1-0.6-1.5-1c-0.4-0.4-0.7-1-1-1.6c-0.2-0.6-0.3-1.3-0.3-2.1
			v-9.5h-1.6c-0.2,0-0.5-0.1-0.6-0.2c-0.2-0.2-0.3-0.4-0.3-0.7v-1.8l2.8-0.5l1-4.5c0.1-0.5,0.5-0.8,1-0.8h2.4v5.3h4.5v3.3h-4.5v9.1
			c0,0.5,0.1,0.9,0.3,1.2c0.2,0.3,0.6,0.4,1,0.4c0.2,0,0.4,0,0.6-0.1c0.2-0.1,0.3-0.1,0.4-0.2c0.1-0.1,0.2-0.1,0.3-0.2
			c0.1-0.1,0.2-0.1,0.3-0.1c0.1,0,0.2,0,0.3,0.1c0.1,0.1,0.2,0.2,0.3,0.3l1.4,2.2c-0.6,0.5-1.4,0.9-2.2,1.2S433,350,432.1,350z"/>
		<path class="st2" d="M457.9,335.8c-0.1,0.2-0.3,0.3-0.4,0.4s-0.3,0.1-0.5,0.1s-0.5-0.1-0.7-0.2c-0.2-0.1-0.5-0.2-0.8-0.4
			c-0.3-0.1-0.6-0.3-1-0.4s-0.8-0.2-1.3-0.2c-0.8,0-1.3,0.2-1.8,0.5c-0.4,0.3-0.6,0.7-0.6,1.2c0,0.4,0.1,0.6,0.4,0.9
			c0.2,0.2,0.6,0.4,0.9,0.6s0.8,0.3,1.3,0.5c0.5,0.2,1,0.3,1.5,0.5c0.5,0.2,1,0.4,1.5,0.6c0.5,0.2,0.9,0.5,1.3,0.9
			c0.4,0.4,0.7,0.8,0.9,1.3c0.2,0.5,0.4,1.1,0.4,1.8c0,0.9-0.2,1.6-0.5,2.4c-0.3,0.7-0.8,1.3-1.4,1.9c-0.6,0.5-1.3,0.9-2.2,1.2
			c-0.9,0.3-1.9,0.4-3.1,0.4c-0.6,0-1.2-0.1-1.8-0.2c-0.6-0.1-1.2-0.3-1.7-0.5s-1-0.4-1.5-0.7s-0.9-0.5-1.2-0.8l1.1-1.8
			c0.1-0.2,0.3-0.4,0.5-0.5s0.4-0.2,0.7-0.2c0.3,0,0.5,0.1,0.8,0.2c0.2,0.1,0.5,0.3,0.8,0.5c0.3,0.2,0.6,0.3,1,0.5
			c0.4,0.1,0.9,0.2,1.5,0.2c0.5,0,0.8-0.1,1.2-0.2c0.3-0.1,0.6-0.2,0.8-0.4c0.2-0.2,0.4-0.4,0.4-0.6c0.1-0.2,0.1-0.5,0.1-0.7
			c0-0.4-0.1-0.7-0.4-0.9c-0.2-0.2-0.6-0.5-1-0.6c-0.4-0.2-0.8-0.3-1.4-0.5s-1-0.3-1.6-0.5c-0.5-0.2-1-0.4-1.5-0.6
			c-0.5-0.2-1-0.6-1.3-0.9c-0.4-0.4-0.7-0.8-1-1.4c-0.2-0.6-0.4-1.2-0.4-2c0-0.7,0.1-1.4,0.4-2.1s0.7-1.2,1.3-1.7s1.3-0.9,2.1-1.2
			c0.8-0.3,1.8-0.4,2.9-0.4c1.2,0,2.4,0.2,3.4,0.6c1,0.4,1.9,0.9,2.5,1.6L457.9,335.8z"/>
		<path class="st2" d="M462,349.7v-17.5h2.9c0.6,0,1,0.3,1.2,0.8l0.3,1.1c0.3-0.3,0.6-0.6,0.9-0.9c0.3-0.3,0.7-0.5,1-0.7
			c0.4-0.2,0.8-0.4,1.2-0.5c0.4-0.1,0.9-0.2,1.4-0.2c1.1,0,2,0.3,2.7,0.9c0.7,0.6,1.2,1.3,1.6,2.3c0.3-0.6,0.6-1,1-1.4
			c0.4-0.4,0.9-0.7,1.4-1c0.5-0.2,1-0.4,1.6-0.6c0.5-0.1,1.1-0.2,1.7-0.2c1,0,1.9,0.1,2.6,0.4c0.8,0.3,1.4,0.7,1.9,1.3
			s0.9,1.3,1.2,2.1s0.4,1.8,0.4,2.8v11.1h-4.7v-11.1c0-2.1-0.9-3.1-2.6-3.1c-0.4,0-0.8,0.1-1.1,0.2c-0.3,0.1-0.6,0.3-0.9,0.6
			s-0.5,0.6-0.6,1c-0.1,0.4-0.2,0.8-0.2,1.3v11.1h-4.7v-11.1c0-1.1-0.2-1.9-0.7-2.4c-0.4-0.5-1.1-0.7-1.9-0.7
			c-0.5,0-1.1,0.1-1.5,0.4c-0.5,0.3-0.9,0.6-1.4,1.1v12.8H462z"/>
		<path class="st2" d="M498.6,331.9c1.3,0,2.5,0.2,3.6,0.6s2,1,2.8,1.8c0.8,0.8,1.4,1.7,1.8,2.8c0.4,1.1,0.6,2.4,0.6,3.8
			c0,1.4-0.2,2.6-0.6,3.8c-0.4,1.1-1,2.1-1.8,2.8c-0.8,0.8-1.7,1.4-2.8,1.8s-2.3,0.6-3.6,0.6c-1.3,0-2.5-0.2-3.6-0.6s-2-1-2.8-1.8
			c-0.8-0.8-1.4-1.7-1.8-2.8c-0.4-1.1-0.6-2.4-0.6-3.8c0-1.4,0.2-2.6,0.6-3.8c0.4-1.1,1-2.1,1.8-2.8c0.8-0.8,1.7-1.4,2.8-1.8
			S497.3,331.9,498.6,331.9z M498.6,346.5c1.3,0,2.3-0.5,3-1.4c0.6-0.9,1-2.3,1-4.1c0-1.8-0.3-3.2-1-4.1c-0.6-0.9-1.6-1.4-3-1.4
			c-1.4,0-2.4,0.5-3,1.4c-0.6,0.9-1,2.3-1,4.1c0,1.8,0.3,3.2,1,4.1C496.2,346,497.2,346.5,498.6,346.5z"/>
		<path class="st2" d="M515,324.4v14.4h0.8c0.3,0,0.5,0,0.7-0.1s0.3-0.2,0.5-0.5l3.9-5.2c0.2-0.3,0.4-0.5,0.7-0.6
			c0.2-0.1,0.6-0.2,0.9-0.2h4.3l-5,6.4c-0.4,0.5-0.9,1-1.4,1.3c0.3,0.2,0.5,0.4,0.7,0.6c0.2,0.2,0.4,0.5,0.6,0.8l5.4,8.4h-4.2
			c-0.4,0-0.7-0.1-0.9-0.2c-0.3-0.1-0.5-0.3-0.6-0.6l-3.9-6.4c-0.2-0.3-0.3-0.4-0.5-0.5s-0.4-0.1-0.8-0.1h-1v7.9h-4.7v-25.3H515z"/>
		<path class="st2" d="M531.8,341.7c0.1,1.6,0.6,2.8,1.4,3.6c0.8,0.8,1.8,1.1,3.1,1.1c0.6,0,1.2-0.1,1.7-0.2
			c0.5-0.2,0.9-0.3,1.2-0.5c0.4-0.2,0.7-0.4,1-0.5c0.3-0.2,0.6-0.2,0.9-0.2c0.4,0,0.6,0.1,0.8,0.4l1.4,1.7c-0.5,0.6-1,1.1-1.6,1.4
			c-0.6,0.4-1.2,0.7-1.9,0.9c-0.6,0.2-1.3,0.4-2,0.5c-0.7,0.1-1.3,0.1-1.9,0.1c-1.2,0-2.4-0.2-3.4-0.6s-2-1-2.8-1.8
			c-0.8-0.8-1.4-1.8-1.9-2.9c-0.5-1.2-0.7-2.5-0.7-4.1c0-1.2,0.2-2.3,0.6-3.4s1-2,1.7-2.8c0.7-0.8,1.6-1.4,2.7-1.9
			c1.1-0.5,2.2-0.7,3.6-0.7c1.1,0,2.2,0.2,3.1,0.5c0.9,0.4,1.8,0.9,2.4,1.6s1.2,1.5,1.6,2.5c0.4,1,0.6,2.1,0.6,3.4
			c0,0.4,0,0.6-0.1,0.9c0,0.2-0.1,0.4-0.2,0.5c-0.1,0.1-0.2,0.2-0.3,0.3c-0.1,0.1-0.3,0.1-0.5,0.1H531.8z M539.1,338.9
			c0-0.5-0.1-1-0.2-1.4c-0.1-0.4-0.3-0.8-0.6-1.2c-0.3-0.3-0.6-0.6-1.1-0.8s-0.9-0.3-1.5-0.3c-1.1,0-2,0.3-2.6,1s-1,1.5-1.2,2.7
			H539.1z"/>
		<path class="st2" d="M545.6,347.3c0-0.4,0.1-0.7,0.2-1.1s0.3-0.6,0.6-0.9c0.2-0.2,0.5-0.4,0.9-0.6c0.3-0.1,0.7-0.2,1.1-0.2
			c0.4,0,0.7,0.1,1.1,0.2s0.6,0.3,0.9,0.6c0.2,0.2,0.4,0.5,0.6,0.9s0.2,0.7,0.2,1.1c0,0.4-0.1,0.7-0.2,1.1c-0.1,0.3-0.3,0.6-0.6,0.9
			c-0.2,0.2-0.5,0.4-0.9,0.6s-0.7,0.2-1.1,0.2c-0.4,0-0.8-0.1-1.1-0.2c-0.3-0.1-0.6-0.3-0.9-0.6c-0.2-0.2-0.4-0.5-0.6-0.9
			C545.7,348,545.6,347.7,545.6,347.3z"/>
	</g>
</g>
</svg>
