<?xml version="1.0" encoding="utf-8"?>
<!-- Generator: Adobe Illustrator 27.6.1, SVG Export Plug-In . SVG Version: 6.00 Build 0)  -->
<svg version="1.1" id="Layer_1" xmlns="http://www.w3.org/2000/svg" xmlns:xlink="http://www.w3.org/1999/xlink" x="0px" y="0px"
	 width="325.5px" height="90.5px" viewBox="0 0 325.5 90.5" style="enable-background:new 0 0 325.5 90.5;" xml:space="preserve">
<style type="text/css">
	.st0{fill:url(#underline_00000083778908684820501580000015877818103719259799_);}
	.st1{enable-background:new    ;}
	.st2{fill:#FFFFFF;}
</style>
<g id="Group_12" transform="translate(-197 -243)">
	
		<linearGradient id="underline_00000142886759310381346770000001341604157387821186_" gradientUnits="userSpaceOnUse" x1="-2432.3066" y1="1477.9338" x2="-2432.3066" y2="1476.9338" gradientTransform="matrix(195.9295 3.3308 0.109 -6.4117 476824.0625 17843.1289)">
		<stop  offset="0" style="stop-color:#FAE594"/>
		<stop  offset="1" style="stop-color:#FDF1BB"/>
	</linearGradient>
	<path id="underline" style="fill:url(#underline_00000142886759310381346770000001341604157387821186_);" d="M522.5,268.4
		c-0.9,1.3-2.4,1.9-3.9,1.8c-4.8-0.5-9.7-0.4-14.5-0.5c-5.1-0.1-10.1-0.1-15.2-0.1c-6.8,0-13.6-0.1-20.4-0.1c-5.2,0-10.5,0-15.7,0
		c-4.7,0-9.5,0-14.2,0c-7.4,0-14.7,0-22.1,0.1c-4.7,0-9.4,0.1-14.1,0.2c-4.7,0.1-9.4,0.1-14.1,0.2c-3.6,0.1-7.3,0.2-10.9,0.3
		c-2.1,0.1-4.3,0.1-6.4,0.1c-4.9,0.1-9.8,0.2-14.7,0.2c-3.7,0-7.4-0.1-11.2-0.2c-3.2-0.1-6.5-0.1-9.7-0.2c-2.5-0.1-5-0.2-7.5-0.3
		c-1-0.1-1.1-0.1-1.2-0.8c0-0.1,0-0.1,0-0.2c-0.3-1.5-0.2-1.5,1.8-1.9c3-0.6,6.1-0.9,9.2-1c5.4-0.2,10.9-0.4,16.3-0.5
		c4.1-0.1,8.3-0.1,12.4-0.1c6.5,0,13-0.1,19.5,0c8.6,0.1,17.2,0.2,25.9,0.3c6.3,0.1,12.7,0.1,19,0.2c6,0.1,12.1,0.1,18.1,0.2
		c5.2,0.1,10.5,0.1,15.7,0.1c6.3,0.1,12.7,0.2,19,0.3c8.1,0.1,16.3,0.3,24.4,0.5c4.3,0,8.6,0.4,12.9,1c0.4,0.1,0.9,0.2,1.3,0.3
		C522.3,268.3,522.4,268.3,522.5,268.4"/>
	<g class="st1">
		<path class="st2" d="M213.7,254v6.8c-1,0.7-2,1.2-3.1,1.6c-1.1,0.4-2.3,0.5-3.6,0.5c-1.5,0-2.9-0.2-4.1-0.7
			c-1.2-0.5-2.2-1.1-3.1-2s-1.5-1.9-2-3.1s-0.7-2.5-0.7-4c0-1.5,0.2-2.8,0.7-4c0.4-1.2,1.1-2.2,1.9-3.1s1.8-1.5,3-2
			c1.2-0.5,2.5-0.7,4-0.7c0.7,0,1.4,0,2,0.1c0.6,0.1,1.2,0.2,1.7,0.4c0.5,0.2,1,0.4,1.5,0.7s0.9,0.6,1.3,1l-0.4,0.6
			c-0.1,0.2-0.3,0.3-0.6,0.1c-0.1-0.1-0.3-0.2-0.6-0.4c-0.3-0.2-0.6-0.4-1-0.6c-0.4-0.2-1-0.4-1.6-0.6c-0.7-0.2-1.4-0.3-2.4-0.3
			c-1.2,0-2.4,0.2-3.4,0.6c-1,0.4-1.9,1-2.6,1.7c-0.7,0.7-1.3,1.6-1.6,2.7c-0.4,1.1-0.6,2.3-0.6,3.6c0,1.3,0.2,2.5,0.6,3.6
			c0.4,1.1,0.9,2,1.7,2.7c0.7,0.7,1.6,1.3,2.6,1.7c1,0.4,2.2,0.6,3.5,0.6c0.6,0,1.1,0,1.6-0.1c0.5-0.1,0.9-0.2,1.4-0.3
			c0.4-0.1,0.9-0.3,1.3-0.5c0.4-0.2,0.8-0.4,1.2-0.7V255h-3.7c-0.1,0-0.2,0-0.2-0.1c-0.1-0.1-0.1-0.1-0.1-0.2V254H213.7z"/>
		<path class="st2" d="M219.5,244.6c0,0.2,0,0.3-0.1,0.5s-0.2,0.3-0.3,0.4c-0.1,0.1-0.2,0.2-0.4,0.3c-0.1,0.1-0.3,0.1-0.5,0.1
			s-0.3,0-0.5-0.1c-0.1-0.1-0.3-0.1-0.4-0.3c-0.1-0.1-0.2-0.2-0.3-0.4s-0.1-0.3-0.1-0.5c0-0.2,0-0.3,0.1-0.5
			c0.1-0.1,0.1-0.3,0.3-0.4c0.1-0.1,0.2-0.2,0.4-0.3c0.1-0.1,0.3-0.1,0.5-0.1s0.3,0,0.5,0.1c0.1,0.1,0.3,0.1,0.4,0.3
			c0.1,0.1,0.2,0.2,0.3,0.4C219.4,244.3,219.5,244.4,219.5,244.6z M218.9,249.2v13.4h-1.3v-13.4H218.9z"/>
		<path class="st2" d="M234.3,249.2l-5.7,13.4h-1.1l-5.7-13.4h1c0.1,0,0.2,0,0.3,0.1s0.1,0.1,0.2,0.2l4.4,10.6
			c0.1,0.4,0.2,0.8,0.3,1.2c0.1-0.4,0.2-0.8,0.3-1.2l4.5-10.6c0-0.1,0.1-0.2,0.2-0.2c0.1-0.1,0.2-0.1,0.3-0.1H234.3z"/>
		<path class="st2" d="M237.1,255.4v0.3c0,1,0.1,1.9,0.4,2.7c0.2,0.8,0.6,1.4,1,1.9c0.4,0.5,1,0.9,1.6,1.2c0.6,0.3,1.3,0.4,2.1,0.4
			c0.7,0,1.3-0.1,1.8-0.2c0.5-0.1,0.9-0.3,1.2-0.5c0.3-0.2,0.6-0.4,0.8-0.5c0.2-0.1,0.3-0.2,0.4-0.2c0.1,0,0.2,0,0.3,0.1l0.4,0.4
			c-0.2,0.3-0.5,0.5-0.9,0.8c-0.4,0.2-0.8,0.4-1.2,0.6c-0.4,0.2-0.9,0.3-1.4,0.4c-0.5,0.1-1,0.1-1.5,0.1c-0.9,0-1.8-0.2-2.5-0.5
			c-0.8-0.3-1.4-0.8-1.9-1.4c-0.5-0.6-1-1.4-1.2-2.2c-0.3-0.9-0.4-1.9-0.4-3c0-1,0.1-1.9,0.4-2.7c0.3-0.8,0.7-1.5,1.2-2.1
			c0.5-0.6,1.2-1.1,1.9-1.4c0.8-0.3,1.6-0.5,2.6-0.5c0.8,0,1.5,0.1,2.1,0.4c0.6,0.3,1.2,0.6,1.7,1.1c0.5,0.5,0.9,1.1,1.1,1.8
			c0.3,0.7,0.4,1.6,0.4,2.5c0,0.2,0,0.3-0.1,0.4c-0.1,0.1-0.1,0.1-0.3,0.1H237.1z M246.1,254.6c0-0.7-0.1-1.4-0.3-1.9
			c-0.2-0.6-0.5-1.1-0.9-1.5c-0.4-0.4-0.8-0.7-1.3-0.9c-0.5-0.2-1.1-0.3-1.7-0.3c-0.7,0-1.3,0.1-1.9,0.3c-0.5,0.2-1,0.5-1.4,0.9
			c-0.4,0.4-0.7,0.9-1,1.5s-0.4,1.2-0.5,1.9H246.1z"/>
		<path class="st2" d="M259.3,251.6c0.6-0.8,1.3-1.5,2.1-1.9c0.8-0.5,1.7-0.7,2.7-0.7c1.6,0,2.9,0.6,3.9,1.7
			c0.9,1.1,1.4,2.9,1.4,5.1c0,1-0.1,1.9-0.4,2.7s-0.6,1.6-1.1,2.2c-0.5,0.6-1.1,1.1-1.8,1.5c-0.7,0.4-1.6,0.5-2.5,0.5
			c-0.9,0-1.7-0.2-2.4-0.5s-1.2-0.8-1.7-1.5v6.5h-1.3v-18.2h0.7c0.2,0,0.4,0.1,0.4,0.3L259.3,251.6z M259.4,259.7
			c0.3,0.4,0.5,0.7,0.8,1c0.3,0.3,0.6,0.5,0.9,0.6c0.3,0.2,0.6,0.3,1,0.4c0.4,0.1,0.7,0.1,1.1,0.1c0.8,0,1.5-0.1,2.1-0.4
			c0.6-0.3,1.1-0.7,1.5-1.2c0.4-0.5,0.7-1.2,0.9-1.9c0.2-0.7,0.3-1.5,0.3-2.4c0-2-0.4-3.5-1.1-4.4c-0.7-0.9-1.8-1.4-3.2-1.4
			c-0.9,0-1.7,0.2-2.4,0.7s-1.4,1.1-1.9,1.9V259.7z"/>
		<path class="st2" d="M275,244.6c0,0.2,0,0.3-0.1,0.5s-0.2,0.3-0.3,0.4c-0.1,0.1-0.2,0.2-0.4,0.3c-0.1,0.1-0.3,0.1-0.5,0.1
			s-0.3,0-0.5-0.1c-0.1-0.1-0.3-0.1-0.4-0.3c-0.1-0.1-0.2-0.2-0.3-0.4s-0.1-0.3-0.1-0.5c0-0.2,0-0.3,0.1-0.5
			c0.1-0.1,0.1-0.3,0.3-0.4c0.1-0.1,0.2-0.2,0.4-0.3c0.1-0.1,0.3-0.1,0.5-0.1s0.3,0,0.5,0.1c0.1,0.1,0.3,0.1,0.4,0.3
			c0.1,0.1,0.2,0.2,0.3,0.4C274.9,244.3,275,244.4,275,244.6z M274.4,249.2v13.4h-1.3v-13.4H274.4z"/>
		<path class="st2" d="M280.4,243v19.6h-1.3V243H280.4z"/>
		<path class="st2" d="M290.3,249c1,0,1.8,0.2,2.6,0.5c0.8,0.3,1.4,0.8,1.9,1.4c0.5,0.6,0.9,1.3,1.2,2.2c0.3,0.9,0.4,1.8,0.4,2.9
			c0,1.1-0.1,2-0.4,2.8c-0.3,0.8-0.7,1.6-1.2,2.2c-0.5,0.6-1.2,1.1-1.9,1.4s-1.6,0.5-2.6,0.5c-1,0-1.8-0.2-2.6-0.5
			c-0.8-0.3-1.4-0.8-1.9-1.4c-0.5-0.6-0.9-1.3-1.2-2.2c-0.3-0.8-0.4-1.8-0.4-2.8c0-1.1,0.1-2,0.4-2.9c0.3-0.9,0.7-1.6,1.2-2.2
			c0.5-0.6,1.2-1.1,1.9-1.4C288.5,249.2,289.3,249,290.3,249z M290.3,261.8c0.8,0,1.5-0.1,2.1-0.4c0.6-0.3,1.1-0.7,1.5-1.2
			c0.4-0.5,0.7-1.1,0.9-1.9c0.2-0.7,0.3-1.5,0.3-2.4c0-0.9-0.1-1.7-0.3-2.4c-0.2-0.7-0.5-1.4-0.9-1.9c-0.4-0.5-0.9-0.9-1.5-1.2
			c-0.6-0.3-1.3-0.4-2.1-0.4c-0.8,0-1.5,0.1-2.1,0.4c-0.6,0.3-1.1,0.7-1.5,1.2s-0.7,1.1-0.9,1.9c-0.2,0.7-0.3,1.5-0.3,2.4
			c0,0.9,0.1,1.7,0.3,2.4s0.5,1.3,0.9,1.9c0.4,0.5,0.9,0.9,1.5,1.2C288.8,261.7,289.5,261.8,290.3,261.8z"/>
		<path class="st2" d="M303.5,262.9c-0.9,0-1.6-0.3-2.1-0.8c-0.5-0.5-0.8-1.3-0.8-2.3v-9.2h-1.9c-0.1,0-0.2,0-0.2-0.1
			c-0.1-0.1-0.1-0.1-0.1-0.2v-0.5l2.3-0.2l0.3-4.8c0-0.1,0.1-0.2,0.1-0.2c0.1-0.1,0.1-0.1,0.2-0.1h0.6v5.1h4.2v1h-4.2v9.1
			c0,0.4,0,0.7,0.1,1c0.1,0.3,0.2,0.5,0.4,0.7c0.2,0.2,0.4,0.3,0.6,0.4c0.2,0.1,0.5,0.1,0.7,0.1c0.3,0,0.6,0,0.8-0.1
			c0.2-0.1,0.4-0.2,0.6-0.3s0.3-0.2,0.4-0.3s0.2-0.1,0.3-0.1c0.1,0,0.1,0,0.2,0.1l0.4,0.6c-0.3,0.4-0.8,0.7-1.3,0.9
			C304.6,262.7,304,262.9,303.5,262.9z"/>
		<path class="st2" d="M316.4,250.9c-0.1,0.1-0.2,0.2-0.3,0.2c-0.1,0-0.2-0.1-0.4-0.2c-0.2-0.1-0.4-0.2-0.6-0.4
			c-0.3-0.1-0.6-0.3-1-0.4c-0.4-0.1-0.8-0.2-1.4-0.2c-0.5,0-0.9,0.1-1.3,0.2s-0.7,0.3-1,0.6c-0.3,0.2-0.5,0.5-0.7,0.8
			c-0.2,0.3-0.2,0.6-0.2,1c0,0.4,0.1,0.8,0.3,1.1c0.2,0.3,0.5,0.5,0.8,0.7c0.3,0.2,0.7,0.4,1.2,0.5c0.5,0.1,0.9,0.3,1.4,0.4
			c0.5,0.1,0.9,0.3,1.4,0.5c0.4,0.2,0.8,0.4,1.2,0.7c0.3,0.3,0.6,0.6,0.8,1c0.2,0.4,0.3,0.8,0.3,1.4c0,0.6-0.1,1.1-0.3,1.6
			s-0.5,0.9-0.9,1.3s-0.9,0.7-1.5,0.9c-0.6,0.2-1.3,0.3-2,0.3c-0.9,0-1.8-0.2-2.4-0.5c-0.7-0.3-1.3-0.7-1.8-1.2l0.3-0.5
			c0-0.1,0.1-0.1,0.2-0.2s0.1-0.1,0.2-0.1c0.1,0,0.3,0.1,0.4,0.2c0.2,0.1,0.4,0.3,0.7,0.5c0.3,0.2,0.6,0.3,1,0.5
			c0.4,0.1,0.9,0.2,1.5,0.2c0.6,0,1.1-0.1,1.5-0.2c0.4-0.2,0.8-0.4,1.1-0.6c0.3-0.3,0.5-0.6,0.7-1c0.1-0.4,0.2-0.7,0.2-1.2
			c0-0.4-0.1-0.8-0.3-1.1s-0.5-0.5-0.9-0.8s-0.7-0.4-1.2-0.5c-0.4-0.1-0.9-0.3-1.4-0.4c-0.5-0.1-0.9-0.3-1.4-0.5
			c-0.4-0.2-0.8-0.4-1.2-0.6s-0.6-0.6-0.9-1c-0.2-0.4-0.3-0.8-0.3-1.4c0-0.5,0.1-0.9,0.3-1.4c0.2-0.4,0.5-0.8,0.9-1.2
			c0.4-0.3,0.8-0.6,1.4-0.8c0.5-0.2,1.2-0.3,1.8-0.3c0.8,0,1.5,0.1,2.2,0.4c0.6,0.2,1.2,0.6,1.7,1.1L316.4,250.9z"/>
		<path class="st2" d="M336.9,251c0,0-0.1,0.1-0.1,0.1c0,0-0.1,0-0.2,0c-0.1,0-0.2-0.1-0.4-0.2c-0.2-0.1-0.4-0.3-0.6-0.4
			c-0.3-0.1-0.6-0.3-1-0.4c-0.4-0.1-0.9-0.2-1.4-0.2c-0.8,0-1.5,0.1-2.1,0.4c-0.6,0.3-1.1,0.7-1.5,1.2s-0.7,1.1-0.9,1.9
			c-0.2,0.7-0.3,1.5-0.3,2.5c0,0.9,0.1,1.8,0.3,2.5c0.2,0.7,0.5,1.3,0.9,1.8c0.4,0.5,0.9,0.9,1.5,1.1c0.6,0.3,1.2,0.4,1.9,0.4
			c0.6,0,1.2-0.1,1.6-0.2s0.8-0.3,1.1-0.5c0.3-0.2,0.5-0.3,0.7-0.5c0.2-0.2,0.3-0.2,0.4-0.2s0.2,0,0.3,0.1l0.3,0.4
			c-0.2,0.3-0.5,0.5-0.8,0.8c-0.3,0.2-0.7,0.4-1.1,0.6s-0.8,0.3-1.3,0.4c-0.5,0.1-0.9,0.1-1.5,0.1c-0.9,0-1.6-0.2-2.3-0.5
			s-1.3-0.8-1.8-1.4c-0.5-0.6-0.9-1.3-1.2-2.2c-0.3-0.9-0.4-1.8-0.4-2.9c0-1,0.1-2,0.4-2.8c0.3-0.8,0.7-1.6,1.2-2.2s1.2-1.1,1.9-1.4
			c0.8-0.3,1.6-0.5,2.6-0.5c0.9,0,1.6,0.1,2.3,0.4c0.7,0.3,1.3,0.7,1.8,1.1L336.9,251z"/>
		<path class="st2" d="M345.6,249c1,0,1.8,0.2,2.6,0.5c0.8,0.3,1.4,0.8,1.9,1.4c0.5,0.6,0.9,1.3,1.2,2.2c0.3,0.9,0.4,1.8,0.4,2.9
			c0,1.1-0.1,2-0.4,2.8c-0.3,0.8-0.7,1.6-1.2,2.2c-0.5,0.6-1.2,1.1-1.9,1.4s-1.6,0.5-2.6,0.5c-1,0-1.8-0.2-2.6-0.5
			c-0.8-0.3-1.4-0.8-1.9-1.4c-0.5-0.6-0.9-1.3-1.2-2.2c-0.3-0.8-0.4-1.8-0.4-2.8c0-1.1,0.1-2,0.4-2.9c0.3-0.9,0.7-1.6,1.2-2.2
			c0.5-0.6,1.2-1.1,1.9-1.4C343.8,249.2,344.7,249,345.6,249z M345.6,261.8c0.8,0,1.5-0.1,2.1-0.4c0.6-0.3,1.1-0.7,1.5-1.2
			c0.4-0.5,0.7-1.1,0.9-1.9c0.2-0.7,0.3-1.5,0.3-2.4c0-0.9-0.1-1.7-0.3-2.4c-0.2-0.7-0.5-1.4-0.9-1.9c-0.4-0.5-0.9-0.9-1.5-1.2
			c-0.6-0.3-1.3-0.4-2.1-0.4c-0.8,0-1.5,0.1-2.1,0.4c-0.6,0.3-1.1,0.7-1.5,1.2s-0.7,1.1-0.9,1.9c-0.2,0.7-0.3,1.5-0.3,2.4
			c0,0.9,0.1,1.7,0.3,2.4s0.5,1.3,0.9,1.9c0.4,0.5,0.9,0.9,1.5,1.2C344.1,261.7,344.8,261.8,345.6,261.8z"/>
		<path class="st2" d="M355.4,262.6v-13.4h0.7c0.2,0,0.4,0.1,0.4,0.3l0.1,1.9c0.5-0.7,1.1-1.3,1.8-1.8c0.7-0.5,1.4-0.7,2.3-0.7
			c1,0,1.8,0.3,2.4,0.9c0.6,0.6,1,1.4,1.2,2.4c0.2-0.5,0.4-1,0.7-1.4c0.3-0.4,0.6-0.7,1-1c0.4-0.3,0.8-0.5,1.2-0.6
			c0.4-0.1,0.9-0.2,1.4-0.2c0.7,0,1.3,0.1,1.8,0.3c0.5,0.2,1,0.5,1.3,1c0.4,0.4,0.7,1,0.9,1.6s0.3,1.3,0.3,2.2v8.6h-1.3v-8.6
			c0-1.3-0.3-2.3-0.9-3s-1.4-1-2.4-1c-0.5,0-0.9,0.1-1.3,0.3s-0.8,0.4-1.1,0.8c-0.3,0.3-0.6,0.8-0.8,1.3c-0.2,0.5-0.3,1.1-0.3,1.8
			v8.6h-1.3v-8.6c0-1.3-0.3-2.3-0.8-3s-1.3-1-2.3-1c-0.7,0-1.4,0.2-2,0.6s-1.2,1-1.7,1.8v10.2H355.4z"/>
		<path class="st2" d="M378.4,251.6c0.6-0.8,1.3-1.5,2.1-1.9c0.8-0.5,1.7-0.7,2.7-0.7c1.6,0,2.9,0.6,3.9,1.7
			c0.9,1.1,1.4,2.9,1.4,5.1c0,1-0.1,1.9-0.4,2.7c-0.3,0.9-0.6,1.6-1.1,2.2c-0.5,0.6-1.1,1.1-1.8,1.5c-0.7,0.4-1.6,0.5-2.5,0.5
			c-0.9,0-1.7-0.2-2.4-0.5s-1.2-0.8-1.7-1.5v6.5h-1.3v-18.2h0.7c0.2,0,0.4,0.1,0.4,0.3L378.4,251.6z M378.4,259.7
			c0.3,0.4,0.5,0.7,0.8,1c0.3,0.3,0.6,0.5,0.9,0.6c0.3,0.2,0.6,0.3,1,0.4c0.4,0.1,0.7,0.1,1.1,0.1c0.8,0,1.5-0.1,2.1-0.4
			s1.1-0.7,1.5-1.2c0.4-0.5,0.7-1.2,0.9-1.9c0.2-0.7,0.3-1.5,0.3-2.4c0-2-0.4-3.5-1.1-4.4c-0.7-0.9-1.8-1.4-3.2-1.4
			c-0.9,0-1.7,0.2-2.4,0.7s-1.4,1.1-1.9,1.9V259.7z"/>
		<path class="st2" d="M393.4,243v19.6h-1.3V243H393.4z"/>
		<path class="st2" d="M398.4,255.4v0.3c0,1,0.1,1.9,0.4,2.7c0.2,0.8,0.6,1.4,1,1.9c0.4,0.5,1,0.9,1.6,1.2c0.6,0.3,1.3,0.4,2.1,0.4
			c0.7,0,1.3-0.1,1.8-0.2c0.5-0.1,0.9-0.3,1.2-0.5c0.3-0.2,0.6-0.4,0.8-0.5c0.2-0.1,0.3-0.2,0.4-0.2c0.1,0,0.2,0,0.3,0.1l0.4,0.4
			c-0.2,0.3-0.5,0.5-0.9,0.8c-0.4,0.2-0.8,0.4-1.2,0.6c-0.4,0.2-0.9,0.3-1.4,0.4c-0.5,0.1-1,0.1-1.5,0.1c-0.9,0-1.8-0.2-2.5-0.5
			c-0.8-0.3-1.4-0.8-1.9-1.4c-0.5-0.6-1-1.4-1.2-2.2c-0.3-0.9-0.4-1.9-0.4-3c0-1,0.1-1.9,0.4-2.7c0.3-0.8,0.7-1.5,1.2-2.1
			c0.5-0.6,1.2-1.1,1.9-1.4c0.8-0.3,1.6-0.5,2.6-0.5c0.8,0,1.5,0.1,2.1,0.4s1.2,0.6,1.7,1.1c0.5,0.5,0.9,1.1,1.1,1.8
			c0.3,0.7,0.4,1.6,0.4,2.5c0,0.2,0,0.3-0.1,0.4c-0.1,0.1-0.1,0.1-0.3,0.1H398.4z M407.4,254.6c0-0.7-0.1-1.4-0.3-1.9
			c-0.2-0.6-0.5-1.1-0.9-1.5c-0.4-0.4-0.8-0.7-1.3-0.9c-0.5-0.2-1.1-0.3-1.7-0.3c-0.7,0-1.3,0.1-1.9,0.3c-0.5,0.2-1,0.5-1.4,0.9
			c-0.4,0.4-0.7,0.9-1,1.5c-0.2,0.6-0.4,1.2-0.5,1.9H407.4z"/>
		<path class="st2" d="M415.7,262.9c-0.9,0-1.6-0.3-2.1-0.8c-0.5-0.5-0.8-1.3-0.8-2.3v-9.2h-1.9c-0.1,0-0.2,0-0.2-0.1
			c-0.1-0.1-0.1-0.1-0.1-0.2v-0.5l2.3-0.2l0.3-4.8c0-0.1,0.1-0.2,0.1-0.2c0.1-0.1,0.1-0.1,0.2-0.1h0.6v5.1h4.2v1h-4.2v9.1
			c0,0.4,0,0.7,0.1,1c0.1,0.3,0.2,0.5,0.4,0.7c0.2,0.2,0.4,0.3,0.6,0.4c0.2,0.1,0.5,0.1,0.7,0.1c0.3,0,0.6,0,0.8-0.1
			s0.4-0.2,0.6-0.3c0.2-0.1,0.3-0.2,0.4-0.3s0.2-0.1,0.3-0.1c0.1,0,0.1,0,0.2,0.1l0.4,0.6c-0.3,0.4-0.8,0.7-1.3,0.9
			C416.8,262.7,416.3,262.9,415.7,262.9z"/>
		<path class="st2" d="M421.7,255.4v0.3c0,1,0.1,1.9,0.4,2.7c0.2,0.8,0.6,1.4,1,1.9c0.4,0.5,1,0.9,1.6,1.2c0.6,0.3,1.3,0.4,2.1,0.4
			c0.7,0,1.3-0.1,1.8-0.2c0.5-0.1,0.9-0.3,1.2-0.5s0.6-0.4,0.8-0.5s0.3-0.2,0.4-0.2c0.1,0,0.2,0,0.3,0.1l0.4,0.4
			c-0.2,0.3-0.5,0.5-0.9,0.8c-0.4,0.2-0.8,0.4-1.2,0.6c-0.4,0.2-0.9,0.3-1.4,0.4c-0.5,0.1-1,0.1-1.5,0.1c-0.9,0-1.8-0.2-2.5-0.5
			s-1.4-0.8-1.9-1.4c-0.5-0.6-1-1.4-1.2-2.2c-0.3-0.9-0.4-1.9-0.4-3c0-1,0.1-1.9,0.4-2.7c0.3-0.8,0.7-1.5,1.2-2.1
			c0.5-0.6,1.2-1.1,1.9-1.4c0.8-0.3,1.6-0.5,2.6-0.5c0.8,0,1.5,0.1,2.1,0.4c0.6,0.3,1.2,0.6,1.7,1.1c0.5,0.5,0.9,1.1,1.1,1.8
			c0.3,0.7,0.4,1.6,0.4,2.5c0,0.2,0,0.3-0.1,0.4c-0.1,0.1-0.1,0.1-0.3,0.1H421.7z M430.7,254.6c0-0.7-0.1-1.4-0.3-1.9
			c-0.2-0.6-0.5-1.1-0.9-1.5c-0.4-0.4-0.8-0.7-1.3-0.9c-0.5-0.2-1.1-0.3-1.7-0.3c-0.7,0-1.3,0.1-1.9,0.3c-0.5,0.2-1,0.5-1.4,0.9
			s-0.7,0.9-1,1.5s-0.4,1.2-0.5,1.9H430.7z"/>
		<path class="st2" d="M451.7,251c0,0-0.1,0.1-0.1,0.1c0,0-0.1,0-0.2,0c-0.1,0-0.2-0.1-0.4-0.2c-0.2-0.1-0.4-0.3-0.6-0.4
			c-0.3-0.1-0.6-0.3-1-0.4c-0.4-0.1-0.9-0.2-1.4-0.2c-0.8,0-1.5,0.1-2.1,0.4c-0.6,0.3-1.1,0.7-1.5,1.2s-0.7,1.1-0.9,1.9
			c-0.2,0.7-0.3,1.5-0.3,2.5c0,0.9,0.1,1.8,0.3,2.5c0.2,0.7,0.5,1.3,0.9,1.8c0.4,0.5,0.9,0.9,1.5,1.1c0.6,0.3,1.2,0.4,1.9,0.4
			c0.6,0,1.2-0.1,1.6-0.2s0.8-0.3,1.1-0.5c0.3-0.2,0.5-0.3,0.7-0.5s0.3-0.2,0.4-0.2s0.2,0,0.3,0.1l0.3,0.4c-0.2,0.3-0.5,0.5-0.8,0.8
			c-0.3,0.2-0.7,0.4-1.1,0.6s-0.8,0.3-1.3,0.4c-0.5,0.1-0.9,0.1-1.5,0.1c-0.9,0-1.6-0.2-2.3-0.5c-0.7-0.3-1.3-0.8-1.8-1.4
			c-0.5-0.6-0.9-1.3-1.2-2.2c-0.3-0.9-0.4-1.8-0.4-2.9c0-1,0.1-2,0.4-2.8c0.3-0.8,0.7-1.6,1.2-2.2c0.5-0.6,1.2-1.1,1.9-1.4
			c0.8-0.3,1.6-0.5,2.6-0.5c0.9,0,1.6,0.1,2.3,0.4c0.7,0.3,1.3,0.7,1.8,1.1L451.7,251z"/>
		<path class="st2" d="M460.4,249c1,0,1.8,0.2,2.6,0.5c0.8,0.3,1.4,0.8,1.9,1.4c0.5,0.6,0.9,1.3,1.2,2.2c0.3,0.9,0.4,1.8,0.4,2.9
			c0,1.1-0.1,2-0.4,2.8c-0.3,0.8-0.7,1.6-1.2,2.2c-0.5,0.6-1.2,1.1-1.9,1.4s-1.6,0.5-2.6,0.5s-1.8-0.2-2.6-0.5
			c-0.8-0.3-1.4-0.8-1.9-1.4c-0.5-0.6-0.9-1.3-1.2-2.2c-0.3-0.8-0.4-1.8-0.4-2.8c0-1.1,0.1-2,0.4-2.9c0.3-0.9,0.7-1.6,1.2-2.2
			c0.5-0.6,1.2-1.1,1.9-1.4C458.6,249.2,459.5,249,460.4,249z M460.4,261.8c0.8,0,1.5-0.1,2.1-0.4c0.6-0.3,1.1-0.7,1.5-1.2
			c0.4-0.5,0.7-1.1,0.9-1.9s0.3-1.5,0.3-2.4c0-0.9-0.1-1.7-0.3-2.4c-0.2-0.7-0.5-1.4-0.9-1.9s-0.9-0.9-1.5-1.2
			c-0.6-0.3-1.3-0.4-2.1-0.4s-1.5,0.1-2.1,0.4c-0.6,0.3-1.1,0.7-1.5,1.2s-0.7,1.1-0.9,1.9c-0.2,0.7-0.3,1.5-0.3,2.4
			c0,0.9,0.1,1.7,0.3,2.4c0.2,0.7,0.5,1.3,0.9,1.9c0.4,0.5,0.9,0.9,1.5,1.2C458.9,261.7,459.6,261.8,460.4,261.8z"/>
		<path class="st2" d="M471.4,251.6c0.6-0.8,1.3-1.4,2.2-1.9s1.7-0.7,2.7-0.7c0.7,0,1.4,0.1,2,0.4c0.6,0.2,1,0.6,1.4,1
			c0.4,0.4,0.6,1,0.8,1.6c0.2,0.6,0.3,1.3,0.3,2.1v8.6h-1.3v-8.6c0-1.3-0.3-2.2-0.9-3c-0.6-0.7-1.5-1.1-2.6-1.1
			c-0.9,0-1.7,0.2-2.5,0.7c-0.8,0.4-1.4,1.1-2,1.9v10.1h-1.3v-13.4h0.7c0.2,0,0.4,0.1,0.4,0.3L471.4,251.6z"/>
		<path class="st2" d="M488.5,262.9c-0.9,0-1.6-0.3-2.1-0.8c-0.5-0.5-0.8-1.3-0.8-2.3v-9.2h-1.9c-0.1,0-0.2,0-0.2-0.1
			c-0.1-0.1-0.1-0.1-0.1-0.2v-0.5l2.3-0.2l0.3-4.8c0-0.1,0.1-0.2,0.1-0.2c0.1-0.1,0.1-0.1,0.2-0.1h0.6v5.1h4.2v1h-4.2v9.1
			c0,0.4,0,0.7,0.1,1c0.1,0.3,0.2,0.5,0.4,0.7c0.2,0.2,0.4,0.3,0.6,0.4c0.2,0.1,0.5,0.1,0.7,0.1c0.3,0,0.6,0,0.8-0.1
			c0.2-0.1,0.4-0.2,0.6-0.3c0.2-0.1,0.3-0.2,0.4-0.3s0.2-0.1,0.3-0.1c0.1,0,0.1,0,0.2,0.1l0.4,0.6c-0.3,0.4-0.8,0.7-1.3,0.9
			C489.6,262.7,489.1,262.9,488.5,262.9z"/>
		<path class="st2" d="M495.3,252.5c0.2-0.5,0.4-1,0.7-1.5c0.3-0.4,0.6-0.8,0.9-1.1s0.7-0.5,1.2-0.7s0.9-0.2,1.4-0.2
			c0.3,0,0.6,0,0.8,0.1c0.3,0,0.5,0.1,0.7,0.3l-0.1,0.9c0,0.1-0.1,0.2-0.3,0.2c-0.1,0-0.3,0-0.5-0.1c-0.2-0.1-0.5-0.1-0.9-0.1
			c-0.5,0-1,0.1-1.4,0.2s-0.8,0.4-1.1,0.7c-0.3,0.3-0.6,0.7-0.8,1.2c-0.2,0.5-0.5,1-0.7,1.6v8.7h-1.3v-13.4h0.7c0.2,0,0.3,0,0.3,0.1
			s0.1,0.2,0.1,0.3L495.3,252.5z"/>
		<path class="st2" d="M508.2,249c1,0,1.8,0.2,2.6,0.5c0.8,0.3,1.4,0.8,1.9,1.4c0.5,0.6,0.9,1.3,1.2,2.2c0.3,0.9,0.4,1.8,0.4,2.9
			c0,1.1-0.1,2-0.4,2.8c-0.3,0.8-0.7,1.6-1.2,2.2c-0.5,0.6-1.2,1.1-1.9,1.4s-1.6,0.5-2.6,0.5c-1,0-1.8-0.2-2.6-0.5
			c-0.8-0.3-1.4-0.8-1.9-1.4c-0.5-0.6-0.9-1.3-1.2-2.2c-0.3-0.8-0.4-1.8-0.4-2.8c0-1.1,0.1-2,0.4-2.9c0.3-0.9,0.7-1.6,1.2-2.2
			c0.5-0.6,1.2-1.1,1.9-1.4C506.4,249.2,507.3,249,508.2,249z M508.2,261.8c0.8,0,1.5-0.1,2.1-0.4c0.6-0.3,1.1-0.7,1.5-1.2
			c0.4-0.5,0.7-1.1,0.9-1.9c0.2-0.7,0.3-1.5,0.3-2.4c0-0.9-0.1-1.7-0.3-2.4c-0.2-0.7-0.5-1.4-0.9-1.9c-0.4-0.5-0.9-0.9-1.5-1.2
			c-0.6-0.3-1.3-0.4-2.1-0.4c-0.8,0-1.5,0.1-2.1,0.4c-0.6,0.3-1.1,0.7-1.5,1.2s-0.7,1.1-0.9,1.9c-0.2,0.7-0.3,1.5-0.3,2.4
			c0,0.9,0.1,1.7,0.3,2.4c0.2,0.7,0.5,1.3,0.9,1.9c0.4,0.5,0.9,0.9,1.5,1.2C506.7,261.7,507.4,261.8,508.2,261.8z"/>
		<path class="st2" d="M519.4,243v19.6h-1.3V243H519.4z"/>
	</g>
	<g class="st1">
		<path class="st2" d="M203.1,282c1,0,1.8,0.2,2.6,0.5c0.8,0.3,1.4,0.8,1.9,1.4c0.5,0.6,0.9,1.3,1.2,2.2c0.3,0.9,0.4,1.8,0.4,2.9
			c0,1.1-0.1,2-0.4,2.8c-0.3,0.8-0.7,1.6-1.2,2.2c-0.5,0.6-1.2,1.1-1.9,1.4s-1.6,0.5-2.6,0.5c-1,0-1.8-0.2-2.6-0.5
			c-0.8-0.3-1.4-0.8-1.9-1.4c-0.5-0.6-0.9-1.3-1.2-2.2c-0.3-0.8-0.4-1.8-0.4-2.8c0-1.1,0.1-2,0.4-2.9c0.3-0.9,0.7-1.6,1.2-2.2
			c0.5-0.6,1.2-1.1,1.9-1.4C201.3,282.2,202.2,282,203.1,282z M203.1,294.8c0.8,0,1.5-0.1,2.1-0.4c0.6-0.3,1.1-0.7,1.5-1.2
			c0.4-0.5,0.7-1.1,0.9-1.9c0.2-0.7,0.3-1.5,0.3-2.4c0-0.9-0.1-1.7-0.3-2.4c-0.2-0.7-0.5-1.4-0.9-1.9c-0.4-0.5-0.9-0.9-1.5-1.2
			c-0.6-0.3-1.3-0.4-2.1-0.4c-0.8,0-1.5,0.1-2.1,0.4c-0.6,0.3-1.1,0.7-1.5,1.2s-0.7,1.1-0.9,1.9c-0.2,0.7-0.3,1.5-0.3,2.4
			c0,0.9,0.1,1.7,0.3,2.4s0.5,1.3,0.9,1.9c0.4,0.5,0.9,0.9,1.5,1.2C201.6,294.7,202.3,294.8,203.1,294.8z"/>
		<path class="st2" d="M213.4,295.6v-12l-1.9-0.1c-0.3,0-0.4-0.1-0.4-0.3v-0.5h2.3v-1.7c0-0.8,0.1-1.4,0.3-2
			c0.2-0.6,0.5-1.1,0.8-1.5s0.8-0.7,1.3-0.9c0.5-0.2,1.1-0.3,1.7-0.3c0.3,0,0.6,0,0.8,0.1c0.3,0,0.5,0.1,0.8,0.2l0,0.6
			c0,0.1-0.1,0.1-0.1,0.2c-0.1,0-0.1,0-0.2,0c-0.1,0-0.2,0-0.4,0s-0.4,0-0.6,0c-0.4,0-0.8,0.1-1.2,0.2c-0.4,0.1-0.7,0.3-1,0.6
			s-0.5,0.7-0.6,1.1c-0.1,0.5-0.2,1-0.2,1.7v1.7h4.4v1h-4.3v12.1H213.4z"/>
		<path class="st2" d="M232.4,295.9c-0.9,0-1.6-0.3-2.1-0.8c-0.5-0.5-0.8-1.3-0.8-2.3v-9.2h-1.9c-0.1,0-0.2,0-0.2-0.1
			c-0.1-0.1-0.1-0.1-0.1-0.2v-0.5l2.3-0.2l0.3-4.8c0-0.1,0.1-0.2,0.1-0.2c0.1-0.1,0.1-0.1,0.2-0.1h0.6v5.1h4.2v1h-4.2v9.1
			c0,0.4,0,0.7,0.1,1c0.1,0.3,0.2,0.5,0.4,0.7c0.2,0.2,0.4,0.3,0.6,0.4c0.2,0.1,0.5,0.1,0.7,0.1c0.3,0,0.6,0,0.8-0.1
			c0.2-0.1,0.4-0.2,0.6-0.3s0.3-0.2,0.4-0.3s0.2-0.1,0.3-0.1c0.1,0,0.1,0,0.2,0.1l0.4,0.6c-0.3,0.4-0.8,0.7-1.3,0.9
			C233.5,295.7,232.9,295.9,232.4,295.9z"/>
		<path class="st2" d="M239.2,284.5c0.6-0.8,1.3-1.4,2.1-1.8s1.7-0.7,2.7-0.7c0.7,0,1.4,0.1,2,0.4c0.6,0.2,1,0.6,1.4,1
			c0.4,0.4,0.6,1,0.8,1.6s0.3,1.3,0.3,2.1v8.6h-1.3v-8.6c0-1.3-0.3-2.2-0.9-3c-0.6-0.7-1.5-1.1-2.6-1.1c-0.9,0-1.7,0.2-2.5,0.7
			c-0.8,0.4-1.4,1.1-2,1.9v10.1h-1.3V276h1.3V284.5z"/>
		<path class="st2" d="M253.3,288.4v0.3c0,1,0.1,1.9,0.4,2.7c0.2,0.8,0.6,1.4,1,1.9c0.4,0.5,1,0.9,1.6,1.2c0.6,0.3,1.3,0.4,2.1,0.4
			c0.7,0,1.3-0.1,1.8-0.2c0.5-0.1,0.9-0.3,1.2-0.5c0.3-0.2,0.6-0.4,0.8-0.5c0.2-0.1,0.3-0.2,0.4-0.2c0.1,0,0.2,0,0.3,0.1l0.4,0.4
			c-0.2,0.3-0.5,0.5-0.9,0.8c-0.4,0.2-0.8,0.4-1.2,0.6c-0.4,0.2-0.9,0.3-1.4,0.4c-0.5,0.1-1,0.1-1.5,0.1c-0.9,0-1.8-0.2-2.5-0.5
			c-0.8-0.3-1.4-0.8-1.9-1.4c-0.5-0.6-1-1.4-1.2-2.2c-0.3-0.9-0.4-1.9-0.4-3c0-1,0.1-1.9,0.4-2.7c0.3-0.8,0.7-1.5,1.2-2.1
			c0.5-0.6,1.2-1.1,1.9-1.4c0.8-0.3,1.6-0.5,2.6-0.5c0.8,0,1.5,0.1,2.1,0.4c0.6,0.3,1.2,0.6,1.7,1.1c0.5,0.5,0.9,1.1,1.1,1.8
			c0.3,0.7,0.4,1.6,0.4,2.5c0,0.2,0,0.3-0.1,0.4c-0.1,0.1-0.1,0.1-0.3,0.1H253.3z M262.2,287.6c0-0.7-0.1-1.4-0.3-1.9
			c-0.2-0.6-0.5-1.1-0.9-1.5c-0.4-0.4-0.8-0.7-1.3-0.9c-0.5-0.2-1.1-0.3-1.7-0.3c-0.7,0-1.3,0.1-1.9,0.3c-0.5,0.2-1,0.5-1.4,0.9
			c-0.4,0.4-0.7,0.9-1,1.5s-0.4,1.2-0.5,1.9H262.2z"/>
		<path class="st2" d="M273.8,284.1c0.7-0.7,1.4-1.2,2.2-1.6c0.8-0.4,1.7-0.5,2.6-0.5c0.7,0,1.4,0.1,1.9,0.3c0.5,0.2,1,0.6,1.3,1
			s0.6,0.9,0.8,1.6c0.2,0.6,0.3,1.3,0.3,2v8.7h-0.5c-0.3,0-0.4-0.1-0.5-0.4l-0.2-1.7c-0.4,0.4-0.7,0.7-1.1,1
			c-0.4,0.3-0.7,0.5-1.1,0.7c-0.4,0.2-0.8,0.4-1.3,0.5c-0.5,0.1-1,0.2-1.5,0.2c-0.5,0-0.9-0.1-1.3-0.2s-0.8-0.3-1.2-0.6
			s-0.6-0.6-0.8-1.1s-0.3-1-0.3-1.6c0-0.6,0.2-1.1,0.5-1.6c0.3-0.5,0.8-0.9,1.5-1.3c0.7-0.4,1.6-0.6,2.7-0.9s2.4-0.3,3.9-0.4v-1.4
			c0-1.2-0.3-2.2-0.8-2.9c-0.5-0.7-1.3-1-2.4-1c-0.6,0-1.2,0.1-1.7,0.3c-0.5,0.2-0.8,0.4-1.2,0.6s-0.6,0.4-0.8,0.6
			c-0.2,0.2-0.4,0.3-0.5,0.3c-0.1,0-0.2,0-0.2-0.1s-0.1-0.1-0.2-0.2L273.8,284.1z M281.7,289.1c-1.3,0-2.4,0.1-3.3,0.3
			s-1.7,0.4-2.3,0.6c-0.6,0.3-1,0.6-1.3,1c-0.3,0.4-0.4,0.8-0.4,1.3c0,0.5,0.1,0.8,0.2,1.2s0.3,0.6,0.6,0.8c0.2,0.2,0.5,0.4,0.9,0.5
			c0.3,0.1,0.7,0.1,1,0.1c0.5,0,1-0.1,1.4-0.2c0.4-0.1,0.8-0.3,1.2-0.5c0.4-0.2,0.7-0.4,1-0.7c0.3-0.3,0.6-0.6,1-0.9V289.1z"/>
		<path class="st2" d="M289.3,277.6c0,0.2,0,0.3-0.1,0.5s-0.2,0.3-0.3,0.4c-0.1,0.1-0.2,0.2-0.4,0.3c-0.1,0.1-0.3,0.1-0.5,0.1
			s-0.3,0-0.5-0.1c-0.1-0.1-0.3-0.1-0.4-0.3c-0.1-0.1-0.2-0.2-0.3-0.4s-0.1-0.3-0.1-0.5c0-0.2,0-0.3,0.1-0.5
			c0.1-0.1,0.1-0.3,0.3-0.4c0.1-0.1,0.2-0.2,0.4-0.3c0.1-0.1,0.3-0.1,0.5-0.1s0.3,0,0.5,0.1c0.1,0.1,0.3,0.1,0.4,0.3
			c0.1,0.1,0.2,0.2,0.3,0.4C289.2,277.3,289.3,277.4,289.3,277.6z M288.7,282.2v13.4h-1.3v-13.4H288.7z"/>
		<path class="st2" d="M294.5,285.5c0.2-0.5,0.4-1,0.7-1.5c0.3-0.4,0.6-0.8,0.9-1.1c0.3-0.3,0.7-0.5,1.2-0.7
			c0.4-0.2,0.9-0.2,1.4-0.2c0.3,0,0.6,0,0.8,0.1c0.3,0,0.5,0.1,0.7,0.3l-0.1,0.9c0,0.1-0.1,0.2-0.3,0.2c-0.1,0-0.3,0-0.5-0.1
			c-0.2-0.1-0.5-0.1-0.9-0.1c-0.5,0-1,0.1-1.4,0.2s-0.8,0.4-1.1,0.7c-0.3,0.3-0.6,0.7-0.8,1.2c-0.2,0.5-0.5,1-0.7,1.6v8.7h-1.3
			v-13.4h0.7c0.2,0,0.3,0,0.3,0.1s0.1,0.2,0.1,0.3L294.5,285.5z"/>
		<path class="st2" d="M311.1,284c0,0-0.1,0.1-0.1,0.1c0,0-0.1,0-0.2,0c-0.1,0-0.2-0.1-0.4-0.2c-0.2-0.1-0.4-0.3-0.6-0.4
			c-0.3-0.1-0.6-0.3-1-0.4c-0.4-0.1-0.9-0.2-1.4-0.2c-0.8,0-1.5,0.1-2.1,0.4c-0.6,0.3-1.1,0.7-1.5,1.2s-0.7,1.1-0.9,1.9
			c-0.2,0.7-0.3,1.5-0.3,2.5c0,0.9,0.1,1.8,0.3,2.5c0.2,0.7,0.5,1.3,0.9,1.8c0.4,0.5,0.9,0.9,1.5,1.1c0.6,0.3,1.2,0.4,1.9,0.4
			c0.6,0,1.2-0.1,1.6-0.2s0.8-0.3,1.1-0.5c0.3-0.2,0.5-0.3,0.7-0.5c0.2-0.2,0.3-0.2,0.4-0.2s0.2,0,0.3,0.1l0.3,0.4
			c-0.2,0.3-0.5,0.5-0.8,0.8c-0.3,0.2-0.7,0.4-1.1,0.6s-0.8,0.3-1.3,0.4c-0.5,0.1-0.9,0.1-1.5,0.1c-0.9,0-1.6-0.2-2.3-0.5
			s-1.3-0.8-1.8-1.4c-0.5-0.6-0.9-1.3-1.2-2.2c-0.3-0.9-0.4-1.8-0.4-2.9c0-1,0.1-2,0.4-2.8c0.3-0.8,0.7-1.6,1.2-2.2s1.2-1.1,1.9-1.4
			c0.8-0.3,1.6-0.5,2.6-0.5c0.9,0,1.6,0.1,2.3,0.4c0.7,0.3,1.3,0.7,1.8,1.1L311.1,284z"/>
		<path class="st2" d="M316,285.5c0.2-0.5,0.4-1,0.7-1.5c0.3-0.4,0.6-0.8,0.9-1.1c0.3-0.3,0.7-0.5,1.2-0.7c0.4-0.2,0.9-0.2,1.4-0.2
			c0.3,0,0.6,0,0.8,0.1c0.3,0,0.5,0.1,0.7,0.3l-0.1,0.9c0,0.1-0.1,0.2-0.3,0.2c-0.1,0-0.3,0-0.5-0.1c-0.2-0.1-0.5-0.1-0.9-0.1
			c-0.5,0-1,0.1-1.4,0.2s-0.8,0.4-1.1,0.7c-0.3,0.3-0.6,0.7-0.8,1.2c-0.2,0.5-0.5,1-0.7,1.6v8.7h-1.3v-13.4h0.7c0.2,0,0.3,0,0.3,0.1
			s0.1,0.2,0.1,0.3L316,285.5z"/>
		<path class="st2" d="M323.7,284.1c0.7-0.7,1.4-1.2,2.2-1.6c0.8-0.4,1.7-0.5,2.6-0.5c0.7,0,1.4,0.1,1.9,0.3c0.5,0.2,1,0.6,1.3,1
			s0.6,0.9,0.8,1.6c0.2,0.6,0.3,1.3,0.3,2v8.7h-0.5c-0.3,0-0.4-0.1-0.5-0.4l-0.2-1.7c-0.4,0.4-0.7,0.7-1.1,1
			c-0.4,0.3-0.7,0.5-1.1,0.7c-0.4,0.2-0.8,0.4-1.3,0.5c-0.5,0.1-1,0.2-1.5,0.2c-0.5,0-0.9-0.1-1.3-0.2s-0.8-0.3-1.2-0.6
			s-0.6-0.6-0.8-1.1s-0.3-1-0.3-1.6c0-0.6,0.2-1.1,0.5-1.6c0.3-0.5,0.8-0.9,1.5-1.3c0.7-0.4,1.6-0.6,2.7-0.9s2.4-0.3,3.9-0.4v-1.4
			c0-1.2-0.3-2.2-0.8-2.9c-0.5-0.7-1.3-1-2.4-1c-0.6,0-1.2,0.1-1.7,0.3c-0.5,0.2-0.8,0.4-1.2,0.6s-0.6,0.4-0.8,0.6
			c-0.2,0.2-0.4,0.3-0.5,0.3c-0.1,0-0.2,0-0.2-0.1s-0.1-0.1-0.2-0.2L323.7,284.1z M331.6,289.1c-1.3,0-2.4,0.1-3.3,0.3
			s-1.7,0.4-2.3,0.6c-0.6,0.3-1,0.6-1.3,1c-0.3,0.4-0.4,0.8-0.4,1.3c0,0.5,0.1,0.8,0.2,1.2s0.3,0.6,0.6,0.8c0.2,0.2,0.5,0.4,0.9,0.5
			c0.3,0.1,0.7,0.1,1,0.1c0.5,0,1-0.1,1.4-0.2c0.4-0.1,0.8-0.3,1.2-0.5c0.4-0.2,0.7-0.4,1-0.7c0.3-0.3,0.6-0.6,1-0.9V289.1z"/>
		<path class="st2" d="M347.5,283.6v9.1c0,0.4,0,0.7,0.1,1c0.1,0.3,0.2,0.5,0.4,0.7c0.2,0.2,0.4,0.3,0.6,0.4
			c0.2,0.1,0.5,0.1,0.7,0.1c0.3,0,0.6,0,0.8-0.1c0.2-0.1,0.4-0.2,0.6-0.3s0.3-0.2,0.4-0.3s0.2-0.1,0.3-0.1c0.1,0,0.1,0,0.2,0.1
			l0.4,0.6c-0.3,0.4-0.8,0.7-1.3,0.9c-0.5,0.2-1.1,0.3-1.6,0.3c-0.9,0-1.6-0.3-2.1-0.8c-0.5-0.5-0.8-1.3-0.8-2.3v-9.2h-7.2v12.1
			h-1.3v-12l-1.9-0.1c-0.3,0-0.4-0.1-0.4-0.3v-0.5h2.3v-1.7c0-0.8,0.1-1.4,0.3-2c0.2-0.6,0.5-1.1,0.8-1.5s0.8-0.7,1.3-0.9
			c0.5-0.2,1.1-0.3,1.7-0.3c0.3,0,0.6,0,0.8,0.1c0.3,0,0.5,0.1,0.8,0.2l0,0.6c0,0.1-0.1,0.1-0.1,0.2c-0.1,0-0.1,0-0.2,0
			c-0.1,0-0.2,0-0.4,0s-0.4,0-0.6,0c-0.4,0-0.8,0.1-1.2,0.2c-0.4,0.1-0.7,0.3-1,0.6s-0.5,0.7-0.6,1.1c-0.1,0.5-0.2,1-0.2,1.7v1.7
			h7.2l0.3-4.8c0-0.1,0.1-0.2,0.1-0.2c0.1-0.1,0.1-0.1,0.2-0.1h0.6v5.1h4.3v1H347.5z"/>
		<path class="st2" d="M362.5,288.4v0.3c0,1,0.1,1.9,0.4,2.7c0.2,0.8,0.6,1.4,1,1.9c0.4,0.5,1,0.9,1.6,1.2c0.6,0.3,1.3,0.4,2.1,0.4
			c0.7,0,1.3-0.1,1.8-0.2s0.9-0.3,1.2-0.5s0.6-0.4,0.8-0.5c0.2-0.1,0.3-0.2,0.4-0.2c0.1,0,0.2,0,0.3,0.1l0.4,0.4
			c-0.2,0.3-0.5,0.5-0.9,0.8c-0.4,0.2-0.8,0.4-1.2,0.6c-0.4,0.2-0.9,0.3-1.4,0.4c-0.5,0.1-1,0.1-1.5,0.1c-0.9,0-1.8-0.2-2.5-0.5
			s-1.4-0.8-1.9-1.4c-0.5-0.6-1-1.4-1.2-2.2c-0.3-0.9-0.4-1.9-0.4-3c0-1,0.1-1.9,0.4-2.7c0.3-0.8,0.7-1.5,1.2-2.1
			c0.5-0.6,1.2-1.1,1.9-1.4c0.8-0.3,1.6-0.5,2.6-0.5c0.8,0,1.5,0.1,2.1,0.4c0.6,0.3,1.2,0.6,1.7,1.1c0.5,0.5,0.9,1.1,1.1,1.8
			c0.3,0.7,0.4,1.6,0.4,2.5c0,0.2,0,0.3-0.1,0.4c-0.1,0.1-0.1,0.1-0.3,0.1H362.5z M371.5,287.6c0-0.7-0.1-1.4-0.3-1.9
			c-0.2-0.6-0.5-1.1-0.9-1.5c-0.4-0.4-0.8-0.7-1.3-0.9c-0.5-0.2-1.1-0.3-1.7-0.3c-0.7,0-1.3,0.1-1.9,0.3s-1,0.5-1.4,0.9
			s-0.7,0.9-1,1.5c-0.2,0.6-0.4,1.2-0.5,1.9H371.5z"/>
		<path class="st2" d="M386.7,282.2l-5.7,13.4h-1.1l-5.7-13.4h1c0.1,0,0.2,0,0.3,0.1s0.1,0.1,0.2,0.2l4.4,10.6
			c0.1,0.4,0.2,0.8,0.3,1.2c0.1-0.4,0.2-0.8,0.3-1.2l4.5-10.6c0-0.1,0.1-0.2,0.2-0.2c0.1-0.1,0.2-0.1,0.3-0.1H386.7z"/>
		<path class="st2" d="M389.6,288.4v0.3c0,1,0.1,1.9,0.4,2.7c0.2,0.8,0.6,1.4,1,1.9c0.4,0.5,1,0.9,1.6,1.2c0.6,0.3,1.3,0.4,2.1,0.4
			c0.7,0,1.3-0.1,1.8-0.2c0.5-0.1,0.9-0.3,1.2-0.5c0.3-0.2,0.6-0.4,0.8-0.5c0.2-0.1,0.3-0.2,0.4-0.2c0.1,0,0.2,0,0.3,0.1l0.4,0.4
			c-0.2,0.3-0.5,0.5-0.9,0.8c-0.4,0.2-0.8,0.4-1.2,0.6c-0.4,0.2-0.9,0.3-1.4,0.4c-0.5,0.1-1,0.1-1.5,0.1c-0.9,0-1.8-0.2-2.5-0.5
			c-0.8-0.3-1.4-0.8-1.9-1.4c-0.5-0.6-1-1.4-1.2-2.2c-0.3-0.9-0.4-1.9-0.4-3c0-1,0.1-1.9,0.4-2.7c0.3-0.8,0.7-1.5,1.2-2.1
			c0.5-0.6,1.2-1.1,1.9-1.4c0.8-0.3,1.6-0.5,2.6-0.5c0.8,0,1.5,0.1,2.1,0.4s1.2,0.6,1.7,1.1c0.5,0.5,0.9,1.1,1.1,1.8
			c0.3,0.7,0.4,1.6,0.4,2.5c0,0.2,0,0.3-0.1,0.4c-0.1,0.1-0.1,0.1-0.3,0.1H389.6z M398.5,287.6c0-0.7-0.1-1.4-0.3-1.9
			c-0.2-0.6-0.5-1.1-0.9-1.5c-0.4-0.4-0.8-0.7-1.3-0.9c-0.5-0.2-1.1-0.3-1.7-0.3c-0.7,0-1.3,0.1-1.9,0.3c-0.5,0.2-1,0.5-1.4,0.9
			c-0.4,0.4-0.7,0.9-1,1.5c-0.2,0.6-0.4,1.2-0.5,1.9H398.5z"/>
		<path class="st2" d="M404.4,284.6c0.6-0.8,1.3-1.4,2.2-1.9s1.7-0.7,2.7-0.7c0.7,0,1.4,0.1,2,0.4c0.6,0.2,1,0.6,1.4,1
			c0.4,0.4,0.6,1,0.8,1.6s0.3,1.3,0.3,2.1v8.6h-1.3v-8.6c0-1.3-0.3-2.2-0.9-3c-0.6-0.7-1.5-1.1-2.6-1.1c-0.9,0-1.7,0.2-2.5,0.7
			c-0.8,0.4-1.4,1.1-2,1.9v10.1h-1.3v-13.4h0.7c0.2,0,0.4,0.1,0.4,0.3L404.4,284.6z"/>
		<path class="st2" d="M427.3,277.6c0,0.2,0,0.3-0.1,0.5s-0.2,0.3-0.3,0.4c-0.1,0.1-0.2,0.2-0.4,0.3c-0.1,0.1-0.3,0.1-0.5,0.1
			s-0.3,0-0.5-0.1c-0.1-0.1-0.3-0.1-0.4-0.3c-0.1-0.1-0.2-0.2-0.3-0.4c-0.1-0.1-0.1-0.3-0.1-0.5c0-0.2,0-0.3,0.1-0.5
			c0.1-0.1,0.1-0.3,0.3-0.4c0.1-0.1,0.2-0.2,0.4-0.3c0.1-0.1,0.3-0.1,0.5-0.1s0.3,0,0.5,0.1c0.1,0.1,0.3,0.1,0.4,0.3
			c0.1,0.1,0.2,0.2,0.3,0.4C427.3,277.3,427.3,277.4,427.3,277.6z M426.8,282.2v13.4h-1.3v-13.4H426.8z"/>
		<path class="st2" d="M432.6,284.6c0.6-0.8,1.3-1.4,2.2-1.9s1.7-0.7,2.7-0.7c0.7,0,1.4,0.1,2,0.4c0.6,0.2,1,0.6,1.4,1
			c0.4,0.4,0.6,1,0.8,1.6s0.3,1.3,0.3,2.1v8.6h-1.3v-8.6c0-1.3-0.3-2.2-0.9-3c-0.6-0.7-1.5-1.1-2.6-1.1c-0.9,0-1.7,0.2-2.5,0.7
			c-0.8,0.4-1.4,1.1-2,1.9v10.1h-1.3v-13.4h0.7c0.2,0,0.4,0.1,0.4,0.3L432.6,284.6z"/>
	</g>
	<g class="st1">
		<path class="st2" d="M200.9,316.3c0.5-0.5,1.2-1,1.8-1.3s1.4-0.5,2.2-0.5c0.8,0,1.5,0.2,2.2,0.5s1.2,0.8,1.6,1.4s0.8,1.3,1.1,2.2
			s0.4,1.8,0.4,2.8c0,1.1-0.1,2.1-0.4,3.1c-0.3,0.9-0.7,1.7-1.2,2.4c-0.5,0.7-1.1,1.2-1.9,1.5c-0.7,0.4-1.5,0.5-2.4,0.5
			c-0.4,0-0.8,0-1.2-0.1c-0.3-0.1-0.7-0.2-0.9-0.4c-0.3-0.2-0.6-0.3-0.8-0.5c-0.2-0.2-0.5-0.4-0.7-0.7l-0.1,0.8
			c-0.1,0.3-0.2,0.4-0.3,0.5s-0.3,0.2-0.6,0.2h-2.5v-20.1h3.7V316.3z M200.9,325c0.4,0.4,0.7,0.7,1.1,0.9c0.4,0.2,0.8,0.2,1.3,0.2
			c0.5,0,0.9-0.1,1.2-0.2s0.7-0.4,1-0.8c0.3-0.4,0.5-0.8,0.6-1.4c0.1-0.6,0.2-1.3,0.2-2.1c0-0.7-0.1-1.4-0.2-1.9
			c-0.1-0.5-0.3-0.9-0.5-1.3s-0.5-0.6-0.8-0.7c-0.3-0.2-0.7-0.2-1.2-0.2c-0.6,0-1.1,0.1-1.5,0.4c-0.4,0.3-0.8,0.6-1.2,1.1V325z"/>
		<path class="st2" d="M216.3,308.5v20.1h-3.7v-20.1H216.3z"/>
		<path class="st2" d="M223.7,310.8c0,0.3-0.1,0.6-0.2,0.9c-0.1,0.3-0.3,0.5-0.5,0.7s-0.5,0.4-0.7,0.5c-0.3,0.1-0.6,0.2-0.9,0.2
			c-0.3,0-0.6-0.1-0.9-0.2s-0.5-0.3-0.7-0.5s-0.4-0.4-0.5-0.7c-0.1-0.3-0.2-0.6-0.2-0.9c0-0.3,0.1-0.6,0.2-0.9s0.3-0.5,0.5-0.7
			s0.4-0.4,0.7-0.5c0.3-0.1,0.6-0.2,0.9-0.2c0.3,0,0.6,0.1,0.9,0.2c0.3,0.1,0.5,0.3,0.7,0.5s0.4,0.4,0.5,0.7
			S223.7,310.5,223.7,310.8z M223.2,314.7v13.9h-3.7v-13.9H223.2z"/>
		<path class="st2" d="M229.9,316.3c0.3-0.3,0.6-0.5,0.9-0.7c0.3-0.2,0.6-0.4,1-0.6c0.3-0.2,0.7-0.3,1.1-0.4
			c0.4-0.1,0.8-0.1,1.3-0.1c0.8,0,1.4,0.1,2,0.4c0.6,0.3,1.1,0.6,1.5,1.1s0.7,1,0.9,1.7c0.2,0.6,0.3,1.4,0.3,2.1v8.8h-3.7v-8.8
			c0-0.8-0.2-1.4-0.5-1.8c-0.4-0.4-0.9-0.6-1.6-0.6c-0.5,0-1,0.1-1.5,0.3c-0.5,0.2-0.9,0.5-1.3,0.9v10h-3.7v-13.9h2.3
			c0.5,0,0.8,0.2,0.9,0.6L229.9,316.3z"/>
		<path class="st2" d="M254.1,308.5v20.1h-2.3c-0.5,0-0.8-0.2-0.9-0.6l-0.3-1.2c-0.3,0.3-0.6,0.6-0.9,0.8c-0.3,0.3-0.6,0.5-1,0.7
			c-0.4,0.2-0.7,0.3-1.2,0.4c-0.4,0.1-0.9,0.1-1.4,0.1c-0.7,0-1.4-0.2-2.1-0.5c-0.6-0.3-1.2-0.8-1.6-1.4c-0.5-0.6-0.8-1.4-1.1-2.2
			s-0.4-1.9-0.4-3c0-1,0.1-2,0.4-2.9c0.3-0.9,0.7-1.7,1.2-2.3c0.5-0.6,1.2-1.2,1.9-1.5s1.6-0.6,2.5-0.6c0.8,0,1.4,0.1,1.9,0.3
			c0.5,0.2,1,0.5,1.4,0.9v-7.2H254.1z M250.3,318.3c-0.4-0.4-0.7-0.7-1.1-0.9s-0.8-0.2-1.3-0.2c-0.5,0-0.9,0.1-1.2,0.3
			s-0.7,0.4-1,0.8c-0.3,0.4-0.5,0.8-0.6,1.4c-0.1,0.6-0.2,1.2-0.2,2c0,0.8,0.1,1.4,0.2,2c0.1,0.5,0.3,1,0.5,1.3s0.5,0.6,0.8,0.7
			s0.7,0.2,1.1,0.2c0.7,0,1.2-0.1,1.7-0.4c0.4-0.3,0.9-0.6,1.3-1.1V318.3z"/>
		<path class="st2" d="M261.4,310.8c0,0.3-0.1,0.6-0.2,0.9c-0.1,0.3-0.3,0.5-0.5,0.7s-0.5,0.4-0.7,0.5c-0.3,0.1-0.6,0.2-0.9,0.2
			c-0.3,0-0.6-0.1-0.9-0.2s-0.5-0.3-0.7-0.5s-0.4-0.4-0.5-0.7c-0.1-0.3-0.2-0.6-0.2-0.9c0-0.3,0.1-0.6,0.2-0.9s0.3-0.5,0.5-0.7
			s0.4-0.4,0.7-0.5c0.3-0.1,0.6-0.2,0.9-0.2c0.3,0,0.6,0.1,0.9,0.2c0.3,0.1,0.5,0.3,0.7,0.5s0.4,0.4,0.5,0.7
			S261.4,310.5,261.4,310.8z M261,314.7v13.9h-3.7v-13.9H261z"/>
		<path class="st2" d="M267.6,316.3c0.3-0.3,0.6-0.5,0.9-0.7c0.3-0.2,0.6-0.4,1-0.6c0.3-0.2,0.7-0.3,1.1-0.4
			c0.4-0.1,0.8-0.1,1.3-0.1c0.8,0,1.4,0.1,2,0.4c0.6,0.3,1.1,0.6,1.5,1.1s0.7,1,0.9,1.7c0.2,0.6,0.3,1.4,0.3,2.1v8.8h-3.7v-8.8
			c0-0.8-0.2-1.4-0.5-1.8c-0.4-0.4-0.9-0.6-1.6-0.6c-0.5,0-1,0.1-1.5,0.3c-0.5,0.2-0.9,0.5-1.3,0.9v10h-3.7v-13.9h2.3
			c0.5,0,0.8,0.2,0.9,0.6L267.6,316.3z"/>
		<path class="st2" d="M291.9,315.2v1.4c0,0.2-0.1,0.4-0.2,0.5s-0.3,0.2-0.6,0.3l-1.1,0.2c0.2,0.4,0.2,0.9,0.2,1.4
			c0,0.7-0.1,1.3-0.4,1.9c-0.3,0.6-0.7,1-1.2,1.4c-0.5,0.4-1.1,0.7-1.8,0.9c-0.7,0.2-1.4,0.3-2.2,0.3c-0.5,0-1,0-1.4-0.1
			c-0.4,0.2-0.6,0.5-0.6,0.8c0,0.3,0.1,0.5,0.4,0.6c0.3,0.1,0.6,0.2,1,0.2s0.9,0.1,1.4,0.1c0.5,0,1.1,0,1.6,0.1
			c0.6,0,1.1,0.1,1.6,0.2c0.5,0.1,1,0.3,1.4,0.6c0.4,0.3,0.8,0.6,1,1s0.4,1,0.4,1.6c0,0.6-0.2,1.2-0.5,1.8c-0.3,0.6-0.7,1.1-1.3,1.6
			s-1.3,0.8-2.1,1.1c-0.8,0.3-1.8,0.4-2.9,0.4c-1.1,0-2-0.1-2.8-0.3c-0.8-0.2-1.4-0.5-2-0.8c-0.5-0.3-0.9-0.7-1.2-1.2
			c-0.3-0.4-0.4-0.9-0.4-1.4c0-0.6,0.2-1.1,0.6-1.6s0.9-0.8,1.6-1c-0.4-0.2-0.6-0.5-0.8-0.8s-0.3-0.7-0.3-1.2c0-0.4,0.2-0.9,0.5-1.3
			c0.3-0.5,0.8-0.8,1.4-1.1c-0.7-0.4-1.3-0.9-1.7-1.5s-0.6-1.4-0.6-2.2c0-0.7,0.1-1.3,0.4-1.9c0.3-0.6,0.7-1,1.2-1.4
			s1.1-0.7,1.8-0.9c0.7-0.2,1.4-0.3,2.2-0.3c1.2,0,2.2,0.2,3.1,0.7H291.9z M288.2,329.2c0-0.2-0.1-0.4-0.2-0.6
			c-0.2-0.2-0.4-0.3-0.6-0.4s-0.6-0.2-0.9-0.2c-0.4,0-0.7-0.1-1.1-0.1s-0.8,0-1.2-0.1c-0.4,0-0.8,0-1.2-0.1
			c-0.3,0.2-0.6,0.4-0.8,0.7c-0.2,0.3-0.3,0.5-0.3,0.9c0,0.2,0.1,0.4,0.2,0.6c0.1,0.2,0.3,0.4,0.5,0.5c0.2,0.1,0.6,0.2,1,0.3
			c0.4,0.1,0.9,0.1,1.5,0.1c0.6,0,1.1,0,1.6-0.1c0.4-0.1,0.8-0.2,1-0.3c0.3-0.1,0.4-0.3,0.6-0.5S288.2,329.5,288.2,329.2z
			 M284.7,321.2c0.8,0,1.3-0.2,1.7-0.6c0.4-0.4,0.5-0.9,0.5-1.5c0-0.6-0.2-1.1-0.5-1.5c-0.4-0.4-0.9-0.5-1.7-0.5
			c-0.8,0-1.3,0.2-1.7,0.5c-0.4,0.4-0.5,0.9-0.5,1.5c0,0.6,0.2,1.1,0.5,1.5C283.4,321,283.9,321.2,284.7,321.2z"/>
		<path class="st2" d="M310.3,317.8c-0.1,0.1-0.2,0.3-0.3,0.3c-0.1,0.1-0.3,0.1-0.5,0.1c-0.2,0-0.4-0.1-0.5-0.2
			c-0.2-0.1-0.4-0.2-0.6-0.3c-0.2-0.1-0.5-0.2-0.8-0.3c-0.3-0.1-0.7-0.2-1.1-0.2c-0.6,0-1,0.1-1.5,0.3s-0.7,0.5-1,0.9
			s-0.5,0.8-0.6,1.4c-0.1,0.5-0.2,1.1-0.2,1.8c0,1.4,0.3,2.5,0.9,3.3c0.6,0.8,1.4,1.1,2.3,1.1c0.3,0,0.6,0,0.9-0.1s0.5-0.1,0.6-0.2
			s0.3-0.2,0.5-0.3c0.1-0.1,0.3-0.2,0.4-0.3c0.1-0.1,0.2-0.2,0.4-0.2s0.3-0.1,0.4-0.1c0.3,0,0.5,0.1,0.7,0.3l1.1,1.4
			c-0.4,0.5-0.8,0.8-1.3,1.1s-0.9,0.5-1.4,0.7c-0.5,0.2-1,0.3-1.5,0.4c-0.5,0.1-1,0.1-1.5,0.1c-0.9,0-1.7-0.2-2.4-0.5
			c-0.8-0.3-1.4-0.8-2-1.4c-0.6-0.6-1-1.4-1.4-2.3c-0.3-0.9-0.5-1.9-0.5-3.1c0-1,0.1-2,0.4-2.8c0.3-0.9,0.7-1.6,1.3-2.3
			c0.6-0.6,1.3-1.1,2.1-1.5c0.9-0.4,1.8-0.5,2.9-0.5c1.1,0,2,0.2,2.8,0.5c0.8,0.3,1.5,0.8,2.2,1.5L310.3,317.8z"/>
		<path class="st2" d="M319.3,314.5c1,0,2,0.2,2.8,0.5s1.6,0.8,2.2,1.4c0.6,0.6,1.1,1.4,1.4,2.2c0.3,0.9,0.5,1.9,0.5,3
			s-0.2,2.1-0.5,3c-0.3,0.9-0.8,1.6-1.4,2.3c-0.6,0.6-1.3,1.1-2.2,1.4s-1.8,0.5-2.8,0.5c-1.1,0-2-0.2-2.9-0.5s-1.6-0.8-2.2-1.4
			c-0.6-0.6-1.1-1.4-1.4-2.3c-0.3-0.9-0.5-1.9-0.5-3s0.2-2.1,0.5-3c0.3-0.9,0.8-1.6,1.4-2.2c0.6-0.6,1.3-1.1,2.2-1.4
			S318.3,314.5,319.3,314.5z M319.3,326.1c1.1,0,1.8-0.4,2.4-1.1c0.5-0.7,0.8-1.8,0.8-3.3c0-1.4-0.3-2.5-0.8-3.3
			c-0.5-0.7-1.3-1.1-2.4-1.1c-1.1,0-1.9,0.4-2.4,1.1c-0.5,0.7-0.8,1.8-0.8,3.3c0,1.4,0.3,2.5,0.8,3.3
			C317.5,325.7,318.3,326.1,319.3,326.1z"/>
		<path class="st2" d="M338.8,317.8c-0.1,0.1-0.2,0.3-0.3,0.3c-0.1,0.1-0.3,0.1-0.5,0.1c-0.2,0-0.4-0.1-0.5-0.2
			c-0.2-0.1-0.4-0.2-0.6-0.3c-0.2-0.1-0.5-0.2-0.8-0.3c-0.3-0.1-0.7-0.2-1.1-0.2c-0.6,0-1,0.1-1.5,0.3s-0.7,0.5-1,0.9
			s-0.5,0.8-0.6,1.4c-0.1,0.5-0.2,1.1-0.2,1.8c0,1.4,0.3,2.5,0.9,3.3c0.6,0.8,1.4,1.1,2.3,1.1c0.3,0,0.6,0,0.9-0.1s0.5-0.1,0.6-0.2
			s0.3-0.2,0.5-0.3c0.1-0.1,0.3-0.2,0.4-0.3c0.1-0.1,0.2-0.2,0.4-0.2s0.3-0.1,0.4-0.1c0.3,0,0.5,0.1,0.7,0.3l1.1,1.4
			c-0.4,0.5-0.8,0.8-1.3,1.1s-0.9,0.5-1.4,0.7c-0.5,0.2-1,0.3-1.5,0.4c-0.5,0.1-1,0.1-1.5,0.1c-0.9,0-1.7-0.2-2.4-0.5
			c-0.8-0.3-1.4-0.8-2-1.4c-0.6-0.6-1-1.4-1.4-2.3c-0.3-0.9-0.5-1.9-0.5-3.1c0-1,0.1-2,0.4-2.8c0.3-0.9,0.7-1.6,1.3-2.3
			c0.6-0.6,1.3-1.1,2.1-1.5c0.9-0.4,1.8-0.5,2.9-0.5c1.1,0,2,0.2,2.8,0.5c0.8,0.3,1.5,0.8,2.2,1.5L338.8,317.8z"/>
		<path class="st2" d="M345.5,308.5v11.4h0.6c0.2,0,0.4,0,0.6-0.1c0.1-0.1,0.3-0.2,0.4-0.4l3.1-4.1c0.2-0.2,0.3-0.4,0.5-0.5
			c0.2-0.1,0.4-0.2,0.7-0.2h3.4l-4,5.1c-0.3,0.4-0.7,0.8-1.1,1c0.2,0.1,0.4,0.3,0.5,0.5c0.2,0.2,0.3,0.4,0.4,0.6l4.3,6.7h-3.3
			c-0.3,0-0.5,0-0.7-0.1s-0.4-0.3-0.5-0.5l-3.1-5.1c-0.1-0.2-0.3-0.4-0.4-0.4c-0.1-0.1-0.3-0.1-0.6-0.1h-0.8v6.3h-3.7v-20.1H345.5z"
			/>
		<path class="st2" d="M360,316.5c0.3-0.3,0.6-0.6,0.9-0.8c0.3-0.3,0.7-0.5,1-0.7c0.4-0.2,0.7-0.3,1.2-0.4s0.9-0.2,1.4-0.2
			c0.7,0,1.4,0.2,2.1,0.5c0.6,0.3,1.2,0.8,1.6,1.4c0.4,0.6,0.8,1.4,1.1,2.2c0.3,0.9,0.4,1.9,0.4,3c0,1-0.1,2-0.4,2.9
			c-0.3,0.9-0.7,1.7-1.2,2.3c-0.5,0.6-1.1,1.2-1.9,1.5c-0.7,0.4-1.6,0.5-2.5,0.5c-0.8,0-1.4-0.1-1.9-0.3s-1-0.5-1.4-0.9v5.5h-3.7
			v-18.4h2.3c0.5,0,0.8,0.2,0.9,0.6L360,316.5z M360.2,325c0.4,0.4,0.7,0.7,1.1,0.9s0.8,0.2,1.3,0.2c0.5,0,0.9-0.1,1.2-0.3
			s0.7-0.4,1-0.8c0.3-0.4,0.5-0.8,0.6-1.4c0.1-0.6,0.2-1.2,0.2-2c0-0.8-0.1-1.4-0.2-2c-0.1-0.5-0.3-1-0.5-1.3s-0.5-0.6-0.8-0.7
			c-0.3-0.1-0.7-0.2-1.1-0.2c-0.7,0-1.2,0.1-1.7,0.4c-0.4,0.3-0.9,0.6-1.3,1.1V325z"/>
		<path class="st2" d="M376.2,310.8c0,0.3-0.1,0.6-0.2,0.9c-0.1,0.3-0.3,0.5-0.5,0.7s-0.5,0.4-0.7,0.5s-0.6,0.2-0.9,0.2
			c-0.3,0-0.6-0.1-0.9-0.2s-0.5-0.3-0.7-0.5s-0.4-0.4-0.5-0.7c-0.1-0.3-0.2-0.6-0.2-0.9c0-0.3,0.1-0.6,0.2-0.9s0.3-0.5,0.5-0.7
			s0.4-0.4,0.7-0.5c0.3-0.1,0.6-0.2,0.9-0.2c0.3,0,0.6,0.1,0.9,0.2c0.3,0.1,0.5,0.3,0.7,0.5s0.4,0.4,0.5,0.7
			C376.1,310.2,376.2,310.5,376.2,310.8z M375.7,314.7v13.9H372v-13.9H375.7z"/>
		<path class="st2" d="M383.7,328.9c-0.6,0-1.2-0.1-1.7-0.3c-0.5-0.2-0.9-0.4-1.2-0.8s-0.6-0.8-0.8-1.2c-0.2-0.5-0.3-1-0.3-1.6v-7.5
			h-1.3c-0.2,0-0.4-0.1-0.5-0.2s-0.2-0.3-0.2-0.6v-1.5l2.2-0.4l0.8-3.6c0.1-0.4,0.4-0.6,0.8-0.6h1.9v4.2h3.6v2.6h-3.6v7.3
			c0,0.4,0.1,0.7,0.3,0.9s0.4,0.3,0.8,0.3c0.2,0,0.3,0,0.5-0.1c0.1,0,0.2-0.1,0.3-0.1c0.1,0,0.2-0.1,0.2-0.1c0.1,0,0.2-0.1,0.2-0.1
			c0.1,0,0.2,0,0.3,0.1c0.1,0,0.1,0.1,0.2,0.2l1.1,1.8c-0.5,0.4-1.1,0.7-1.7,0.9S384.4,328.9,383.7,328.9z"/>
		<path class="st2" d="M404.2,317.6c-0.1,0.2-0.2,0.3-0.3,0.3s-0.2,0.1-0.4,0.1c-0.2,0-0.4,0-0.6-0.1c-0.2-0.1-0.4-0.2-0.6-0.3
			s-0.5-0.2-0.8-0.3c-0.3-0.1-0.7-0.1-1-0.1c-0.6,0-1.1,0.1-1.4,0.4c-0.3,0.2-0.5,0.6-0.5,1c0,0.3,0.1,0.5,0.3,0.7
			c0.2,0.2,0.4,0.4,0.8,0.5c0.3,0.1,0.7,0.3,1.1,0.4c0.4,0.1,0.8,0.3,1.2,0.4c0.4,0.1,0.8,0.3,1.2,0.5c0.4,0.2,0.7,0.4,1.1,0.7
			c0.3,0.3,0.6,0.6,0.8,1c0.2,0.4,0.3,0.9,0.3,1.5c0,0.7-0.1,1.3-0.4,1.9c-0.2,0.6-0.6,1.1-1.1,1.5c-0.5,0.4-1.1,0.7-1.8,1
			c-0.7,0.2-1.5,0.4-2.5,0.4c-0.5,0-0.9,0-1.4-0.1c-0.5-0.1-0.9-0.2-1.3-0.4c-0.4-0.2-0.8-0.3-1.2-0.5c-0.4-0.2-0.7-0.4-1-0.7
			l0.9-1.4c0.1-0.2,0.2-0.3,0.4-0.4s0.3-0.1,0.6-0.1c0.2,0,0.4,0.1,0.6,0.2s0.4,0.2,0.6,0.4c0.2,0.1,0.5,0.3,0.8,0.4
			s0.7,0.2,1.2,0.2c0.4,0,0.7,0,0.9-0.1c0.3-0.1,0.5-0.2,0.6-0.3c0.2-0.1,0.3-0.3,0.4-0.5c0.1-0.2,0.1-0.4,0.1-0.5
			c0-0.3-0.1-0.6-0.3-0.8c-0.2-0.2-0.4-0.4-0.8-0.5c-0.3-0.1-0.7-0.3-1.1-0.4c-0.4-0.1-0.8-0.2-1.2-0.4c-0.4-0.1-0.8-0.3-1.2-0.5
			s-0.8-0.4-1.1-0.7s-0.6-0.7-0.8-1.1c-0.2-0.4-0.3-1-0.3-1.6c0-0.6,0.1-1.1,0.3-1.6s0.6-1,1-1.4c0.5-0.4,1-0.7,1.7-0.9
			c0.7-0.2,1.4-0.4,2.3-0.4c1,0,1.9,0.2,2.7,0.5s1.5,0.7,2,1.3L404.2,317.6z"/>
		<path class="st2" d="M407.4,328.6v-13.9h2.3c0.5,0,0.8,0.2,0.9,0.6l0.2,0.9c0.2-0.3,0.5-0.5,0.8-0.7c0.3-0.2,0.5-0.4,0.8-0.6
			s0.6-0.3,1-0.4c0.3-0.1,0.7-0.1,1.1-0.1c0.9,0,1.6,0.2,2.1,0.7c0.6,0.5,1,1.1,1.3,1.8c0.2-0.4,0.5-0.8,0.8-1.1s0.7-0.6,1.1-0.8
			s0.8-0.3,1.2-0.4c0.4-0.1,0.9-0.1,1.3-0.1c0.8,0,1.5,0.1,2.1,0.4c0.6,0.2,1.1,0.6,1.5,1c0.4,0.5,0.7,1,0.9,1.7
			c0.2,0.7,0.3,1.4,0.3,2.2v8.8h-3.7v-8.8c0-1.6-0.7-2.4-2.1-2.4c-0.3,0-0.6,0.1-0.9,0.2s-0.5,0.3-0.7,0.5c-0.2,0.2-0.4,0.5-0.5,0.8
			c-0.1,0.3-0.2,0.7-0.2,1.1v8.8h-3.7v-8.8c0-0.9-0.2-1.5-0.5-1.9c-0.3-0.4-0.9-0.6-1.5-0.6c-0.4,0-0.8,0.1-1.2,0.3
			c-0.4,0.2-0.7,0.5-1.1,0.8v10.1H407.4z"/>
		<path class="st2" d="M436.5,314.5c1,0,2,0.2,2.8,0.5c0.9,0.3,1.6,0.8,2.2,1.4c0.6,0.6,1.1,1.4,1.4,2.2c0.3,0.9,0.5,1.9,0.5,3
			s-0.2,2.1-0.5,3c-0.3,0.9-0.8,1.6-1.4,2.3c-0.6,0.6-1.3,1.1-2.2,1.4c-0.9,0.3-1.8,0.5-2.8,0.5c-1.1,0-2-0.2-2.9-0.5
			s-1.6-0.8-2.2-1.4c-0.6-0.6-1.1-1.4-1.4-2.3c-0.3-0.9-0.5-1.9-0.5-3s0.2-2.1,0.5-3c0.3-0.9,0.8-1.6,1.4-2.2
			c0.6-0.6,1.3-1.1,2.2-1.4S435.4,314.5,436.5,314.5z M436.5,326.1c1.1,0,1.8-0.4,2.4-1.1s0.8-1.8,0.8-3.3c0-1.4-0.3-2.5-0.8-3.3
			c-0.5-0.7-1.3-1.1-2.4-1.1c-1.1,0-1.9,0.4-2.4,1.1c-0.5,0.7-0.8,1.8-0.8,3.3c0,1.4,0.3,2.5,0.8,3.3S435.4,326.1,436.5,326.1z"/>
		<path class="st2" d="M449.5,308.5v11.4h0.6c0.2,0,0.4,0,0.6-0.1c0.1-0.1,0.3-0.2,0.4-0.4l3.1-4.1c0.2-0.2,0.3-0.4,0.5-0.5
			c0.2-0.1,0.4-0.2,0.7-0.2h3.4l-4,5.1c-0.3,0.4-0.7,0.8-1.1,1c0.2,0.1,0.4,0.3,0.5,0.5c0.2,0.2,0.3,0.4,0.4,0.6l4.3,6.7h-3.3
			c-0.3,0-0.5,0-0.7-0.1s-0.4-0.3-0.5-0.5l-3.1-5.1c-0.1-0.2-0.3-0.4-0.4-0.4c-0.1-0.1-0.3-0.1-0.6-0.1h-0.8v6.3h-3.7v-20.1H449.5z"
			/>
		<path class="st2" d="M462.8,322.3c0.1,1.3,0.5,2.3,1.1,2.9c0.6,0.6,1.4,0.9,2.5,0.9c0.5,0,1-0.1,1.3-0.2c0.4-0.1,0.7-0.3,1-0.4
			c0.3-0.1,0.5-0.3,0.8-0.4c0.2-0.1,0.5-0.2,0.7-0.2c0.3,0,0.5,0.1,0.7,0.3l1.1,1.4c-0.4,0.5-0.8,0.8-1.3,1.1
			c-0.5,0.3-1,0.5-1.5,0.7c-0.5,0.2-1,0.3-1.6,0.4c-0.5,0.1-1,0.1-1.5,0.1c-1,0-1.9-0.2-2.7-0.5c-0.8-0.3-1.6-0.8-2.2-1.4
			c-0.6-0.6-1.1-1.4-1.5-2.3c-0.4-0.9-0.5-2-0.5-3.2c0-0.9,0.2-1.8,0.5-2.7s0.8-1.6,1.3-2.2s1.3-1.1,2.1-1.5s1.8-0.5,2.8-0.5
			c0.9,0,1.7,0.1,2.5,0.4c0.8,0.3,1.4,0.7,1.9,1.2s1,1.2,1.3,2c0.3,0.8,0.5,1.7,0.5,2.7c0,0.3,0,0.5,0,0.7c0,0.2-0.1,0.3-0.1,0.4
			c-0.1,0.1-0.1,0.2-0.3,0.2c-0.1,0-0.2,0.1-0.4,0.1H462.8z M468.7,320c0-0.4-0.1-0.8-0.2-1.1c-0.1-0.4-0.3-0.7-0.5-0.9
			c-0.2-0.3-0.5-0.5-0.8-0.6c-0.3-0.2-0.8-0.2-1.2-0.2c-0.9,0-1.6,0.3-2.1,0.8c-0.5,0.5-0.8,1.2-1,2.2H468.7z"/>
		<path class="st2" d="M473.8,326.7c0-0.3,0.1-0.6,0.2-0.8c0.1-0.3,0.3-0.5,0.5-0.7c0.2-0.2,0.4-0.3,0.7-0.5
			c0.3-0.1,0.6-0.2,0.9-0.2c0.3,0,0.6,0.1,0.9,0.2c0.3,0.1,0.5,0.3,0.7,0.5c0.2,0.2,0.4,0.4,0.5,0.7c0.1,0.3,0.2,0.5,0.2,0.8
			c0,0.3-0.1,0.6-0.2,0.8c-0.1,0.3-0.3,0.5-0.5,0.7c-0.2,0.2-0.4,0.3-0.7,0.5c-0.3,0.1-0.6,0.2-0.9,0.2c-0.3,0-0.6-0.1-0.9-0.2
			c-0.3-0.1-0.5-0.3-0.7-0.5c-0.2-0.2-0.4-0.4-0.5-0.7C473.9,327.3,473.8,327,473.8,326.7z"/>
	</g>
</g>
</svg>
