<svg xmlns="http://www.w3.org/2000/svg" xmlns:xlink="http://www.w3.org/1999/xlink" width="326.5" height="68" viewBox="0 0 326.5 68">
  <defs>
    <linearGradient id="linear-gradient" x1="0.914" y1="0.886" x2="0.033" y2="0.083" gradientUnits="objectBoundingBox">
      <stop offset="0" stop-color="#fae594"/>
      <stop offset="1" stop-color="#fdf1bb"/>
    </linearGradient>
    <filter id="Schedule_a_10min_call" x="16" y="14" width="231" height="45" filterUnits="userSpaceOnUse">
      <feOffset dy="3" input="SourceAlpha"/>
      <feGaussianBlur stdDeviation="3" result="blur"/>
      <feFlood flood-color="#fff" flood-opacity="0.475"/>
      <feComposite operator="in" in2="blur"/>
      <feComposite in="SourceGraphic"/>
    </filter>
  </defs>
  <g id="Group_15" data-name="Group 15" transform="translate(-1350 849)">
    <rect id="Rectangle_18" data-name="Rectangle 18" width="325.5" height="66" rx="10" transform="translate(1351 -847)" fill="#272727"/>
    <g id="Group_14" data-name="Group 14" transform="translate(858 -1775)">
      <g id="Rectangle_5" data-name="Rectangle 5" transform="translate(492 926)" stroke="#000" stroke-width="1" fill="url(#linear-gradient)">
        <rect width="325.5" height="66" rx="10" stroke="none"/>
        <rect x="0.5" y="0.5" width="324.5" height="65" rx="9.5" fill="none"/>
      </g>
      <g transform="matrix(1, 0, 0, 1, 492, 926)" filter="url(#Schedule_a_10min_call)">
        <text id="Schedule_a_10min_call-2" data-name="Schedule a 10min call" transform="translate(25 42)" fill="#272727" font-size="22" font-family="Lato-Black, Lato" font-weight="800"><tspan x="0" y="0">Schedule a 10min call</tspan></text>
      </g>
      <path id="Icon_awesome-calendar-check" data-name="Icon awesome-calendar-check" d="M30.656,11.25H.844A.844.844,0,0,1,0,10.406V7.875A3.375,3.375,0,0,1,3.375,4.5H6.75V.844A.844.844,0,0,1,7.594,0h2.813a.844.844,0,0,1,.844.844V4.5h9V.844A.844.844,0,0,1,21.094,0h2.813a.844.844,0,0,1,.844.844V4.5h3.375A3.375,3.375,0,0,1,31.5,7.875v2.531A.844.844,0,0,1,30.656,11.25ZM.844,13.5H30.656a.844.844,0,0,1,.844.844V32.625A3.375,3.375,0,0,1,28.125,36H3.375A3.375,3.375,0,0,1,0,32.625V14.344A.844.844,0,0,1,.844,13.5Zm23.435,6.746-1.981-2a.844.844,0,0,0-1.193,0l-7.456,7.4-3.233-3.259a.844.844,0,0,0-1.193,0l-2,1.981a.844.844,0,0,0,0,1.193l5.808,5.855a.844.844,0,0,0,1.193,0l10.051-9.971a.844.844,0,0,0,0-1.193Z" transform="translate(761 941)"/>
    </g>
  </g>
</svg>
