<svg xmlns="http://www.w3.org/2000/svg" xmlns:xlink="http://www.w3.org/1999/xlink" width="216.386" height="49.969" viewBox="0 0 216.386 49.969">
  <defs>
    <linearGradient id="linear-gradient" x1="0.134" y1="1" x2="0.957" y2="1" gradientUnits="objectBoundingBox">
      <stop offset="0" stop-color="#fae594"/>
      <stop offset="1" stop-color="#fdf1bb"/>
    </linearGradient>
    <linearGradient id="linear-gradient-2" x1="0.012" y1="0.5" x2="0.984" y2="0.5" xlink:href="#linear-gradient"/>
    <linearGradient id="linear-gradient-3" x1="0" y1="0.4" x2="0.955" y2="0.465" xlink:href="#linear-gradient"/>
    <linearGradient id="linear-gradient-4" y1="0.574" x2="0.802" y2="0.659" gradientUnits="objectBoundingBox">
      <stop offset="0" stop-color="#fae28b"/>
      <stop offset="1" stop-color="#fdf4cb"/>
    </linearGradient>
  </defs>
  <g id="vslogo-aero" transform="translate(0)">
    <g id="Group_1" data-name="Group 1" transform="translate(0 3.878)">
      <path id="Path_1" data-name="Path 1" d="M0,.8H3.912L9.338,17.9H9.4L14.953.8H18.8L11.42,22.441H7.193Z" transform="translate(0 -0.358)" fill="#fae594"/>
      <path id="Path_2" data-name="Path 2" d="M34.7.8h3.47V4.081H34.7Zm0,5.994h3.47V22.441H34.7Z" transform="translate(-12.807 -0.358)" fill="#fae594"/>
      <path id="Path_3" data-name="Path 3" d="M49.933,20.641a2.632,2.632,0,0,0,1.136,2.145,4.7,4.7,0,0,0,2.4.631,6.857,6.857,0,0,0,1.136-.063,3.369,3.369,0,0,0,1.136-.315,2.092,2.092,0,0,0,.883-.631,1.622,1.622,0,0,0-.189-2.145,4.227,4.227,0,0,0-1.136-.694,12.451,12.451,0,0,0-1.64-.442c-.568-.126-1.2-.252-1.83-.442-.631-.126-1.262-.315-1.893-.5a4.7,4.7,0,0,1-1.577-.82,3.283,3.283,0,0,1-1.136-1.325,4.41,4.41,0,0,1-.442-1.956,3.715,3.715,0,0,1,.631-2.145,4.737,4.737,0,0,1,1.577-1.388,6.213,6.213,0,0,1,2.145-.757A13.047,13.047,0,0,1,53.34,9.6a9.8,9.8,0,0,1,2.334.252,7.988,7.988,0,0,1,2.019.82,5.755,5.755,0,0,1,1.514,1.514,4.868,4.868,0,0,1,.757,2.208H56.242a2.072,2.072,0,0,0-1.136-1.64,4.487,4.487,0,0,0-2.019-.442,4.165,4.165,0,0,0-.883.063,5.256,5.256,0,0,0-.946.252,2.64,2.64,0,0,0-.757.5,1.329,1.329,0,0,0-.315.82,1.255,1.255,0,0,0,.442,1.009,2.9,2.9,0,0,0,1.136.631,12.451,12.451,0,0,0,1.64.442l1.893.379a15.485,15.485,0,0,1,1.83.5,5.713,5.713,0,0,1,1.64.82A2.919,2.919,0,0,1,59.9,19.064a4.056,4.056,0,0,1,.442,1.956,4.33,4.33,0,0,1-.631,2.334,5.571,5.571,0,0,1-1.64,1.577,8.952,8.952,0,0,1-2.271.883,10.866,10.866,0,0,1-2.461.252,12.767,12.767,0,0,1-2.713-.315,7.73,7.73,0,0,1-2.208-1.009,4.209,4.209,0,0,1-1.451-1.7,5.356,5.356,0,0,1-.568-2.4Z" transform="translate(-17.125 -3.606)" fill="#fae596"/>
      <path id="Path_4" data-name="Path 4" d="M74.563.8H77.97V4.081H74.5V.8Zm0,5.994H77.97V22.441H74.5V6.794Z" transform="translate(-27.496 -0.358)" fill="#fbe699"/>
      <path id="Path_5" data-name="Path 5" d="M94.414,26.076a8.744,8.744,0,0,1-3.344-.631,6.648,6.648,0,0,1-2.461-1.7A7.17,7.17,0,0,1,87.1,21.155a10.8,10.8,0,0,1,0-6.625,8.21,8.21,0,0,1,1.514-2.587,6.648,6.648,0,0,1,2.461-1.7,9.4,9.4,0,0,1,6.688,0,6.648,6.648,0,0,1,2.461,1.7,7.17,7.17,0,0,1,1.514,2.587,10.8,10.8,0,0,1,0,6.625,8.21,8.21,0,0,1-1.514,2.587,6.648,6.648,0,0,1-2.461,1.7,7.365,7.365,0,0,1-3.344.631Zm0-2.713a3.845,3.845,0,0,0,2.019-.5A4.437,4.437,0,0,0,97.821,21.6a6.415,6.415,0,0,0,.82-1.767,8.732,8.732,0,0,0,0-4.038,4.536,4.536,0,0,0-.82-1.767,4.1,4.1,0,0,0-6.751,0,6.416,6.416,0,0,0-.82,1.767,8.733,8.733,0,0,0,0,4.038,5.666,5.666,0,0,0,.82,1.767,4.437,4.437,0,0,0,1.388,1.262,3.048,3.048,0,0,0,1.956.5Z" transform="translate(-31.953 -3.615)" fill="#fbe8a1"/>
      <path id="Path_6" data-name="Path 6" d="M117.8,10.038h3.281V12.31l.063.063a5.338,5.338,0,0,1,2.082-2.019,5.63,5.63,0,0,1,2.839-.757,5.891,5.891,0,0,1,4.038,1.325,5,5,0,0,1,1.514,3.975V25.622h-3.47V15.843a4.346,4.346,0,0,0-.757-2.65,2.771,2.771,0,0,0-2.271-.82,4.393,4.393,0,0,0-1.577.315,3.3,3.3,0,0,0-1.2.883,4.538,4.538,0,0,0-.757,1.325,4.585,4.585,0,0,0-.252,1.577v9.211h-3.47Z" transform="translate(-43.477 -3.603)" fill="#fcebac"/>
      <path id="Path_7" data-name="Path 7" d="M149.559,14.99A5.03,5.03,0,0,0,150,17.135a3.807,3.807,0,0,0,1.2,1.451,5.666,5.666,0,0,0,1.767.82,8,8,0,0,0,2.145.252,6.322,6.322,0,0,0,2.145-.315,3.575,3.575,0,0,0,1.451-.757,2.226,2.226,0,0,0,.757-1.073,2.56,2.56,0,0,0,.252-1.2,2.452,2.452,0,0,0-.568-1.83,3.134,3.134,0,0,0-1.2-.82c-.883-.315-1.767-.568-2.65-.82-1.009-.252-2.271-.568-3.786-1.009a8.258,8.258,0,0,1-2.334-.946,5.868,5.868,0,0,1-1.451-1.325,3.807,3.807,0,0,1-.757-1.514,7.385,7.385,0,0,1-.252-1.64,5.571,5.571,0,0,1,.694-2.839,6.012,6.012,0,0,1,1.83-1.956A7.584,7.584,0,0,1,151.768.479,11.1,11.1,0,0,1,154.67.1a11.308,11.308,0,0,1,3.218.442,7.479,7.479,0,0,1,2.65,1.325A6.31,6.31,0,0,1,163,7.04h-3.786a3.66,3.66,0,0,0-1.451-2.965,5.759,5.759,0,0,0-3.218-.883,11.332,11.332,0,0,0-1.388.126,4.283,4.283,0,0,0-1.262.442,2.53,2.53,0,0,0-.946.883,2.573,2.573,0,0,0,.315,3.155,5.491,5.491,0,0,0,1.893,1.009c.063,0,.379.126.946.252s1.2.315,1.893.5,1.388.379,2.019.5c.631.189,1.136.315,1.388.379a6.99,6.99,0,0,1,1.83.883,6.592,6.592,0,0,1,1.325,1.325,4.05,4.05,0,0,1,.757,1.577,5.314,5.314,0,0,1,.252,1.7,5.916,5.916,0,0,1-.757,3.092,6.183,6.183,0,0,1-1.956,2.082,8.426,8.426,0,0,1-2.776,1.2,13.086,13.086,0,0,1-3.155.379,12.77,12.77,0,0,1-3.47-.442,7.946,7.946,0,0,1-2.839-1.388,6.569,6.569,0,0,1-1.956-2.4,8.183,8.183,0,0,1-.757-3.47h3.659Z" transform="translate(-53.849 -0.1)" fill="#fcedb0"/>
      <path id="Path_8" data-name="Path 8" d="M192.473,22.145a2.015,2.015,0,0,0,.189.883.6.6,0,0,0,.631.252h.379a1.389,1.389,0,0,0,.5-.063v2.4a4.02,4.02,0,0,1-.442.126,1.842,1.842,0,0,1-.568.126c-.189,0-.379.063-.631.063h-.5a3.5,3.5,0,0,1-1.767-.442,2,2,0,0,1-.883-1.514,5.649,5.649,0,0,1-2.524,1.451,9,9,0,0,1-2.9.442,5.421,5.421,0,0,1-2.019-.315,5.331,5.331,0,0,1-1.7-.82,4.2,4.2,0,0,1-1.64-3.47,4.234,4.234,0,0,1,.5-2.334,4.349,4.349,0,0,1,1.388-1.451,5.728,5.728,0,0,1,1.956-.757c.694-.126,1.451-.252,2.145-.379a17.006,17.006,0,0,1,1.767-.252,12.632,12.632,0,0,0,1.514-.252,2.014,2.014,0,0,0,1.009-.568,1.472,1.472,0,0,0,.379-1.136,1.652,1.652,0,0,0-.315-1.073,2.382,2.382,0,0,0-.757-.631,5.329,5.329,0,0,0-1.073-.315,6.121,6.121,0,0,0-1.073-.063,4.156,4.156,0,0,0-2.4.631,2.551,2.551,0,0,0-1.073,1.893H179.1a4.55,4.55,0,0,1,.757-2.524,4.383,4.383,0,0,1,1.64-1.577,5.88,5.88,0,0,1,2.208-.82,11.42,11.42,0,0,1,2.524-.252,9.289,9.289,0,0,1,2.271.252,7.811,7.811,0,0,1,2.019.757,5.073,5.073,0,0,1,1.451,1.388,4.137,4.137,0,0,1,.568,2.082l-.063,8.265ZM189,17.728a4.216,4.216,0,0,1-1.956.631c-.757.063-1.514.189-2.271.315a6.6,6.6,0,0,0-1.073.252,3.854,3.854,0,0,0-.883.442,1.855,1.855,0,0,0-.631.757,2.475,2.475,0,0,0-.252,1.136,1.55,1.55,0,0,0,.315.946,2.83,2.83,0,0,0,.82.631,6.2,6.2,0,0,0,1.009.315,5.427,5.427,0,0,0,1.009.063,8.551,8.551,0,0,0,1.262-.126,4.406,4.406,0,0,0,1.262-.5,4.743,4.743,0,0,0,1.009-.946A2.544,2.544,0,0,0,189,20.252V17.728Z" transform="translate(-65.91 -3.532)" fill="#fceeb6"/>
      <path id="Path_9" data-name="Path 9" d="M205.7,6.757h2.587V5.432a7.626,7.626,0,0,1,.379-2.4,3.621,3.621,0,0,1,.946-1.451A3.6,3.6,0,0,1,211,.889,6.877,6.877,0,0,1,212.64.7a14.765,14.765,0,0,1,2.4.189V3.6a2.683,2.683,0,0,0-.694-.126,4.165,4.165,0,0,0-.883-.063,2.61,2.61,0,0,0-1.2.315,1.486,1.486,0,0,0-.5,1.325V6.631h2.965V9.217h-2.965v13.06h-3.47v-13H205.7V6.757Z" transform="translate(-75.919 -0.321)" fill="#fdf3c6"/>
      <path id="Path_10" data-name="Path 10" d="M227.207,18.784a5.427,5.427,0,0,0,1.009,3.281,4.116,4.116,0,0,0,1.325,1.009,4.828,4.828,0,0,0,1.893.379,4.232,4.232,0,0,0,2.461-.631,4.3,4.3,0,0,0,1.388-1.956h3.281a6.711,6.711,0,0,1-2.524,3.975,6.378,6.378,0,0,1-2.082,1.009,8.328,8.328,0,0,1-2.461.379,8.432,8.432,0,0,1-3.281-.631,5.96,5.96,0,0,1-2.4-1.7,7.17,7.17,0,0,1-1.514-2.587,11.923,11.923,0,0,1-.5-3.344,10.643,10.643,0,0,1,.5-3.155,8.006,8.006,0,0,1,1.514-2.65A7.144,7.144,0,0,1,231.371,9.7a7.834,7.834,0,0,1,3.344.757,8.436,8.436,0,0,1,2.461,2.019,8.786,8.786,0,0,1,1.388,2.9,8.914,8.914,0,0,1,.252,3.407H227.207Zm8.076-2.271a4.449,4.449,0,0,0-.379-1.577,4.538,4.538,0,0,0-.757-1.325,3.3,3.3,0,0,0-1.2-.883,2.741,2.741,0,0,0-1.577-.315,4.739,4.739,0,0,0-1.64.315,3.52,3.52,0,0,0-1.262.883,3.6,3.6,0,0,0-.82,1.325,6.914,6.914,0,0,0-.379,1.64Z" transform="translate(-82.6 -3.641)" fill="#fdf2c3"/>
    </g>
    <path id="Path_11" data-name="Path 11" d="M24.5,58.92v-.252L177.12,58.1v1.388Z" transform="translate(-21.492 -25.986)" fill="url(#linear-gradient)"/>
    <path id="Path_12" data-name="Path 12" d="M29.149,68.822v.946H26.436V70.9h2.524v.883H26.436v1.262h2.776V74H25.3V68.822h3.849Zm2.4,0,1.2,3.533,1.136-3.533h1.577V74H34.385V70.336L33.123,74H32.24l-1.262-3.659V74H29.906V68.822h1.64Zm8.833,0v.946H37.666V70.9H40.19v.883H37.666v1.262h2.776V74H36.53V68.822h3.849Zm3.659,0a1.713,1.713,0,0,1,1.073.379,1.255,1.255,0,0,1,.442,1.009,1.369,1.369,0,0,1-.82,1.325.967.967,0,0,1,.694.694,3.2,3.2,0,0,1,.126.82,2.532,2.532,0,0,0,.189.946H44.606a4.26,4.26,0,0,1-.126-.883,1.449,1.449,0,0,0-.252-.883.605.605,0,0,0-.631-.189H42.461v2.019H41.325V68.885l2.713-.063ZM43.6,71.156a1.018,1.018,0,0,0,.568-.189.636.636,0,0,0,.189-.568.881.881,0,0,0-.189-.568,1.018,1.018,0,0,0-.568-.189H42.335v1.451l1.262.063ZM48.77,68.7a2.567,2.567,0,0,1,1.514.5,2.1,2.1,0,0,1,.694,1.325H49.906a1.073,1.073,0,0,0-.379-.631.9.9,0,0,0-.694-.189,1.226,1.226,0,0,0-1.009.5,2.292,2.292,0,0,0,0,2.524,1.092,1.092,0,0,0,1.009.442,1.081,1.081,0,0,0,1.2-1.009v-.126H48.9v-.82h2.145V74h-.694l-.126-.568a1.763,1.763,0,0,1-1.388.694,2.494,2.494,0,0,1-2.524-2.713A2.765,2.765,0,0,1,47,69.452,2.026,2.026,0,0,1,48.77,68.7Zm7.066.126v.946H53.124V70.9h2.524v.883H53.124v1.262H55.9V74H51.988V68.822h3.849Zm1.956,0,2.145,3.47v-3.47H61.01V74H59.875l-2.145-3.47V74H56.657V68.821h1.136Zm6.562-.126a2.567,2.567,0,0,1,1.514.5,1.842,1.842,0,0,1,.694,1.325H65.49a1.073,1.073,0,0,0-.379-.631,1.1,1.1,0,0,0-.757-.252,1.226,1.226,0,0,0-1.009.5,2.332,2.332,0,0,0-.379,1.325,2.275,2.275,0,0,0,.379,1.262,1.092,1.092,0,0,0,1.009.442,1.329,1.329,0,0,0,.82-.315,1.585,1.585,0,0,0,.379-.883h1.073a2.259,2.259,0,0,1-.694,1.577,2.509,2.509,0,0,1-4.1-2.145,2.765,2.765,0,0,1,.694-1.956,2.22,2.22,0,0,1,1.83-.757Zm3.722.126,1.2,2.019,1.2-2.019h1.262l-1.893,3.218V74H68.707V71.976l-1.893-3.155Zm6.751,0,1.136,3.659L77.1,68.821h1.2L76.594,74H75.332l-1.7-5.174h1.2Zm5.11,0V74H78.8V68.821Zm2.776-.126a2.515,2.515,0,0,1,1.514.442A1.588,1.588,0,0,1,84.8,70.4H83.723a.615.615,0,0,0-.252-.568,1.5,1.5,0,0,0-.757-.189,1.842,1.842,0,0,0-.568.126c-.126.126-.252.252-.189.442a.482.482,0,0,0,.126.315l.379.189c.189.063.442.126.883.252a3.3,3.3,0,0,1,1.009.379,1.291,1.291,0,0,1,.5.5,1.272,1.272,0,0,1,.189.694,1.449,1.449,0,0,1-.252.883,1.722,1.722,0,0,1-.757.568,3.573,3.573,0,0,1-1.136.189,2.366,2.366,0,0,1-1.577-.5,1.776,1.776,0,0,1-.631-1.325v-.063h1.073a1.013,1.013,0,0,0,.315.694,1.268,1.268,0,0,0,.82.252,1.68,1.68,0,0,0,.757-.189.4.4,0,0,0,.252-.5.9.9,0,0,0-.126-.379,1.32,1.32,0,0,0-.379-.252c-.252-.063-.568-.189-.883-.252a2.788,2.788,0,0,1-1.009-.379,1.291,1.291,0,0,1-.5-.5,1.272,1.272,0,0,1-.189-.694,1.163,1.163,0,0,1,.252-.82,1.256,1.256,0,0,1,.757-.5c.252,0,.568-.063.883-.063Zm4.038.126V74H85.616V68.821ZM90.1,68.7a2.427,2.427,0,0,1,1.83.757,2.593,2.593,0,0,1,.694,1.956,3.217,3.217,0,0,1-.694,1.956,2.589,2.589,0,0,1-3.659,0,2.433,2.433,0,0,1-.694-1.956,3.084,3.084,0,0,1,.694-1.956A2.22,2.22,0,0,1,90.1,68.7Zm-1.451,2.713a2.275,2.275,0,0,0,.379,1.262,1.317,1.317,0,0,0,1.009.5,1.255,1.255,0,0,0,1.009-.442,2.275,2.275,0,0,0,.379-1.262,2.483,2.483,0,0,0-.379-1.325,1.092,1.092,0,0,0-1.009-.442,1.489,1.489,0,0,0-1.009.442,2.132,2.132,0,0,0-.379,1.262Zm5.868-2.587,2.145,3.47v-3.47H97.73V74H96.594l-2.145-3.47V74H93.376V68.822Zm8.833,0L105.3,74h-1.2l-.379-1.136h-1.956L101.389,74h-1.2l1.956-5.174Zm-.631,1.262-.694,1.893h1.325Zm4.8-1.388a2.515,2.515,0,0,1,1.514.442,1.588,1.588,0,0,1,.568,1.262h-1.073a.615.615,0,0,0-.252-.568,1.5,1.5,0,0,0-.757-.189,1.842,1.842,0,0,0-.568.126c-.126.126-.252.252-.189.442a.482.482,0,0,0,.126.315l.379.189c.189.063.442.126.883.252a3.3,3.3,0,0,1,1.009.379,1.291,1.291,0,0,1,.5.5,1.272,1.272,0,0,1,.189.694,1.449,1.449,0,0,1-.252.883,1.723,1.723,0,0,1-.757.568,3.573,3.573,0,0,1-1.136.189,2.366,2.366,0,0,1-1.577-.5,1.776,1.776,0,0,1-.631-1.325v-.063h1.073a1.013,1.013,0,0,0,.315.694,1.268,1.268,0,0,0,.82.252,1.68,1.68,0,0,0,.757-.189.4.4,0,0,0,.252-.5.9.9,0,0,0-.126-.379,1.32,1.32,0,0,0-.379-.252c-.252-.063-.568-.189-.883-.252a2.788,2.788,0,0,1-1.009-.379,1.291,1.291,0,0,1-.5-.5,1.272,1.272,0,0,1-.189-.694,1.163,1.163,0,0,1,.252-.82,1.256,1.256,0,0,1,.757-.5c.252,0,.568-.063.883-.063Zm4.669,0a2.515,2.515,0,0,1,1.514.442,1.588,1.588,0,0,1,.568,1.262h-1.073a.615.615,0,0,0-.252-.568,1.5,1.5,0,0,0-.757-.189,1.842,1.842,0,0,0-.568.126c-.126.126-.252.252-.189.442a.482.482,0,0,0,.126.315l.379.189c.189.063.442.126.883.252a3.3,3.3,0,0,1,1.009.379,1.291,1.291,0,0,1,.5.5,1.272,1.272,0,0,1,.189.694,1.449,1.449,0,0,1-.252.883A1.723,1.723,0,0,1,113.5,74a3.573,3.573,0,0,1-1.136.189,2.366,2.366,0,0,1-1.577-.5,1.776,1.776,0,0,1-.631-1.325v-.063h1.073a1.013,1.013,0,0,0,.315.694,1.268,1.268,0,0,0,.82.252,1.68,1.68,0,0,0,.757-.189.4.4,0,0,0,.252-.5.9.9,0,0,0-.126-.379,1.32,1.32,0,0,0-.379-.252c-.252-.063-.568-.189-.883-.252a2.788,2.788,0,0,1-1.009-.379,1.291,1.291,0,0,1-.5-.5,1.272,1.272,0,0,1-.189-.694,1.163,1.163,0,0,1,.252-.82,1.256,1.256,0,0,1,.757-.5c.252,0,.568-.063.883-.063Zm4.038.126v3.218a1.268,1.268,0,0,0,.252.82,1.327,1.327,0,0,0,1.64,0,1.388,1.388,0,0,0,.252-.82V68.822H119.5v3.218a1.906,1.906,0,0,1-.568,1.514,2.945,2.945,0,0,1-3.344,0,2.261,2.261,0,0,1-.568-1.514V68.822Zm7.066,0a1.713,1.713,0,0,1,1.073.379,1.255,1.255,0,0,1,.442,1.009,1.369,1.369,0,0,1-.82,1.325.967.967,0,0,1,.694.694,3.2,3.2,0,0,1,.126.82,2.532,2.532,0,0,0,.189.946H123.85a4.26,4.26,0,0,1-.126-.883,1.449,1.449,0,0,0-.252-.883.605.605,0,0,0-.631-.189h-1.2v2.019h-1.136V68.885Zm-.379,2.334a1.018,1.018,0,0,0,.568-.189.636.636,0,0,0,.189-.568.881.881,0,0,0-.189-.568,1.018,1.018,0,0,0-.568-.189h-1.262v1.451l1.262.063Zm5.363-2.334L130.222,74h-1.2l-.379-1.136h-1.956L126.311,74h-1.136l1.956-5.174Zm-.568,1.262L127,71.976h1.325Zm4.1-1.262,2.145,3.47v-3.47h1.073V74h-1.136l-2.145-3.47V74h-1.073V68.822Zm6.562-.126a2.567,2.567,0,0,1,1.514.5,1.842,1.842,0,0,1,.694,1.325H139.5a1.073,1.073,0,0,0-.379-.631,1.1,1.1,0,0,0-.757-.252,1.226,1.226,0,0,0-1.009.5,2.333,2.333,0,0,0-.379,1.325,2.275,2.275,0,0,0,.379,1.262,1.092,1.092,0,0,0,1.009.442,1.329,1.329,0,0,0,.82-.315,1.585,1.585,0,0,0,.379-.883h1.073a2.259,2.259,0,0,1-.694,1.577,2.509,2.509,0,0,1-4.1-2.145,2.765,2.765,0,0,1,.694-1.956,2.22,2.22,0,0,1,1.83-.757Zm6.94.126v.946h-2.713V70.9h2.524v.883h-2.524v1.262h2.776V74h-3.912V68.822H145.3Zm4.606-.126a2.515,2.515,0,0,1,1.514.442,1.588,1.588,0,0,1,.568,1.262h-1.073a.615.615,0,0,0-.252-.568,1.68,1.68,0,0,0-.757-.189,1.842,1.842,0,0,0-.568.126c-.126.126-.252.252-.189.442a.482.482,0,0,0,.126.315l.379.189c.189.063.442.126.883.252a3.3,3.3,0,0,1,1.009.379,1.291,1.291,0,0,1,.5.5,1.272,1.272,0,0,1,.189.694,1.449,1.449,0,0,1-.252.883,1.723,1.723,0,0,1-.757.568,3.573,3.573,0,0,1-1.136.189,2.366,2.366,0,0,1-1.577-.5,1.776,1.776,0,0,1-.631-1.325v-.063h1.073a1.013,1.013,0,0,0,.315.694,1.268,1.268,0,0,0,.82.252,1.68,1.68,0,0,0,.757-.189.4.4,0,0,0,.252-.5.9.9,0,0,0-.126-.379,1.32,1.32,0,0,0-.379-.252c-.252-.063-.568-.189-.883-.252a2.788,2.788,0,0,1-1.009-.379,1.291,1.291,0,0,1-.5-.5,1.272,1.272,0,0,1-.189-.694,1.163,1.163,0,0,1,.252-.82,1.256,1.256,0,0,1,.757-.5c.252,0,.568-.063.883-.063Zm3.6.126,1.2,2.019,1.2-2.019h1.262l-1.893,3.155v1.956h-1.136V71.913l-1.893-3.155Zm5.931-.126a2.515,2.515,0,0,1,1.514.442,1.588,1.588,0,0,1,.568,1.262h-1.073a.615.615,0,0,0-.252-.568,1.5,1.5,0,0,0-.757-.189,1.842,1.842,0,0,0-.568.126c-.126.126-.252.252-.189.442a.482.482,0,0,0,.126.315l.379.189c.189.063.442.126.883.252a3.3,3.3,0,0,1,1.009.379,1.291,1.291,0,0,1,.5.5,1.272,1.272,0,0,1,.189.694,1.449,1.449,0,0,1-.252.883,1.723,1.723,0,0,1-.757.568,3.573,3.573,0,0,1-1.136.189,2.366,2.366,0,0,1-1.577-.5,1.776,1.776,0,0,1-.631-1.325v-.063h1.073a1.013,1.013,0,0,0,.315.694,1.268,1.268,0,0,0,.82.252,1.68,1.68,0,0,0,.757-.189.4.4,0,0,0,.252-.5.9.9,0,0,0-.126-.379,1.319,1.319,0,0,0-.379-.252c-.252-.063-.568-.189-.883-.252a2.788,2.788,0,0,1-1.009-.379,1.291,1.291,0,0,1-.5-.5,1.272,1.272,0,0,1-.189-.694,1.163,1.163,0,0,1,.252-.82,1.256,1.256,0,0,1,.757-.5c.252,0,.568-.063.883-.063Zm6.751.126v.946h-1.577V74h-1.136V69.768h-1.577v-.946Zm4.48,0v.946h-2.713V70.9h2.524v.883h-2.524v1.262h2.776V74h-3.912V68.822h3.849Zm2.4,0,1.2,3.533,1.136-3.533h1.577V74H175.9V70.336L174.639,74h-.883l-1.262-3.659V74h-1.009V68.822h1.577Z" transform="translate(-21.787 -29.894)" fill="url(#linear-gradient-2)"/>
    <path id="Path_13" data-name="Path 13" d="M308.484,7.2a24.984,24.984,0,1,0,24.984,24.984A24.961,24.961,0,0,0,308.484,7.2Zm0,48.77a23.754,23.754,0,1,1,23.723-23.786A23.789,23.789,0,0,1,308.484,55.97Z" transform="translate(-117.083 -7.2)" fill="url(#linear-gradient-3)"/>
    <path id="Path_14" data-name="Path 14" d="M329.758,44.059a1.073,1.073,0,0,0-.379-.631c-.883-.883-1.893-1.7-2.839-2.587-.82-.694-1.577-1.451-2.4-2.145-.379-.315-.757-.631-1.2-1.009-.379-.379-.757-.694-1.136-1.136a2.085,2.085,0,0,0,0-.883,3.574,3.574,0,0,0-.126-1.009c0-.252-.315-.252-.315-.252l-1.073-.126s-.315,0-.379.189a2.684,2.684,0,0,0-.126.694c-1.136-1.009-2.9-2.9-3.407-3.344,0-.5-.189-4.038-.189-4.353,0-.757-.5-2.965-1.514-2.965s-1.514,2.145-1.514,2.965c0,.315-.189,3.849-.189,4.353-.5.442-2.271,2.334-3.407,3.344a2.269,2.269,0,0,0-.126-.694c-.063-.189-.379-.189-.379-.189l-1.073.126s-.315.063-.315.252-.063.568-.126,1.009v.883c-.379.379-.694.757-1.136,1.136-.379.315-.82.631-1.2,1.009-.82.694-1.64,1.451-2.4,2.145-.946.82-1.893,1.7-2.839,2.587a.961.961,0,0,0-.379.631v.883c0,.189.063.126.063.126l10.663-6.057,2.524-.82v1.262c0,.631.315,6.12.5,7.066l-3.6,3.975v1.451l.568-.379,3.281-2.524.252-.189c.189.631.694,2.4.694,2.4s.568-1.767.694-2.4l.252.189,3.281,2.524.568.379V50.431l-3.6-3.975c.189-.946.5-6.435.5-7.066V38.128l2.524.82L329.443,45s.063.063.063-.126C329.758,44.689,329.758,44.059,329.758,44.059Z" transform="translate(-123.025 -13.585)" fill="url(#linear-gradient-4)"/>
  </g>
</svg>
