<svg width="197" height="85" viewBox="0 0 197 85" fill="none" xmlns="http://www.w3.org/2000/svg">
<g clip-path="url(#clip0_41_35)">
<path d="M70.2485 75.9157H65.5522V7.68319C65.5517 7.16522 65.3454 6.66856 64.9785 6.3023C64.6117 5.93603 64.1142 5.73008 63.5954 5.72956H8.70752V1.43157C8.70752 1.25023 8.77973 1.07626 8.90817 0.948031C9.03661 0.819799 9.21075 0.747803 9.3924 0.747803H70.2485C70.4301 0.747803 70.6043 0.819799 70.7327 0.948031C70.8612 1.07626 70.9334 1.25023 70.9334 1.43157V75.2319C70.9334 75.4132 70.8612 75.5872 70.7327 75.7154C70.6043 75.8437 70.4301 75.9157 70.2485 75.9157Z" fill="#242424"/>
<path d="M63.5956 6.90173H0.782715C0.350433 6.90173 0 7.2516 0 7.68319V84.2186C0 84.6502 0.350433 85.0001 0.782715 85.0001H63.5956C64.0279 85.0001 64.3783 84.6502 64.3783 84.2186V7.68319C64.3783 7.2516 64.0279 6.90173 63.5956 6.90173Z" fill="#212121"/>
<path d="M32.4427 23.9932C31.6037 23.9932 31.2133 25.764 31.2133 26.3905V26.4046C31.2084 26.6761 31.0671 29.5335 31.054 29.9674C30.6268 30.3511 29.199 31.8738 28.2781 32.6994C28.2705 32.5009 28.2314 32.3048 28.1621 32.1186C28.113 31.9635 27.8752 31.9818 27.8752 31.9818L27.0203 32.0795C27.0203 32.0795 26.7636 32.1203 26.7434 32.3059C26.726 32.4681 26.6747 32.7588 26.6628 33.1415C26.6431 33.3789 26.6491 33.6178 26.6808 33.854L26.6716 33.8632C26.3846 34.1788 26.0812 34.4791 25.7627 34.763C25.4404 35.0275 25.1138 35.2883 24.8009 35.562C24.1356 36.144 23.4854 36.7432 22.8271 37.334C22.0561 38.0258 21.2574 38.6986 20.5132 39.4199C20.3017 39.6246 20.197 39.7911 20.197 39.9538C20.197 39.9538 20.1958 40.484 20.1958 40.686C20.1958 40.8228 20.2694 40.7628 20.2694 40.7628L28.989 35.8219L31.0517 35.1741V36.1991C31.0517 36.7147 31.3014 41.1809 31.4393 41.9377L28.5266 45.1585L28.5282 46.3697L28.9677 46.0366L31.6591 43.9992C31.6591 43.997 31.8602 43.8441 31.8602 43.8441C31.9972 44.3688 32.4435 45.8032 32.4435 45.8032C32.4435 45.8032 32.8907 44.3688 33.0268 43.8441C33.0268 43.8441 33.2286 43.997 33.2286 43.9992L35.9198 46.036L36.3593 46.3691L36.3608 45.1579L33.4489 41.9377C33.5859 41.1811 33.8366 36.7147 33.8366 36.1991V35.1741L35.8986 35.8219L44.6191 40.763C44.6191 40.763 44.6926 40.824 44.6926 40.6862C44.6926 40.4842 44.6915 39.954 44.6915 39.954C44.6915 39.7918 44.5868 39.6246 44.3752 39.4201C43.6305 38.6988 42.8323 38.026 42.0613 37.3342C41.4033 36.7436 40.7528 36.1442 40.0875 35.5622C39.7744 35.2887 39.448 35.0277 39.1252 34.7632C38.807 34.4792 38.5038 34.1788 38.2168 33.8634L38.2076 33.8542C38.239 33.618 38.2451 33.3791 38.2256 33.1417C38.2137 32.759 38.1624 32.4683 38.145 32.3061C38.1255 32.1205 37.8681 32.0797 37.8681 32.0797L37.0126 31.982C37.0126 31.982 36.7755 31.9635 36.7264 32.1188C36.657 32.3049 36.6179 32.5009 36.6107 32.6994C35.6893 31.8748 34.2626 30.3521 33.8321 29.9684C33.8195 29.5345 33.6783 26.6773 33.6734 26.4056V26.3915C33.6734 25.765 33.282 23.9942 32.4433 23.9942" fill="#F7F7F7"/>
<path d="M12.8102 35.522C12.811 31.6955 13.9481 27.9552 16.078 24.774C18.2078 21.5927 21.2347 19.1135 24.7758 17.6496C28.3169 16.1858 32.2133 15.8032 35.9722 16.5502C39.7311 17.2971 43.1838 19.1401 45.8936 21.8461C48.6035 24.5521 50.4488 27.9995 51.1962 31.7525C51.9437 35.5055 51.5597 39.3955 50.0928 42.9307C48.626 46.4658 46.1421 49.4873 42.9553 51.6131C39.7685 53.7389 36.0219 54.8735 32.1893 54.8735C27.0509 54.8673 22.1248 52.8264 18.4917 49.1986C14.8587 45.5707 12.8154 40.6521 12.8102 35.522ZM32.1891 15.1552C28.1542 15.1545 24.2097 16.3484 20.8545 18.586C17.4993 20.8235 14.8841 24.0042 13.3395 27.7257C11.7949 31.4472 11.3905 35.5425 12.1772 39.4935C12.964 43.4446 14.9066 47.074 17.7595 49.9227C20.6123 52.7714 24.2473 54.7115 28.2046 55.4976C32.1619 56.2837 36.2638 55.8806 39.9916 54.3391C43.7194 52.7977 46.9056 50.1872 49.1473 46.8377C51.389 43.4883 52.5855 39.5504 52.5855 35.522C52.5798 30.1227 50.4291 24.9462 46.6054 21.128C42.7817 17.3098 37.5971 15.1618 32.1891 15.1552Z" fill="#F7F7F7"/>
<path d="M4.32227 63.6696V73.4651H16.8066V72.3454H5.42863V69.085H15.5233V68.0496H5.42863V64.7888H16.8058V63.6694L4.32227 63.6696Z" fill="#F7F7F7"/>
<path d="M32.2561 63.6696L25.8259 72.4343L19.3955 63.6696H17.9878L25.2279 73.4651H26.4215L33.6636 63.6696H32.2561Z" fill="#F7F7F7"/>
<path d="M37.8733 64.7044L42.1667 70.5122H33.5913L37.8733 64.7044ZM37.2847 63.669L30.0435 73.4645H31.4132L32.8379 71.5345H42.9224L44.3499 73.4659H45.7197L38.4782 63.6704L37.2847 63.669Z" fill="#F7F7F7"/>
<path d="M49.6046 63.6696C48.548 63.6696 47.7664 63.9167 47.26 64.411C47.0044 64.6673 46.8049 64.9738 46.674 65.311C46.543 65.6483 46.4836 66.0089 46.4994 66.3703C46.4826 66.7333 46.5409 67.0958 46.6707 67.4353C46.8004 67.7748 46.9988 68.0839 47.2536 68.3434C47.7566 68.8384 48.5403 69.0858 49.6046 69.0858H56.6821C57.9979 69.0858 58.6558 69.6269 58.6558 70.7091C58.6558 71.8004 57.9979 72.3461 56.6821 72.3462H47.0025V73.4659H56.7082C57.7648 73.4659 58.5464 73.2184 59.0528 72.7235C59.3084 72.4672 59.508 72.1608 59.6389 71.8237C59.7699 71.4865 59.8293 71.1259 59.8136 70.7646C59.8303 70.4016 59.7719 70.0391 59.6421 69.6996C59.5122 69.3601 59.3138 69.051 59.059 68.7914C58.556 68.2965 57.7723 68.049 56.708 68.049H49.6303C48.3145 68.049 47.6567 67.5079 47.6567 66.4258C47.6567 65.3345 48.3145 64.7888 49.6303 64.7886H59.3101V63.6692L49.6046 63.6696Z" fill="#F7F7F7"/>
</g>
<path d="M169.871 85H119.219C118.962 85 118.716 84.8983 118.535 84.7171C118.353 84.5359 118.251 84.29 118.251 84.0338V77.9142C118.251 77.658 118.353 77.4123 118.535 77.2311C118.716 77.0499 118.962 76.948 119.219 76.948H122.183V7.86417C122.181 6.86661 122.382 5.87904 122.774 4.9612C123.152 4.07261 123.698 3.26542 124.383 2.58397C125.066 1.90019 125.875 1.35457 126.765 0.977346C127.684 0.586508 128.674 0.385773 129.673 0.387285H159.635C160.634 0.385773 161.623 0.586508 162.543 0.977346C163.433 1.35463 164.242 1.90024 164.924 2.58397C165.609 3.26542 166.156 4.07261 166.534 4.9612C166.925 5.87904 167.127 6.86661 167.125 7.86417V29.8729C170.21 30.2626 173.049 31.7564 175.114 34.0772C176.133 35.217 176.939 36.53 177.494 37.9538C178.068 39.4287 178.362 40.9976 178.36 42.5801V63.2335C178.361 64.6493 178.926 66.0066 179.929 67.0075C180.932 68.0085 182.292 68.5713 183.71 68.5727C185.128 68.571 186.488 68.0081 187.49 67.0072C188.493 66.0063 189.057 64.6491 189.059 63.2335L189.057 63.0742L186.292 26.9548C186.098 24.9824 185.283 22.7227 183.87 20.2381C182.56 17.9956 181.054 15.8724 179.371 13.8931C177.423 11.5662 175.324 9.36883 173.089 7.315C172.713 7.06606 172.359 6.78423 172.033 6.473C171.397 5.91336 170.93 5.18861 170.683 4.37947C170.674 4.34115 170.665 4.30195 170.655 4.26137L170.644 4.21655C170.408 3.22261 170.013 1.55999 170.661 0.742233C170.809 0.572144 170.996 0.439231 171.205 0.353944C171.415 0.268657 171.641 0.233394 171.866 0.251093C172.711 0.306884 173.536 0.525645 174.297 0.895253C176.012 1.69175 177.67 2.60548 179.259 3.62979C181.181 4.82696 183.296 6.25242 185.374 7.75235C187.486 9.27676 189.424 10.78 190.978 12.0985C192.66 13.527 193.846 14.7047 194.408 15.5051C194.999 16.4334 195.314 17.51 195.317 18.61C195.351 19.7914 195.241 20.9725 194.991 22.1277C194.705 23.5171 194.301 24.8801 193.786 26.2021L196.54 62.7527C196.54 62.7527 196.54 62.7582 196.54 62.7672C196.546 63.0384 196.547 63.1721 196.547 63.2365C196.543 66.6351 195.189 69.8935 192.782 72.2967C190.375 74.6999 187.111 76.0516 183.706 76.0552C180.302 76.0516 177.038 74.6999 174.631 72.2967C172.223 69.8935 170.869 66.6351 170.866 63.2365V42.5825C170.869 41.4379 170.496 40.3238 169.804 39.4112C169.47 38.9688 169.07 38.5806 168.618 38.2602C168.16 37.9357 167.654 37.6844 167.119 37.5155V76.9489H169.868C170.125 76.9489 170.371 77.0508 170.552 77.232C170.734 77.4132 170.836 77.6589 170.836 77.9152V84.0347C170.836 84.2902 170.734 84.5354 170.553 84.7163C170.372 84.8972 170.127 84.9992 169.871 85ZM129.64 7.75518V29.6566H159.644V7.75518H129.64Z" fill="#212121"/>
<path d="M86.5005 40.1678L105.447 47.4198V54.2131L81.2837 43.5502V39.0499L86.5005 40.1678ZM105.447 34.2344L86.5005 41.601L81.2837 42.6043V38.104L105.447 27.4697V34.2344Z" fill="#212121"/>
<defs>
<clipPath id="clip0_41_35">
<rect width="71.0314" height="84.3498" fill="white" transform="translate(0 0.650208)"/>
</clipPath>
</defs>
</svg>
