<svg width="310" height="84" viewBox="0 0 310 84" fill="none" xmlns="http://www.w3.org/2000/svg">
<path d="M41.9926 0C18.8355 0 0 18.8338 0 42C0 65.1662 18.8355 84 41.9926 84C65.1497 84 83.9853 65.1662 83.9853 42C83.9853 18.8338 65.1497 0 41.9926 0ZM41.9926 81.8899C19.9917 81.8899 2.09907 63.9877 2.09907 41.9888C2.09907 19.9898 19.9917 2.09888 41.9926 2.09888C63.9936 2.09888 81.8862 20.0011 81.8862 42C81.8862 63.9989 63.9936 81.9011 41.9926 81.9011V81.8899Z" fill="url(#paint0_linear_72_20)"/>
<path d="M100.633 65.604V66.9508H96.8049V68.5109H100.318V69.7568H96.8049V71.5414H100.722V72.8883H95.2109V65.6264H100.644L100.633 65.604ZM104.034 65.604L105.729 70.5986H105.751L107.356 65.604H109.601V72.8658H108.108V67.7253H108.086L106.312 72.8658H105.078L103.304 67.7702H103.282V72.8658H101.789V65.604H104.034ZM116.437 65.604V66.9508H112.61V68.5109H116.123V69.7568H112.61V71.5414H116.527V72.8883H111.016V65.6264H116.449L116.437 65.604ZM121.511 65.604C122.117 65.604 122.622 65.7948 123.026 66.1651C123.431 66.5468 123.633 67.0182 123.633 67.6018C123.633 68.511 123.251 69.117 122.488 69.4201V69.4425C122.746 69.5211 122.948 69.6446 123.094 69.8129C123.24 69.9813 123.352 70.1833 123.419 70.419C123.498 70.6547 123.543 71.0139 123.565 71.5302C123.588 72.1924 123.689 72.6414 123.846 72.8658H122.252C122.162 72.6414 122.095 72.2261 122.05 71.6088C121.994 70.9578 121.881 70.5313 121.691 70.3292C121.511 70.1272 121.208 70.0262 120.793 70.0262H119.187V72.8658H117.594V65.604H121.511ZM120.95 68.8926C121.287 68.8926 121.556 68.814 121.747 68.6681C121.938 68.5109 122.039 68.2416 122.039 67.86C122.039 67.4896 121.949 67.2314 121.758 67.0855C121.567 66.9284 121.298 66.861 120.95 66.861H119.199V68.9038H120.961L120.95 68.8926ZM128.19 65.4356C129.021 65.4356 129.717 65.6713 130.289 66.1539C130.861 66.6366 131.187 67.2539 131.243 67.9946H129.716C129.627 67.5906 129.436 67.2875 129.166 67.0743C128.897 66.8723 128.572 66.7712 128.179 66.7712C127.55 66.7712 127.067 66.9957 126.731 67.4447C126.383 67.8936 126.214 68.4997 126.214 69.263C126.214 70.0262 126.394 70.5986 126.742 71.0363C127.09 71.4741 127.573 71.6873 128.19 71.6873C129.234 71.6873 129.806 71.171 129.919 70.1272H128.313V68.9375H131.367V72.8658H130.345L130.188 72.0465C129.683 72.7087 129.021 73.0454 128.201 73.0454C127.135 73.0454 126.27 72.6975 125.619 71.9904C124.968 71.2833 124.643 70.3853 124.643 69.2742C124.643 68.163 124.968 67.2314 125.619 66.5131C126.27 65.7948 127.135 65.4356 128.212 65.4356H128.19ZM138.079 65.604V66.9508H134.251V68.5109H137.765V69.7568H134.251V71.5414H138.169V72.8883H132.657V65.6264H138.09L138.079 65.604ZM140.829 65.604L143.86 70.4751H143.882V65.604H145.375V72.8658H143.781L140.762 68.0059H140.739V72.8658H139.247V65.604H140.829ZM150.034 65.4356C150.876 65.4356 151.594 65.6713 152.166 66.1539C152.739 66.6366 153.076 67.2651 153.165 68.0508H151.616C151.56 67.6916 151.381 67.3886 151.078 67.1416C150.775 66.8947 150.427 66.7712 150.034 66.7712C149.405 66.7712 148.922 66.9957 148.586 67.4447C148.238 67.8936 148.069 68.4997 148.069 69.263C148.069 70.0262 148.249 70.5986 148.597 71.0363C148.945 71.4741 149.428 71.6873 150.045 71.6873C150.505 71.6873 150.876 71.5414 151.167 71.2608C151.459 70.9802 151.628 70.5762 151.695 70.0599H153.244C153.165 70.9802 152.829 71.7098 152.256 72.2373C151.673 72.7648 150.943 73.0342 150.056 73.0342C148.99 73.0342 148.137 72.6863 147.474 71.9792C146.812 71.2833 146.487 70.3741 146.487 69.263C146.487 68.1518 146.812 67.2202 147.463 66.5019C148.114 65.7835 148.979 65.4244 150.056 65.4244L150.034 65.4356ZM155.321 65.604L157.016 68.4661L158.699 65.604H160.473L157.779 70.0823V72.8658H156.185V70.0374L153.513 65.604H155.309H155.321ZM164.783 65.604L166.4 70.7108H166.422L168.061 65.604H169.711L167.298 72.8658H165.502L163.144 65.604H164.795H164.783ZM171.922 65.604V72.8658H170.328V65.604H171.922ZM175.829 65.4356C176.715 65.4356 177.423 65.6376 177.95 66.0417C178.478 66.4457 178.736 67.0294 178.736 67.7702H177.187C177.164 67.3998 177.041 67.1304 176.816 66.9508C176.592 66.7712 176.244 66.6814 175.761 66.6814C175.425 66.6814 175.166 66.7488 174.953 66.8947C174.751 67.0406 174.65 67.2427 174.65 67.5008C174.65 67.7141 174.717 67.86 174.841 67.961C174.964 68.0508 175.144 68.1406 175.38 68.2191C175.615 68.2977 176.008 68.3987 176.592 68.5446C177.198 68.6905 177.658 68.8589 177.984 69.0273C178.309 69.2068 178.556 69.4313 178.725 69.7007C178.893 69.9701 178.983 70.3068 178.983 70.7108C178.983 71.171 178.859 71.5863 178.612 71.9455C178.366 72.3046 178.018 72.574 177.546 72.7648C177.075 72.9556 176.547 73.0454 175.963 73.0454C175.065 73.0454 174.325 72.8209 173.741 72.372C173.157 71.923 172.877 71.3057 172.877 70.52V70.4639H174.426C174.426 70.8904 174.571 71.2159 174.863 71.4516C175.155 71.6873 175.537 71.7996 176.02 71.7996C176.446 71.7996 176.794 71.721 177.052 71.5751C177.31 71.418 177.445 71.1935 177.445 70.9017C177.445 70.6996 177.378 70.5425 177.232 70.4078C177.086 70.2731 176.895 70.1609 176.659 70.0823C176.424 69.9925 176.02 69.8915 175.458 69.7568C174.807 69.5997 174.336 69.4201 174.033 69.2405C173.73 69.0609 173.505 68.8365 173.348 68.5783C173.191 68.3201 173.112 68.0059 173.112 67.6355C173.112 67.1865 173.247 66.7825 173.505 66.4457C173.763 66.109 174.111 65.8509 174.527 65.6937C174.942 65.5366 175.38 65.4468 175.829 65.4468V65.4356ZM181.52 65.604V72.8658H179.926V65.604H181.52ZM186.178 65.4356C187.244 65.4356 188.109 65.7948 188.76 66.5019C189.411 67.209 189.736 68.1406 189.736 69.263C189.736 70.3854 189.411 71.272 188.749 71.9792C188.086 72.6863 187.233 73.0342 186.167 73.0342C185.101 73.0342 184.236 72.6863 183.585 71.9792C182.934 71.272 182.609 70.3741 182.609 69.263C182.609 68.1518 182.934 67.2202 183.596 66.5019C184.259 65.7835 185.112 65.4244 186.178 65.4244V65.4356ZM184.203 69.263C184.203 69.9925 184.371 70.5874 184.719 71.0251C185.067 71.4629 185.55 71.6873 186.167 71.6873C186.784 71.6873 187.256 71.4741 187.615 71.0363C187.974 70.5986 188.142 70.0037 188.142 69.263C188.142 68.5222 187.963 67.8712 187.615 67.4335C187.267 66.9957 186.784 66.7712 186.156 66.7712C185.527 66.7712 185.067 66.9957 184.719 67.4335C184.371 67.8712 184.191 68.4885 184.191 69.263H184.203ZM192.419 65.604L195.45 70.4751H195.472V65.604H196.965V72.8658H195.371L192.352 68.0059H192.329V72.8658H190.836V65.604H192.419ZM204.812 65.604L207.528 72.8658H205.867L205.317 71.2496H202.6L202.028 72.8658H200.411L203.161 65.604H204.8H204.812ZM203.97 67.3886L203.027 70.0486H204.913L203.992 67.3886H203.97ZM210.66 65.4244C211.547 65.4244 212.254 65.6264 212.781 66.0305C213.309 66.4345 213.567 67.0182 213.567 67.7589H212.018C211.996 67.3886 211.872 67.1192 211.648 66.9396C211.423 66.76 211.075 66.6702 210.592 66.6702C210.256 66.6702 209.998 66.7376 209.784 66.8835C209.582 67.0294 209.481 67.2314 209.481 67.4896C209.481 67.7028 209.549 67.8487 209.672 67.9498C209.795 68.0395 209.975 68.1293 210.211 68.2079C210.447 68.2865 210.839 68.3875 211.423 68.5334C212.029 68.6793 212.489 68.8477 212.815 69.016C213.14 69.1956 213.387 69.4201 213.556 69.6895C213.724 69.9588 213.814 70.2956 213.814 70.6996C213.814 71.1598 213.691 71.5751 213.444 71.9343C213.197 72.2934 212.849 72.5628 212.377 72.7536C211.906 72.9444 211.378 73.0342 210.794 73.0342C209.896 73.0342 209.156 72.8097 208.572 72.3608C207.988 71.9118 207.708 71.2945 207.708 70.5088V70.4527H209.257C209.257 70.8792 209.403 71.2047 209.694 71.4404C209.986 71.6761 210.368 71.7883 210.851 71.7883C211.277 71.7883 211.625 71.7098 211.883 71.5639C212.141 71.4067 212.276 71.1823 212.276 70.8904C212.276 70.6884 212.209 70.5313 212.063 70.3966C211.917 70.2619 211.726 70.1496 211.49 70.0711C211.255 69.9813 210.851 69.8803 210.289 69.7456C209.638 69.5885 209.167 69.4089 208.864 69.2293C208.561 69.0497 208.336 68.8252 208.179 68.5671C208.022 68.3089 207.943 67.9946 207.943 67.6243C207.943 67.1753 208.078 66.7712 208.336 66.4345C208.594 66.0978 208.942 65.8397 209.358 65.6825C209.773 65.5254 210.211 65.4356 210.66 65.4356V65.4244ZM217.26 65.4244C218.147 65.4244 218.854 65.6264 219.382 66.0305C219.909 66.4345 220.167 67.0182 220.167 67.7589H218.618C218.596 67.3886 218.472 67.1192 218.248 66.9396C218.023 66.76 217.675 66.6702 217.193 66.6702C216.856 66.6702 216.598 66.7376 216.385 66.8835C216.182 67.0294 216.081 67.2314 216.081 67.4896C216.081 67.7028 216.149 67.8487 216.272 67.9498C216.396 68.0395 216.575 68.1293 216.811 68.2079C217.047 68.2865 217.44 68.3875 218.023 68.5334C218.63 68.6793 219.09 68.8477 219.415 69.016C219.741 69.1956 219.988 69.4201 220.156 69.6895C220.324 69.9588 220.414 70.2956 220.414 70.6996C220.414 71.1598 220.291 71.5751 220.044 71.9343C219.797 72.2934 219.449 72.5628 218.977 72.7536C218.506 72.9444 217.978 73.0342 217.395 73.0342C216.497 73.0342 215.756 72.8097 215.172 72.3608C214.589 71.9118 214.308 71.2945 214.308 70.5088V70.4527H215.857C215.857 70.8792 216.003 71.2047 216.295 71.4404C216.587 71.6761 216.968 71.7883 217.451 71.7883C217.877 71.7883 218.225 71.7098 218.484 71.5639C218.742 71.4067 218.876 71.1823 218.876 70.8904C218.876 70.6884 218.809 70.5313 218.663 70.3966C218.517 70.2619 218.326 70.1496 218.091 70.0711C217.855 69.9813 217.451 69.8803 216.89 69.7456C216.239 69.5885 215.767 69.4089 215.464 69.2293C215.161 69.0497 214.936 68.8252 214.779 68.5671C214.622 68.3089 214.544 67.9946 214.544 67.6243C214.544 67.1753 214.678 66.7712 214.937 66.4345C215.195 66.0978 215.543 65.8397 215.958 65.6825C216.373 65.5254 216.811 65.4356 217.26 65.4356V65.4244ZM222.917 65.5927V70.1384C222.917 70.6772 223.041 71.07 223.277 71.3169C223.512 71.5639 223.894 71.6873 224.41 71.6873C224.972 71.6873 225.353 71.5639 225.578 71.3169C225.802 71.07 225.915 70.6772 225.915 70.1384V65.5927H227.508V70.1384C227.508 71.0476 227.25 71.7547 226.734 72.2598C226.218 72.7648 225.443 73.023 224.41 73.023C223.378 73.023 222.581 72.7648 222.076 72.2598C221.57 71.7547 221.324 71.0476 221.324 70.1384V65.5927H222.917ZM232.795 65.5927C233.402 65.5927 233.907 65.7835 234.311 66.1539C234.715 66.5243 234.917 67.0069 234.917 67.5906C234.917 68.4997 234.535 69.1058 233.772 69.4089V69.4313C234.03 69.5099 234.232 69.6333 234.378 69.8017C234.524 69.9701 234.636 70.1721 234.704 70.4078C234.782 70.6435 234.827 71.0027 234.85 71.519C234.872 72.1812 234.973 72.6301 235.13 72.8546H233.536C233.446 72.6301 233.379 72.2149 233.334 71.5975C233.278 70.9465 233.166 70.52 232.975 70.318C232.795 70.116 232.492 70.015 232.077 70.015H230.472V72.8546H228.878V65.5927H232.795ZM232.234 68.8813C232.571 68.8813 232.84 68.8028 233.031 68.6569C233.222 68.4997 233.323 68.2304 233.323 67.8487C233.323 67.4784 233.233 67.2202 233.042 67.0743C232.852 66.9284 232.582 66.8498 232.234 66.8498H230.483V68.8926H232.245L232.234 68.8813ZM239.833 65.5927L242.55 72.8546H240.889L240.339 71.2384H237.622L237.05 72.8546H235.433L238.183 65.5927H239.822H239.833ZM238.992 67.3773L238.049 70.0374H239.935L239.014 67.3773H238.992ZM244.761 65.5927L247.792 70.4639H247.814V65.5927H249.307V72.8546H247.713L244.694 67.9946H244.671V72.8546H243.179V65.5927H244.761ZM253.966 65.4244C254.808 65.4244 255.526 65.6601 256.098 66.1427C256.671 66.6253 257.008 67.2539 257.098 68.0395H255.548C255.492 67.6804 255.313 67.3773 255.01 67.1304C254.707 66.8835 254.359 66.76 253.966 66.76C253.337 66.76 252.854 66.9845 252.518 67.4335C252.17 67.8824 252.001 68.4885 252.001 69.2517C252.001 70.015 252.181 70.5874 252.529 71.0251C252.877 71.4629 253.36 71.6761 253.977 71.6761C254.437 71.6761 254.808 71.5302 255.099 71.2496C255.391 70.969 255.56 70.5649 255.627 70.0486H257.176C257.097 70.969 256.761 71.6986 256.188 72.2261C255.605 72.7536 254.875 73.023 253.988 73.023C252.922 73.023 252.069 72.675 251.406 71.9679C250.744 71.272 250.419 70.3629 250.419 69.2517C250.419 68.1406 250.744 67.209 251.395 66.4906C252.046 65.7723 252.911 65.4131 253.988 65.4131L253.966 65.4244ZM263.675 65.5927V66.9396H259.848V68.4997H263.361V69.7456H259.848V71.5302H263.765V72.8771H258.254V65.6152H263.687L263.675 65.5927ZM270.163 65.4244C271.05 65.4244 271.757 65.6264 272.285 66.0305C272.812 66.4345 273.071 67.0182 273.071 67.7589H271.522C271.499 67.3886 271.376 67.1192 271.151 66.9396C270.927 66.76 270.579 66.6702 270.096 66.6702C269.759 66.6702 269.501 66.7376 269.288 66.8835C269.086 67.0294 268.985 67.2314 268.985 67.4896C268.985 67.7028 269.052 67.8487 269.176 67.9498C269.299 68.0395 269.479 68.1293 269.714 68.2079C269.95 68.2865 270.343 68.3875 270.927 68.5334C271.533 68.6793 271.993 68.8477 272.319 69.016C272.644 69.1956 272.891 69.4201 273.059 69.6895C273.228 69.9588 273.318 70.2956 273.318 70.6996C273.318 71.1598 273.194 71.5751 272.947 71.9343C272.7 72.2934 272.352 72.5628 271.881 72.7536C271.409 72.9444 270.882 73.0342 270.298 73.0342C269.4 73.0342 268.659 72.8097 268.076 72.3608C267.492 71.9118 267.211 71.2945 267.211 70.5088V70.4527H268.76C268.76 70.8792 268.906 71.2047 269.198 71.4404C269.49 71.6761 269.872 71.7883 270.354 71.7883C270.781 71.7883 271.129 71.7098 271.387 71.5639C271.645 71.4067 271.78 71.1823 271.78 70.8904C271.78 70.6884 271.712 70.5313 271.566 70.3966C271.421 70.2619 271.23 70.1496 270.994 70.0711C270.758 69.9813 270.354 69.8803 269.793 69.7456C269.142 69.5885 268.67 69.4089 268.367 69.2293C268.064 69.0497 267.84 68.8252 267.683 68.5671C267.525 68.3089 267.447 67.9946 267.447 67.6243C267.447 67.1753 267.582 66.7712 267.84 66.4345C268.098 66.0978 268.446 65.8397 268.861 65.6825C269.277 65.5254 269.714 65.4356 270.163 65.4356V65.4244ZM275.271 65.5927L276.966 68.4548L278.649 65.5927H280.423L277.729 70.0711V72.8546H276.135V70.0262L273.464 65.5927H275.26H275.271ZM283.544 65.4244C284.43 65.4244 285.137 65.6264 285.665 66.0305C286.193 66.4345 286.451 67.0182 286.451 67.7589H284.902C284.879 67.3886 284.756 67.1192 284.531 66.9396C284.307 66.76 283.959 66.6702 283.476 66.6702C283.139 66.6702 282.881 66.7376 282.668 66.8835C282.466 67.0294 282.365 67.2314 282.365 67.4896C282.365 67.7028 282.432 67.8487 282.556 67.9498C282.679 68.0395 282.859 68.1293 283.095 68.2079C283.33 68.2865 283.723 68.3875 284.307 68.5334C284.913 68.6793 285.373 68.8477 285.699 69.016C286.024 69.1956 286.271 69.4201 286.44 69.6895C286.608 69.9588 286.698 70.2956 286.698 70.6996C286.698 71.1598 286.574 71.5751 286.327 71.9343C286.08 72.2934 285.732 72.5628 285.261 72.7536C284.79 72.9444 284.262 73.0342 283.678 73.0342C282.78 73.0342 282.039 72.8097 281.456 72.3608C280.872 71.9118 280.591 71.2945 280.591 70.5088V70.4527H282.14C282.14 70.8792 282.286 71.2047 282.578 71.4404C282.87 71.6761 283.252 71.7883 283.734 71.7883C284.161 71.7883 284.509 71.7098 284.767 71.5639C285.025 71.4067 285.16 71.1823 285.16 70.8904C285.16 70.6884 285.093 70.5313 284.947 70.3966C284.801 70.2619 284.61 70.1496 284.374 70.0711C284.138 69.9813 283.734 69.8803 283.173 69.7456C282.522 69.5885 282.051 69.4089 281.748 69.2293C281.444 69.0497 281.22 68.8252 281.063 68.5671C280.906 68.3089 280.827 67.9946 280.827 67.6243C280.827 67.1753 280.962 66.7712 281.22 66.4345C281.478 66.0978 281.826 65.8397 282.241 65.6825C282.657 65.5254 283.095 65.4356 283.544 65.4356V65.4244ZM293.017 65.5927V66.9396H290.84V72.8546H289.246V66.9396H287.068V65.5927H293.017ZM299.281 65.5927V66.9396H295.453V68.4997H298.967V69.7456H295.453V71.5302H299.371V72.8771H293.859V65.6152H299.292L299.281 65.5927ZM302.682 65.5927L304.377 70.5874H304.4L306.005 65.5927H308.25V72.8546H306.757V67.7141H306.734L304.961 72.8546H303.726L301.952 67.7589H301.93V72.8546H300.437V65.5927H302.682Z" fill="url(#paint1_linear_72_20)"/>
<path d="M95.2773 54.5147V16.5441H143.578V20.8878H99.5541V33.5259H138.617V37.5441H99.5541V50.1823H143.578V54.5259H95.2773V54.5147Z" fill="url(#paint2_linear_72_20)"/>
<path d="M180.801 54.5147H176.177L148.159 16.5553H153.603L178.489 50.519L203.375 16.5553H208.819L180.801 54.5147Z" fill="url(#paint3_linear_72_20)"/>
<path d="M250.171 54.5147L244.648 47.0283H205.63L200.119 54.5147H194.82L222.838 16.5553H227.463L255.48 54.5147H250.182H250.171ZM225.105 20.5622L208.537 43.0663H241.718L225.105 20.5622Z" fill="url(#paint4_linear_72_20)"/>
<path d="M260.43 54.5147V50.171H297.888C302.984 50.171 305.521 48.0609 305.521 43.8295C305.521 39.5981 302.973 37.5329 297.888 37.5329H270.499C266.379 37.5329 263.349 36.5788 261.407 34.6595C259.465 32.7402 258.488 30.1924 258.488 27.016C258.488 23.8396 259.465 21.3367 261.429 19.4286C263.394 17.5093 266.413 16.5553 270.499 16.5553H308.058V20.899H270.6C265.504 20.899 262.967 23.0091 262.967 27.2405C262.967 31.4719 265.515 33.5371 270.6 33.5371H297.989C302.109 33.5371 305.139 34.4912 307.081 36.4105C309.023 38.3298 310 40.8776 310 44.054C310 47.2303 309.023 49.7333 307.059 51.6413C305.094 53.5606 302.075 54.5147 297.989 54.5147H260.43Z" fill="url(#paint5_linear_72_20)"/>
<path d="M67.7317 51.1363C67.7317 50.7996 67.5184 50.4629 67.0806 50.0364C65.5428 48.5548 63.9039 47.163 62.3212 45.7376C60.963 44.5254 59.6272 43.2796 58.2578 42.0786C57.618 41.5174 56.9445 40.9786 56.2822 40.4287C55.5638 39.8338 55.0699 39.2277 54.4076 38.5767L54.3852 38.5543C54.4413 38.2737 54.4525 37.8696 54.4188 37.0839C54.3964 36.2983 54.2841 35.6922 54.2505 35.3555C54.2056 34.9738 53.678 34.884 53.678 34.884L51.9157 34.682C51.9157 34.682 51.4218 34.6483 51.3208 34.9626C51.231 35.2432 51.1075 35.5575 51.085 36.1636C49.188 34.4688 46.2471 31.3261 45.3715 30.5292C45.3491 29.6312 45.0572 23.7387 45.046 23.1775V23.1438C45.046 21.853 44.249 18.2053 42.5204 18.2053C40.7917 18.2053 39.9948 21.853 39.9948 23.1438V23.1775C39.9948 23.7387 39.6917 29.6312 39.6692 30.5292C38.7825 31.3148 35.8415 34.4575 33.9557 36.1636C33.9333 35.5687 33.8098 35.2432 33.72 34.9626C33.619 34.6371 33.1251 34.682 33.1251 34.682L31.3627 34.884C31.3627 34.884 30.8352 34.9626 30.7903 35.3555C30.7566 35.6922 30.6444 36.287 30.6219 37.0839C30.5995 37.8696 30.5995 38.2737 30.6556 38.5543L30.6331 38.5767C29.9709 39.2389 29.4882 39.8338 28.7586 40.4287C28.0963 40.9786 27.4228 41.5174 26.783 42.0786C25.4135 43.2796 24.0777 44.5142 22.7195 45.7376C21.1368 47.163 19.4867 48.5548 17.9601 50.0364C17.5224 50.4629 17.3091 50.7996 17.3091 51.1363C17.3091 51.1363 17.3091 52.2363 17.3091 52.6516C17.3091 52.9321 17.455 52.8087 17.455 52.8087L35.4037 42.6173L39.6468 41.2817V43.3918C39.6468 44.4581 40.1631 53.6617 40.4438 55.2218L34.4496 61.8664V64.3581L35.3588 63.6735L40.904 59.4757L41.3193 59.1502C41.5999 60.2277 42.5204 63.1908 42.5204 63.1908C42.5204 63.1908 43.4408 60.2277 43.7214 59.1502C43.7214 59.1502 44.1368 59.4645 44.1368 59.4757L49.6819 63.6735L50.5911 64.3581V61.8664L44.597 55.2218C44.8776 53.6617 45.394 44.4581 45.394 43.3918V41.2817L49.637 42.6173L67.5857 52.8087C67.5857 52.8087 67.7317 52.9321 67.7317 52.6516C67.7317 52.2363 67.7317 51.1363 67.7317 51.1363Z" fill="url(#paint6_linear_72_20)"/>
<defs>
<linearGradient id="paint0_linear_72_20" x1="0" y1="42" x2="83.9853" y2="42" gradientUnits="userSpaceOnUse">
<stop stop-color="#FAE28B"/>
<stop offset="1" stop-color="#FFF7CC"/>
</linearGradient>
<linearGradient id="paint1_linear_72_20" x1="95.1997" y1="69.2405" x2="308.238" y2="69.2405" gradientUnits="userSpaceOnUse">
<stop stop-color="#FAE28B"/>
<stop offset="1" stop-color="#FFF7CC"/>
</linearGradient>
<linearGradient id="paint2_linear_72_20" x1="95.2773" y1="35.5238" x2="310.011" y2="35.5238" gradientUnits="userSpaceOnUse">
<stop stop-color="#FAE28B"/>
<stop offset="1" stop-color="#FFF7CC"/>
</linearGradient>
<linearGradient id="paint3_linear_72_20" x1="95.2783" y1="35.5238" x2="310.012" y2="35.5238" gradientUnits="userSpaceOnUse">
<stop stop-color="#FAE28B"/>
<stop offset="1" stop-color="#FFF7CC"/>
</linearGradient>
<linearGradient id="paint4_linear_72_20" x1="95.2772" y1="35.5238" x2="310.011" y2="35.5238" gradientUnits="userSpaceOnUse">
<stop stop-color="#FAE28B"/>
<stop offset="1" stop-color="#FFF7CC"/>
</linearGradient>
<linearGradient id="paint5_linear_72_20" x1="95.2771" y1="35.5238" x2="310.011" y2="35.5238" gradientUnits="userSpaceOnUse">
<stop stop-color="#FAE28B"/>
<stop offset="1" stop-color="#FFF7CC"/>
</linearGradient>
<linearGradient id="paint6_linear_72_20" x1="17.2979" y1="41.2929" x2="67.7317" y2="41.2929" gradientUnits="userSpaceOnUse">
<stop stop-color="#FAE28B"/>
<stop offset="1" stop-color="#FFF7CC"/>
</linearGradient>
</defs>
</svg>
