<svg width="174" height="62" viewBox="0 0 174 62" fill="none" xmlns="http://www.w3.org/2000/svg">
<g clip-path="url(#clip0_60_3)">
<path d="M52 61.4203C52 61.4203 58.6432 55.4849 61.1648 52.9018C61.2338 52.8297 61.307 52.7519 61.376 52.6769C69.0951 55.5628 84.6058 48.879 98.5237 36.3543C98.934 35.996 98.8643 36.1524 99.2518 35.7812L84.3498 32.4231L103.659 31.1708L103.867 30.9935C118.584 17.148 115.788 0.578857 115.788 0.578857C115.788 0.578857 97.5537 0.795137 82.39 9.74188L81.2679 24.3566L77.6789 13.0142C76.7175 13.7351 76.4053 13.9478 75.4865 14.7596C72.2538 17.6469 69.9605 20.0815 67.4759 23.0582L69.1833 34.3919L63.8585 27.5712C57.0923 37.1185 54.683 46.0083 58.2421 50.4896C57.8403 51.0296 57.4393 51.6056 57.0411 52.214C53.6839 57.3269 52 61.4203 52 61.4203ZM60.8476 50.0736C60.8476 50.0736 79.4403 20.7036 111.144 7.8069C111.144 7.8069 82.5706 23.2831 60.8476 50.0736Z" fill="#212121"/>
</g>
<path d="M119 26L149 8.67949L149 43.3205L119 26Z" fill="#212121"/>
<path d="M55 26L25 43.3205L25 8.67949L55 26Z" fill="#212121"/>
<rect x="147" y="22" width="27" height="10" fill="#212121"/>
<rect x="27" y="30" width="27" height="10" transform="rotate(-180 27 30)" fill="#212121"/>
<defs>
<clipPath id="clip0_60_3">
<rect width="64" height="62" fill="white" transform="translate(52)"/>
</clipPath>
</defs>
</svg>
