<svg width="96" height="95" viewBox="0 0 96 95" fill="none" xmlns="http://www.w3.org/2000/svg">
<path d="M47.9999 0.429443C21.9409 0.429443 0.745117 21.6252 0.745117 47.6968C0.745117 73.7684 21.9409 94.9642 47.9999 94.9642C74.0588 94.9642 95.2546 73.7684 95.2546 47.6968C95.2546 21.6252 74.0588 0.429443 47.9999 0.429443ZM47.9999 92.5894C23.242 92.5894 3.10722 72.4421 3.10722 47.6842C3.10722 22.9263 23.242 2.79155 47.9999 2.79155C72.7577 2.79155 92.8925 22.9389 92.8925 47.6968C92.8925 72.4547 72.7577 92.6021 47.9999 92.6021V92.5894Z" fill="url(#paint0_linear_125_21)"/>
<path d="M76.9647 57.9789C76.9647 57.6 76.7247 57.221 76.2321 56.741C74.5015 55.0736 72.6573 53.5073 70.8763 51.9031C69.3478 50.5389 67.8447 49.1368 66.3036 47.7852C65.5836 47.1536 64.8257 46.5473 64.0805 45.9284C63.2721 45.2589 62.7163 44.5768 61.971 43.8442L61.9457 43.8189C62.0089 43.5031 62.0215 43.0484 61.9836 42.1642C61.9584 41.28 61.8321 40.5978 61.7942 40.2189C61.7436 39.7894 61.15 39.6884 61.15 39.6884L59.1668 39.461C59.1668 39.461 58.611 39.4231 58.4973 39.7768C58.3963 40.0926 58.2573 40.4463 58.2321 41.1284C56.0973 39.221 52.7878 35.6842 51.8026 34.7873C51.7773 33.7768 51.4489 27.1452 51.4363 26.5136V26.4757C51.4363 25.0231 50.5394 20.9178 48.5942 20.9178C46.6489 20.9178 45.7521 25.0231 45.7521 26.4757V26.5136C45.7521 27.1452 45.411 33.7768 45.3857 34.7873C44.3878 35.6715 41.0784 39.2084 38.9563 41.1284C38.931 40.4589 38.7921 40.0926 38.691 39.7768C38.5773 39.4105 38.0215 39.461 38.0215 39.461L36.0384 39.6884C36.0384 39.6884 35.4447 39.7768 35.3942 40.2189C35.3563 40.5978 35.2299 41.2673 35.2047 42.1642C35.1794 43.0484 35.1794 43.5031 35.2426 43.8189L35.2173 43.8442C34.4721 44.5894 33.9289 45.2589 33.1078 45.9284C32.3626 46.5473 31.6047 47.1536 30.8847 47.7852C29.3436 49.1368 27.8405 50.5263 26.3121 51.9031C24.531 53.5073 22.6742 55.0736 20.9563 56.741C20.4636 57.221 20.2236 57.6 20.2236 57.9789C20.2236 57.9789 20.2236 59.2168 20.2236 59.6842C20.2236 60 20.3878 59.861 20.3878 59.861L40.5857 48.3915L45.3605 46.8884V49.2631C45.3605 50.4631 45.9415 60.821 46.2573 62.5768L39.5121 70.0547V72.8589L40.5352 72.0884L46.7752 67.3642L47.2426 66.9978C47.5584 68.2105 48.5942 71.5452 48.5942 71.5452C48.5942 71.5452 49.63 68.2105 49.9457 66.9978C49.9457 66.9978 50.4131 67.3515 50.4131 67.3642L56.6531 72.0884L57.6763 72.8589V70.0547L50.931 62.5768C51.2468 60.821 51.8278 50.4631 51.8278 49.2631V46.8884L56.6026 48.3915L76.8005 59.861C76.8005 59.861 76.9647 60 76.9647 59.6842C76.9647 59.2168 76.9647 57.9789 76.9647 57.9789Z" fill="url(#paint1_linear_125_21)"/>
<defs>
<linearGradient id="paint0_linear_125_21" x1="0.745117" y1="47.6968" x2="95.2546" y2="47.6968" gradientUnits="userSpaceOnUse">
<stop stop-color="#FAE28B"/>
<stop offset="1" stop-color="#FFF7CC"/>
</linearGradient>
<linearGradient id="paint1_linear_125_21" x1="20.211" y1="46.901" x2="76.9647" y2="46.901" gradientUnits="userSpaceOnUse">
<stop stop-color="#FAE28B"/>
<stop offset="1" stop-color="#FFF7CC"/>
</linearGradient>
</defs>
</svg>
