<svg width="109" height="100" viewBox="0 0 109 100" fill="none" xmlns="http://www.w3.org/2000/svg">
<g clip-path="url(#clip0_52_8)">
<path d="M18.5491 40.3179C19.3576 38.0771 20.0287 35.7921 20.9867 33.6318C33.0154 6.53131 68.5578 0.515021 88.9243 22.1081C107.955 42.2851 101.499 75.4522 76.271 87.1327C71.0702 89.5405 65.6168 90.862 59.8743 90.9867C58.1138 91.0249 58.3462 90.854 58.3361 92.6019C58.324 94.6818 58.3321 96.7596 58.3361 98.8395C58.3361 99.1955 58.3664 99.5515 58.3846 99.99C58.7909 99.99 59.0921 100.016 59.3872 99.986C62.6314 99.6461 65.9321 99.5716 69.1076 98.9059C95.6774 93.3281 112.804 68.1586 108.274 41.5067C103.734 14.8025 78.1265 -3.56423 51.2171 0.585422C30.5515 3.77158 14.2013 19.0004 9.67157 39.3122C9.52806 39.9538 9.22689 40.2374 8.63465 40.4889C3.62994 42.613 0.765777 46.3905 0.0300277 51.7551C-0.0346536 52.2298 0.0219425 52.7186 0.0219425 53.2778H6.29804C6.29804 53.7143 6.29804 54.0743 6.29804 54.4323C6.30411 56.478 6.28996 58.5217 6.32634 60.5673C6.34655 61.732 7.02773 62.438 8.00199 62.4138C8.97221 62.3877 9.61902 61.6495 9.63519 60.4949C9.64934 59.455 9.62306 58.4171 9.62104 57.3771C9.617 56.0194 9.62104 54.6617 9.62104 53.2858H17.5404C17.5627 53.6881 17.597 54.0482 17.597 54.4082C17.597 56.4539 17.5768 58.4975 17.5829 60.5432C17.5849 61.6696 18.262 62.3998 19.2606 62.3998C20.2227 62.3998 20.8756 61.7078 20.8917 60.6196C20.912 59.2116 20.8998 57.8036 20.8998 56.3955C20.8998 55.3677 20.8998 54.3418 20.8998 53.2134H27.4407C27.1456 47.0784 24.1824 42.9187 18.5471 40.3159L18.5491 40.3179ZM54.2733 59.6239C50.9503 67.9595 47.7324 76.0335 44.5125 84.1095C44.5833 84.1517 44.654 84.192 44.7227 84.2342C55.7489 70.8338 66.773 57.4335 77.9507 43.848C73.8232 44.0371 69.9848 44.2121 65.9321 44.3951C69.5118 37.9665 72.9723 31.7511 76.5237 25.3727C75.9941 25.3727 75.697 25.3727 75.3998 25.3727C67.7533 25.429 60.1068 25.5075 52.4602 25.5135C51.4152 25.5135 51.0393 25.8253 50.8068 26.829C48.4237 37.1519 45.982 47.4606 43.5625 57.7734C43.4372 58.3084 43.3584 58.8536 43.2169 59.6219H54.2733V59.6239Z" fill="white"/>
<path d="M19.1496 40.6057C24.1462 43.0979 26.8931 46.9197 27.3863 52.3909C27.4268 52.8334 27.073 53.2156 26.6263 53.2156H21.6641C21.2456 53.2156 20.902 53.5575 20.902 53.9739C20.902 54.8127 20.902 55.6052 20.902 56.3957C20.902 57.8037 20.9142 59.2117 20.8939 60.6198C20.8778 61.708 20.2229 62.3999 19.2628 62.3999C18.2642 62.3999 17.5891 61.6697 17.5851 60.5433C17.5811 58.4977 17.5992 56.454 17.5992 54.4084C17.5992 54.2756 17.5952 54.1428 17.5871 54.0081C17.5649 53.6038 17.2334 53.2839 16.8271 53.2839H10.3853C9.96484 53.2839 9.62324 53.6239 9.62324 54.0423C9.62324 55.1606 9.62324 56.2669 9.62324 57.3753C9.62526 58.4152 9.65356 59.4551 9.63739 60.493C9.62122 61.6476 8.97441 62.3858 8.00419 62.412C7.02993 62.4381 6.34875 61.7321 6.32854 60.5655C6.29418 58.5218 6.30631 56.4761 6.30024 54.4305C6.30024 54.2997 6.30024 54.169 6.30024 54.0342C6.30024 53.6179 5.95865 53.2759 5.53822 53.2759H0.765957C0.353614 53.2759 0.0160586 52.95 0.00393086 52.5397C-0.00415429 52.2661 -0.00415429 52.0067 0.0302076 51.7532C0.763935 46.3866 3.6281 42.6111 8.63483 40.485C9.22707 40.2336 9.52824 39.9499 9.67175 39.3083C14.2015 19.0005 30.5517 3.77172 51.2173 0.585563C78.1267 -3.56208 103.734 14.8026 108.274 41.5068C112.806 68.1607 95.6776 93.3302 69.1077 98.906C65.3785 99.5275 63.0863 99.8272 59.1286 99.9942C58.7062 100.038 58.3707 99.7347 58.3484 99.3103C58.3403 99.1494 58.3343 98.9945 58.3343 98.8396C58.3302 96.7598 58.3343 94.6819 58.3343 92.6021C58.3343 91.5722 58.847 91.0338 59.8725 90.9869C65.6149 90.8621 71.0664 89.5406 76.2692 87.1329C101.497 75.4523 107.953 42.2832 88.9224 22.1082C68.5579 0.515163 33.0156 6.53145 20.9849 33.6319C20.1178 35.5871 19.4851 37.6468 18.7736 39.6804C18.6483 40.0405 18.806 40.4367 19.1476 40.6057H19.1496Z" fill="black"/>
<path d="M54.2718 59.6238H43.2153C43.3568 58.8534 43.4357 58.3083 43.561 57.7753C45.9805 47.4605 48.4202 37.1517 50.8053 26.8309C51.0377 25.8252 51.4137 25.5154 52.4587 25.5154C60.1052 25.5094 67.7517 25.4309 75.3983 25.3746C75.6954 25.3726 75.9925 25.3746 76.5221 25.3746C72.9707 31.753 69.5103 37.9684 65.9306 44.397C69.9833 44.212 73.8237 44.037 77.9492 43.8499C66.7735 57.4354 55.7473 70.8357 44.7212 84.2361C44.6504 84.1939 44.5797 84.1536 44.511 84.1114C47.7309 76.0354 50.9488 67.9593 54.2718 59.6258V59.6238Z" fill="black"/>
</g>
<defs>
<clipPath id="clip0_52_8">
<rect width="109" height="100" fill="white"/>
</clipPath>
</defs>
</svg>
