<svg width="90" height="90" viewBox="0 0 90 90" fill="none" xmlns="http://www.w3.org/2000/svg">
<path d="M84.9952 60.8191C80.1822 56.0061 73.2192 54.6821 67.2032 56.8091L33.1892 22.7971C35.3162 16.7811 33.9922 9.81811 29.1802 5.00611C25.7342 1.56111 21.1872 -0.10489 16.6742 0.00510971C14.6462 0.0541097 14.2042 1.64811 15.6382 3.08111L20.0112 7.45611C24.1712 11.6161 24.1712 15.8521 20.0112 20.0121C15.8502 24.1721 11.6152 24.1721 7.4552 20.0131L3.0812 15.6371C1.6472 14.2031 0.0541973 14.6471 0.0051973 16.6741C-0.105803 21.1871 1.5612 25.7351 5.0052 29.1781C9.8182 33.9911 16.7802 35.3151 22.7962 33.1881L56.8132 67.2021C54.6842 73.2181 56.0082 80.1811 60.8212 84.9931C64.2662 88.4381 68.8132 90.1041 73.3272 89.9941C75.3542 89.9421 75.7972 88.3501 74.3642 86.9171L69.9892 82.5421C65.8282 78.3821 65.8282 74.1461 69.9892 69.9851C74.1492 65.8261 78.3842 65.8261 82.5462 69.9851L86.9202 74.3601C88.3552 75.7951 89.9462 75.3501 89.9962 73.3241C90.1052 68.8101 88.4392 64.2631 84.9952 60.8191Z" fill="#212121"/>
<path d="M73.8231 22.8032C74.1771 22.4492 74.5401 22.1962 74.9931 21.9842L81.0931 19.1402C82.1101 18.6662 82.5731 18.2432 83.1411 17.2762L88.1301 8.75617C88.3931 8.30717 88.3521 7.98517 87.9831 7.61717L84.0851 3.71717C83.7161 3.35017 83.3961 3.30917 82.9461 3.57117L74.4251 8.56017C73.4561 9.12717 73.0331 9.59217 72.5611 10.6082L69.7171 16.7082C69.5051 17.1612 69.2511 17.5242 68.8991 17.8782L52.1191 34.6562L57.0441 39.5822L73.8231 22.8032Z" fill="#212121"/>
<path d="M25.082 51.2242C24.583 51.2732 24.2 51.4262 23.846 51.7822L5.71797 69.9062C0.10897 75.5142 0.61897 80.1972 5.71797 85.2962L6.40197 85.9822C11.503 91.0822 16.183 91.5902 21.794 85.9822L39.92 67.8542C40.275 67.5002 40.428 67.1182 40.479 66.6182C40.635 65.0202 41.115 62.5772 42.993 60.4542L31.246 48.7072C29.121 50.5852 26.68 51.0632 25.082 51.2242ZM6.48797 78.5412C5.63697 77.6922 5.63697 76.3121 6.48797 75.4632L26.068 55.8832C26.493 55.4592 27.05 55.2462 27.607 55.2462C28.164 55.2462 28.722 55.4592 29.146 55.8832C29.997 56.7342 29.997 58.1122 29.146 58.9612L9.56597 78.5412C8.71497 79.3922 7.33697 79.3922 6.48797 78.5412ZM34.278 61.9162C34.836 61.9162 35.392 62.1282 35.817 62.5542C36.667 63.4022 36.667 64.7822 35.817 65.6312L16.236 85.2112C15.386 86.0642 14.007 86.0642 13.158 85.2112C12.308 84.3601 12.308 82.9832 13.158 82.1332L32.738 62.5542C33.164 62.1282 33.721 61.9162 34.278 61.9162Z" fill="#212121"/>
</svg>
